<svg width="238" height="232" viewBox="0 0 238 232" fill="none" xmlns="http://www.w3.org/2000/svg">
<g clip-path="url(#clip0)">
<path opacity="0.18" d="M53.8453 29.0023C41.2504 34.0535 27.7893 37.533 16.6966 45.3523C5.60385 53.1715 -2.78495 67.0154 0.871007 80.1008C3.70759 90.2345 13.1655 98.1593 13.5947 108.688C13.938 117.082 8.39751 124.412 5.45558 132.278C-0.486808 148.171 4.65182 166.683 15.1671 179.976C25.6823 193.268 40.8407 202.112 56.3697 208.883C93.1712 224.88 133.505 230.966 173.376 226.539C185.261 225.202 197.251 222.856 207.786 217.187C218.32 211.518 227.33 202.124 230.275 190.512C234.282 174.737 226.787 157.71 230.884 141.959C232.488 135.781 235.812 130.14 237.228 123.916C240.635 108.915 232.335 93.5929 221.777 82.4271C211.219 71.2612 198.187 62.5193 188.534 50.5559C181.847 42.2715 176.946 32.6343 170.071 24.5062C156.563 8.51202 134.748 -0.925768 113.819 0.075091C93.0268 1.06422 73.4517 21.1322 53.8453 29.0023Z" fill="#41B783"/>
<path d="M46.7432 211.365L47.3402 214.078C43.4618 216.897 38.4949 217.57 33.8284 218.653C29.1618 219.736 24.2144 221.616 21.807 225.764C25.2757 230.268 31.737 230.812 37.4141 230.96C83.1948 232.156 128.998 232.321 174.823 231.453C189.361 231.175 203.981 230.788 218.249 227.985C219.272 227.785 220.415 227.488 220.926 226.577C221.8 225.014 220.146 223.266 218.636 222.351C213.627 219.345 207.887 217.785 202.049 217.843C199.856 217.871 196.977 217.636 196.474 215.498C196.302 214.716 196.536 213.934 196.509 213.152C196.446 211.197 194.772 209.633 192.935 209.047C191.097 208.46 189.107 208.656 187.183 208.832C150.932 212.327 114.123 209.614 77.7505 207.753C71.9837 207.456 66.5603 210.622 60.8325 209.887C55.4559 209.207 51.5658 208.151 46.7432 211.365Z" fill="url(#paint0_linear)"/>
<path d="M178.26 14.6768H59.7516C52.2052 14.6768 46.0876 20.8066 46.0876 28.3682V197.146C46.0876 204.708 52.2052 210.837 59.7516 210.837H178.26C185.806 210.837 191.924 204.708 191.924 197.146V28.3682C191.924 20.8066 185.806 14.6768 178.26 14.6768Z" fill="#41B783"/>
<path d="M178.26 14.6768H59.7516C52.2052 14.6768 46.0876 20.8066 46.0876 28.3682V197.146C46.0876 204.708 52.2052 210.837 59.7516 210.837H178.26C185.806 210.837 191.924 204.708 191.924 197.146V28.3682C191.924 20.8066 185.806 14.6768 178.26 14.6768Z" fill="url(#paint1_linear)"/>
<path d="M120.389 148.194L44.3904 147.713C41.5091 147.697 38.7396 148.829 36.6909 150.859C34.6422 152.889 33.482 155.651 33.4655 158.539L33.3952 169.759C33.386 171.19 33.6581 172.609 34.1961 173.934C34.734 175.26 35.5273 176.466 36.5305 177.484C37.5338 178.503 38.7274 179.313 40.0432 179.869C41.359 180.425 42.7712 180.716 44.1992 180.726L116.273 181.175C121.027 181.212 125.584 183.088 128.992 186.41L131.01 188.365L131.123 170.381L131.15 166.08L131.193 159.152C131.209 156.265 130.079 153.49 128.053 151.437C126.027 149.384 123.27 148.222 120.389 148.205V148.194Z" fill="url(#paint2_linear)"/>
<path d="M182.213 37.235V192.392C182.21 195.614 180.932 198.703 178.658 200.982C176.385 203.26 173.301 204.541 170.086 204.543H68.7452C67.1532 204.543 65.5768 204.229 64.106 203.618C62.6352 203.008 61.2988 202.113 60.1731 200.985C59.0474 199.857 58.1545 198.518 57.5452 197.044C56.936 195.57 56.6224 193.991 56.6224 192.396V37.235C56.6219 35.6399 56.935 34.0602 57.5437 32.5862C58.1525 31.1123 59.045 29.7729 60.1704 28.6446C61.2957 27.5162 62.6318 26.6211 64.1024 26.0101C65.573 25.3992 67.1493 25.0845 68.7413 25.084H170.074C171.667 25.083 173.245 25.3965 174.718 26.0066C176.19 26.6167 177.528 27.5116 178.655 28.6399C179.783 29.7683 180.677 31.1082 181.287 32.5829C181.898 34.0577 182.212 35.6385 182.213 37.235Z" fill="#41B783"/>
<path opacity="0.69" d="M182.213 37.235V192.392C182.21 195.614 180.932 198.703 178.658 200.982C176.385 203.26 173.301 204.541 170.086 204.543H68.7452C67.1532 204.543 65.5768 204.229 64.106 203.618C62.6352 203.008 61.2988 202.113 60.1731 200.985C59.0474 199.857 58.1545 198.518 57.5452 197.044C56.936 195.57 56.6224 193.991 56.6224 192.396V37.235C56.6219 35.6399 56.935 34.0602 57.5437 32.5862C58.1525 31.1123 59.045 29.7729 60.1704 28.6446C61.2957 27.5162 62.6318 26.6211 64.1024 26.0101C65.573 25.3992 67.1493 25.0845 68.7413 25.084H170.074C171.667 25.083 173.245 25.3965 174.718 26.0066C176.19 26.6167 177.528 27.5116 178.655 28.6399C179.783 29.7683 180.677 31.1082 181.287 32.5829C181.898 34.0577 182.212 35.6385 182.213 37.235Z" fill="url(#paint3_linear)"/>
<path opacity="0.6" d="M119.616 43.514C119.971 41.9502 120.327 40.3864 120.186 38.7912C118.968 40.0444 117.304 40.7628 115.559 40.7891C115.351 40.7653 115.142 40.8048 114.958 40.9024C114.839 41.0146 114.749 41.1538 114.695 41.3083C114.641 41.4628 114.626 41.628 114.649 41.7899C114.649 43.7095 114.618 45.7347 113.639 47.3806C112.66 49.0266 110.974 49.961 109.214 50.5083C105.313 51.7516 101.103 51.2082 97.0642 50.5826C96.1395 50.438 95.1719 50.2738 94.4383 49.6951C93.4434 48.9132 93.1039 47.5214 93.2366 46.2625C93.3692 45.0036 93.9077 43.8268 94.4071 42.6539C95.1875 40.7969 95.8235 38.8147 95.6167 36.8169C95.4099 34.8191 94.1418 32.8135 92.1987 32.3208C91.7907 32.1963 91.3577 32.1787 90.941 32.2697C90.5243 32.3608 90.1378 32.5574 89.8186 32.8408C89.513 33.1827 89.2771 33.5811 89.1241 34.0137C87.4691 38.0948 86.3973 42.3895 85.9403 46.7707C83.6851 46.5596 81.5352 47.7091 79.3073 48.0218C77.8753 48.2251 58.0817 48.3268 56.6419 48.229C56.6419 48.229 56.439 50.5083 56.9736 51.2433C57.5081 51.9783 60.411 51.9901 61.2655 52.3146C67.3484 54.6603 74.0399 54.5079 80.5246 55.1021C91.5978 56.1147 104.907 59.6646 114.685 52.5022C117.724 50.2738 118.805 47.0874 119.616 43.514Z" fill="url(#paint4_linear)"/>
<path opacity="0.6" d="M134.896 96.0161C135.087 92.2903 133.979 88.6113 132.481 85.1943C130.982 81.7773 129.098 78.548 127.607 75.1271C127.217 74.2631 126.952 73.0824 127.709 72.5233C127.943 73.1097 128.852 72.9416 129.305 72.4998C129.757 72.058 130.085 71.4247 130.713 71.28C131.61 72.7324 132.379 74.2603 133.011 75.8464L137.444 86.0114C137.916 87.0983 138.411 88.2204 139.305 88.9945C140.69 90.1908 142.727 90.3042 144.502 90.2612C145.679 90.229 146.853 90.1114 148.014 89.9093C149.313 89.6826 150.784 89.3072 151.549 88.1969C152.719 86.4767 151.603 84.0332 152.329 82.0745C152.671 81.2613 153.223 80.5541 153.929 80.0258C154.83 79.2947 156.071 78.7239 157.124 79.2126C157.647 79.506 158.086 79.9286 158.4 80.4402C161.131 84.256 162.657 88.9319 165.962 92.2512C167.861 92.231 169.684 91.4939 171.065 90.1869C172.4 88.9163 173.406 87.3446 174.448 85.8316C176.243 83.2356 178.205 80.7491 180.168 78.2939L182.283 75.6314C182.341 75.5429 182.426 75.4746 182.525 75.4359C182.767 75.3734 182.915 75.6822 182.985 75.9286C183.765 79.5215 181.401 83.0089 178.865 85.6596C176.914 87.7043 174.678 89.6786 173.305 92.0987C173.191 92.2981 173.118 92.5179 173.09 92.7456C173.062 92.9733 173.078 93.2043 173.139 93.4255C173.2 93.6467 173.304 93.8537 173.445 94.0346C173.586 94.2155 173.761 94.3667 173.96 94.4796C174.178 94.6038 174.421 94.6798 174.67 94.7025C179.298 95.0935 184.035 94.1825 188.693 94.7494C190.102 94.9214 191.752 95.4492 191.983 96.9388C192.026 97.3156 191.978 97.6975 191.842 98.0515C191.706 98.4056 191.487 98.7214 191.202 98.9718C190.211 99.9179 188.861 100.106 187.55 100.266C172.79 102.084 157.897 102.612 143.039 103.1C142.453 103.154 141.863 103.105 141.295 102.956C140.062 102.565 139.344 101.298 138.645 100.219C137.604 98.6444 136.341 97.2288 134.896 96.0161Z" fill="url(#paint5_linear)"/>
<path d="M210.637 106.893V116.807C210.644 118.065 210.404 119.312 209.93 120.477C209.456 121.642 208.758 122.702 207.876 123.596C206.993 124.491 205.943 125.203 204.786 125.691C203.629 126.179 202.388 126.433 201.132 126.441H138.072C133.898 126.426 129.886 128.053 126.897 130.972L125.126 132.688V106.885C125.121 104.849 125.76 102.865 126.952 101.217C128.144 99.5684 129.827 98.3416 131.759 97.7128C132.693 97.4117 133.669 97.2587 134.65 97.2593H201.136C202.391 97.2664 203.633 97.5213 204.79 98.0094C205.946 98.4974 206.996 99.2091 207.878 100.104C208.761 100.998 209.458 102.058 209.932 103.223C210.405 104.388 210.645 105.635 210.637 106.893Z" fill="url(#paint6_linear)"/>
<path d="M107.615 60.032L109.253 85.163H107.615L105.874 83.4857C102.917 80.6434 98.4143 79.627 94.3214 79.627H32.3301C29.8465 79.627 27.4647 78.6384 25.7085 76.8787C23.9524 75.1191 22.9658 72.7324 22.9658 70.2439L23.5472 60.032C23.5472 57.5435 24.5338 55.1568 26.2899 53.3972C28.046 51.6375 30.4279 50.6489 32.9114 50.6489H98.266C99.7895 50.6455 101.29 51.0161 102.638 51.7283C103.985 52.4405 105.138 53.4727 105.995 54.7345C107.061 56.294 107.626 58.1422 107.615 60.032Z" fill="url(#paint7_linear)"/>
<path d="M109.249 60.032V85.163L107.505 83.4857C104.554 80.6432 100.619 79.0557 96.5258 79.0562H34.515C32.0314 79.0562 29.6496 78.0676 27.8935 76.3079C26.1373 74.5483 25.1508 72.1616 25.1508 69.6731V60.032C25.1508 57.5435 26.1373 55.1568 27.8935 53.3972C29.6496 51.6375 32.0314 50.6489 34.515 50.6489H99.8852C101.409 50.6462 102.909 51.0171 104.257 51.7292C105.604 52.4414 106.757 53.4732 107.615 54.7345C108.685 56.2923 109.256 58.1405 109.249 60.032Z" fill="white"/>
<path d="M210.637 106.087V115.724C210.637 118.213 209.65 120.599 207.894 122.359C206.138 124.119 203.756 125.107 201.273 125.107H139.293C135.199 125.108 131.263 126.695 128.31 129.537L126.554 131.202V106.087C126.554 103.605 127.535 101.225 129.283 99.4661C131.03 97.7076 133.402 96.7144 135.879 96.7041H201.284C203.766 96.7072 206.145 97.6971 207.898 99.4565C209.652 101.216 210.637 103.601 210.637 106.087Z" fill="white"/>
<path d="M142.067 94.7962C141.677 94.0143 141.053 93.42 140.67 92.6615C139.851 91.0429 140.331 89.0334 141.299 87.5008C141.689 86.8636 142.196 86.2498 142.34 85.5109C142.508 84.6429 142.173 83.6968 142.535 82.8914C142.832 82.2424 143.503 81.8671 144.096 81.4527C144.997 80.8076 145.778 79.9631 146.796 79.5331C147.815 79.103 149.227 79.2594 149.726 80.2524C150.667 79.7872 151.857 80.2094 152.559 80.9835C153.261 81.7576 153.574 82.8132 153.788 83.8375C153.972 85.0128 154.24 86.1731 154.592 87.3093C155.005 88.4235 155.731 89.483 156.804 89.9874C158.888 90.9648 161.791 89.698 163.437 91.3244C164.28 92.165 164.58 93.6507 165.724 93.9712C166.313 94.1354 166.953 93.9204 167.538 94.0768C168.549 94.3505 168.966 95.5742 168.989 96.622C169.006 97.6492 168.812 98.669 168.418 99.6175C168.024 100.566 167.439 101.423 166.699 102.135C165.973 102.826 165.045 103.472 164.896 104.48C164.881 104.991 164.92 105.502 165.014 106.005C165.069 106.681 164.929 107.358 164.609 107.956C164.29 108.554 163.804 109.046 163.212 109.374C162.62 109.702 161.945 109.852 161.27 109.805C160.595 109.758 159.948 109.516 159.407 109.109C158.579 108.492 157.881 107.455 156.851 107.502C156.401 107.566 155.972 107.737 155.602 108.003C154.792 108.558 153.896 108.974 152.949 109.234C152.474 109.36 151.975 109.368 151.496 109.257C151.017 109.147 150.572 108.922 150.199 108.601C149.613 108.026 149.395 107.19 149.11 106.416C148.65 105.164 147.811 103.878 146.504 103.628C145.942 103.522 145.36 103.628 144.798 103.534C140.99 102.92 143.226 97.138 142.067 94.7962Z" fill="#3F3D56"/>
<path d="M172.564 81.6561C173.511 80.1428 174.227 78.4954 174.686 76.7691C174.886 76.0452 175.217 75.3641 175.662 74.7595C175.705 74.6989 175.768 74.6544 175.84 74.633C175.911 74.6117 175.988 74.6146 176.058 74.6413C176.127 74.668 176.186 74.7171 176.226 74.7809C176.265 74.8447 176.282 74.9196 176.274 74.9941L176.118 76.558C176.898 75.6509 177.823 73.9893 179.13 72.6092C179.166 72.5737 179.214 72.5537 179.265 72.5537C179.315 72.5537 179.364 72.5737 179.399 72.6092C179.424 72.6353 179.441 72.6677 179.449 72.7029C179.456 72.7381 179.454 72.7747 179.442 72.8086L178.389 75.4554C178.385 75.4688 178.383 75.4828 178.384 75.4968C178.386 75.5107 178.39 75.5243 178.396 75.5366C178.403 75.549 178.412 75.5599 178.422 75.5688C178.433 75.5777 178.446 75.5843 178.459 75.5884C178.478 75.5942 178.499 75.5943 178.518 75.5888C178.538 75.5832 178.555 75.5722 178.568 75.5571L180.129 73.4498C180.976 72.8399 180.878 73.7352 180.8 73.9463L179.782 75.9011C179.77 75.928 179.768 75.9581 179.776 75.9864C179.783 76.0147 179.8 76.0395 179.824 76.0568C179.847 76.0741 179.876 76.0828 179.906 76.0815C179.935 76.0803 179.963 76.069 179.985 76.0497C180.429 75.6121 180.902 75.2046 181.401 74.8299C181.462 74.7887 181.536 74.7694 181.609 74.7751C181.683 74.7808 181.752 74.8112 181.806 74.8614C181.86 74.9116 181.896 74.9787 181.908 75.0517C181.919 75.1247 181.905 75.1995 181.869 75.2639L180.309 77.4493C180.121 77.7113 179.961 77.8638 180.281 77.8403L181.405 77.4259C181.74 77.293 181.58 78.0631 181.288 78.2704C179.653 79.4432 178.99 80.3581 177.858 81.3316C176.727 82.3051 169.466 94.3037 166.153 98.5573C164.947 100.102 162.641 101.13 161.709 98.6433C161.01 96.7589 163.152 94.9957 164.183 93.6312C167.137 89.7659 169.931 85.7742 172.564 81.6561Z" fill="url(#paint8_linear)"/>
<path d="M121.961 148.194L45.9628 147.713C43.0815 147.697 40.312 148.829 38.2633 150.859C36.2146 152.889 35.0544 155.651 35.0379 158.539L34.9676 169.759C34.9584 171.19 35.2305 172.609 35.7684 173.934C36.3064 175.26 37.0996 176.466 38.1029 177.484C39.1061 178.503 40.2997 179.313 41.6156 179.869C42.9314 180.425 44.3436 180.716 45.7716 180.726L117.833 181.175C122.595 181.207 127.16 183.083 130.573 186.41L132.59 188.365L132.703 170.381L132.73 166.08L132.773 159.152C132.789 156.265 131.659 153.49 129.633 151.437C127.607 149.384 124.851 148.222 121.969 148.205L121.961 148.194Z" fill="white"/>
<path d="M108.582 19.8491H133.327C133.638 19.8491 133.935 19.9727 134.155 20.1926C134.374 20.4126 134.498 20.7109 134.498 21.022C134.498 21.3331 134.374 21.6314 134.155 21.8514C133.935 22.0713 133.638 22.1949 133.327 22.1949H108.582C108.272 22.1949 107.974 22.0713 107.755 21.8514C107.535 21.6314 107.412 21.3331 107.412 21.022C107.412 20.7109 107.535 20.4126 107.755 20.1926C107.974 19.9727 108.272 19.8491 108.582 19.8491Z" fill="url(#paint9_linear)"/>
<path d="M108.403 60.6498C106.343 61.5412 105.98 61.4005 103.775 61.7875C101.571 62.1746 99.8462 61.8931 97.747 61.1072C96.3073 65.5095 94.7778 70.3183 94.3876 74.9316C94.2592 76.3201 94.0363 77.6982 93.7204 79.0562H80.4544C80.4154 78.7591 80.3803 78.4542 80.349 78.1375C79.9991 73.89 80.0474 69.6189 80.4934 65.3804C80.5293 65.1211 80.5514 64.8601 80.5597 64.5985C80.5696 64.385 80.5539 64.171 80.5129 63.9613C80.3992 63.5101 80.212 63.0808 79.9589 62.6906C79.4321 61.7641 78.1602 60.3449 77.4539 59.3166C77.3603 59.1759 77.2745 59.043 77.2042 58.9257C77.6295 56.9709 79.5063 56.013 80.3803 54.2341C81.0282 52.8737 81.9486 51.6613 83.0842 50.6725C83.4502 50.3635 83.8418 50.0862 84.2547 49.8437C85.753 48.9718 87.4815 48.6239 89.2061 48.3619C89.4753 48.3189 89.7406 48.2798 90.0098 48.2446C91.1154 49.0535 92.4315 49.5235 93.7984 49.5974C94.2291 49.588 94.6592 49.634 95.0782 49.7342C95.4331 49.8698 95.7647 50.0597 96.0615 50.2972L96.5843 50.6881C97.5441 51.3723 98.504 52.0643 99.4638 52.7524C100.129 53.2596 100.838 53.7071 101.582 54.0895C103.99 55.2311 104.985 55.1255 107.63 54.7893C107.938 56.4587 108.251 58.9257 108.403 60.6498Z" fill="#41B783"/>
<path d="M89.1866 48.2484C88.496 48.8857 90.5054 51.0868 91.235 51.6811C91.9646 52.2753 93.0727 52.2714 93.9975 51.9977C94.6139 51.8179 95.2694 51.47 95.4372 50.8444C95.493 50.3991 95.4517 49.9469 95.3163 49.5191C95.1485 48.6003 95.3163 47.6346 95.0665 46.7276C94.7872 45.8122 94.219 45.0124 93.4473 44.4483C92.7255 43.8814 90.7785 42.3762 90.3766 43.8814C89.9396 45.4843 90.8019 46.7471 89.1866 48.2484Z" fill="url(#paint10_linear)"/>
<path d="M89.0305 79.056H80.8368C80.6852 78.7411 80.5172 78.4345 80.3335 78.1373C80.2945 78.0762 80.2486 78.0198 80.1969 77.9692C79.8375 77.5897 79.588 77.1194 79.4751 76.6086C78.4218 72.9668 78.5932 69.079 79.9628 65.5444C80.0879 65.1892 80.2859 64.8642 80.5442 64.5905C80.9655 64.1409 81.4416 63.9219 81.8903 63.0931C82.776 61.4628 84.4654 58.6831 85.3004 57.0293C85.6321 60.2391 84.3874 63.2143 84.5201 66.4358C84.5864 68.3124 84.6566 70.2203 85.3004 71.9875C85.8343 73.446 86.6784 74.7707 87.7741 75.8697C88.1799 76.3349 88.8159 77.8714 89.0305 79.056Z" fill="url(#paint11_linear)"/>
<path d="M107.615 54.7619C107.615 54.7619 108.305 59.8092 108.278 59.5199C108.251 59.2306 118.13 56.533 120.951 47.1616C121.167 46.8499 121.43 46.5741 121.731 46.3445C125.243 43.7173 125.789 42.6109 124.739 43.2559C124.196 43.6297 123.538 43.7974 122.882 43.729C123.269 43.4029 123.628 43.0445 123.955 42.6578C124.369 42.1534 125.274 41.6335 125.496 41.0236C125.529 40.9554 125.542 40.8798 125.535 40.8046C125.515 40.7345 125.47 40.6738 125.41 40.6331C125.349 40.5924 125.276 40.5742 125.204 40.5818C125.063 40.6022 124.93 40.6558 124.814 40.7382C124.284 41.0695 123.777 41.4352 123.296 41.8328C122.995 42.0792 122.168 42.4115 122.453 41.8328C122.898 40.9141 123.885 40.3042 124.146 39.319C124.168 39.2642 124.178 39.2051 124.174 39.1462C124.17 39.0873 124.152 39.0301 124.123 38.9788C124.022 38.8537 123.819 38.8928 123.67 38.9788C123.136 39.2212 121.524 41.438 121.13 41.3872C120.736 41.3363 121.556 39.0179 121.587 38.5722C121.587 38.451 121.587 38.3064 121.482 38.2477C121.424 38.2267 121.362 38.224 121.303 38.2401C121.245 38.2563 121.192 38.2904 121.154 38.3377C120.124 39.19 119.983 40.6834 119.32 41.8563C119.232 42.0544 119.071 42.2111 118.871 42.2942C118.446 42.4193 118.091 41.9345 117.658 41.8368C117.581 41.8093 117.497 41.8093 117.42 41.8368C117.182 41.9423 117.217 42.3137 117.361 42.5327C119.312 45.5118 114.345 52.6781 107.615 54.7619Z" fill="url(#paint12_linear)"/>
<path d="M78.5622 59.8679C78.5622 59.8679 76.5137 76.3899 78.0822 79.0563H81.4885C80.7906 73.7473 80.9222 68.3617 81.8787 63.0933C81.8787 63.0933 81.5782 60.4935 78.5622 59.8679Z" fill="url(#paint13_linear)"/>
<path opacity="0.32" d="M67.9962 58.9099H32.217C31.0059 58.9099 30.0242 59.8936 30.0242 61.1071V61.111C30.0242 62.3245 31.0059 63.3082 32.217 63.3082H67.9962C69.2072 63.3082 70.189 62.3245 70.189 61.111V61.1071C70.189 59.8936 69.2072 58.9099 67.9962 58.9099Z" fill="#41B783"/>
<path opacity="0.32" d="M67.9962 67.9138H32.217C31.0059 67.9138 30.0242 68.8975 30.0242 70.111V70.1149C30.0242 71.3284 31.0059 72.3121 32.217 72.3121H67.9962C69.2072 72.3121 70.189 71.3284 70.189 70.1149V70.111C70.189 68.8975 69.2072 67.9138 67.9962 67.9138Z" fill="#41B783"/>
<path opacity="0.32" d="M202.502 107.745H166.723C166.141 107.745 165.582 107.513 165.171 107.101C164.759 106.689 164.527 106.131 164.526 105.548C164.526 105.259 164.583 104.973 164.693 104.707C164.803 104.44 164.965 104.198 165.168 103.994C165.372 103.79 165.613 103.628 165.88 103.518C166.146 103.407 166.431 103.35 166.719 103.35H202.502C202.79 103.35 203.075 103.407 203.341 103.518C203.607 103.628 203.849 103.79 204.052 103.994C204.256 104.198 204.417 104.44 204.528 104.707C204.638 104.973 204.695 105.259 204.695 105.548C204.695 106.13 204.464 106.689 204.052 107.101C203.641 107.513 203.083 107.745 202.502 107.745Z" fill="#41B783"/>
<path opacity="0.32" d="M202.502 116.749H166.723C166.141 116.749 165.582 116.517 165.171 116.105C164.759 115.693 164.527 115.135 164.526 114.551C164.527 114.263 164.585 113.978 164.695 113.713C164.806 113.447 164.969 113.206 165.173 113.003C165.376 112.8 165.618 112.639 165.884 112.53C166.15 112.421 166.435 112.365 166.723 112.366H202.502C203.083 112.366 203.641 112.597 204.052 113.01C204.464 113.422 204.695 113.98 204.695 114.563C204.69 115.144 204.458 115.699 204.047 116.108C203.636 116.517 203.081 116.748 202.502 116.749Z" fill="#41B783"/>
<path opacity="0.32" d="M101.746 159.317H65.9711C65.3892 159.317 64.831 159.085 64.4192 158.673C64.0073 158.261 63.7754 157.702 63.7744 157.119C63.7744 156.536 64.0059 155.976 64.4178 155.563C64.8298 155.15 65.3885 154.918 65.9711 154.918H101.746C102.328 154.918 102.886 155.15 103.297 155.562C103.708 155.974 103.939 156.533 103.939 157.115C103.94 157.404 103.884 157.69 103.774 157.957C103.664 158.223 103.503 158.466 103.3 158.67C103.096 158.875 102.855 159.037 102.589 159.148C102.323 159.259 102.038 159.316 101.75 159.317H101.746Z" fill="#41B783"/>
<path opacity="0.32" d="M101.75 164.966H65.9711C64.7601 164.966 63.7783 165.95 63.7783 167.163V167.167C63.7783 168.38 64.7601 169.364 65.9711 169.364H101.75C102.961 169.364 103.943 168.38 103.943 167.167V167.163C103.943 165.95 102.961 164.966 101.75 164.966Z" fill="#41B783"/>
<path d="M164.401 100.188C164.14 100.926 163.699 101.588 163.117 102.111C162.029 103.108 160.648 103.734 159.575 104.746C157.194 106.99 156.8 110.576 156.551 113.84L155.681 125.108H139.293C138.118 125.109 136.947 125.24 135.801 125.499C136.012 122.475 136.194 119.452 136.347 116.428C136.636 110.748 136.648 104.5 133.035 100.11C132.66 99.7527 132.401 99.2907 132.293 98.7842C132.247 98.2016 132.641 97.6856 133.011 97.2203C133.035 97.1969 133.05 97.1734 133.074 97.146L135.485 94.1943C135.607 93.997 135.767 93.8262 135.956 93.6919C136.145 93.5576 136.359 93.4625 136.585 93.4124C136.983 93.4374 137.355 93.6137 137.627 93.905C138.556 94.752 139.402 95.6854 140.155 96.6925C140.651 97.3181 141.135 97.9514 141.65 98.5613C144.081 101.439 147.791 103.464 151.295 101.157C153.702 99.5236 156.209 98.0442 158.802 96.7277C160.01 96.1405 161.249 95.6185 162.513 95.1639C162.438 95.7699 162.762 96.2625 163.164 96.7277C163.596 97.1685 163.976 97.6578 164.296 98.186C164.444 98.4963 164.529 98.8329 164.547 99.1763C164.565 99.5198 164.516 99.8635 164.401 100.188Z" fill="#41B783"/>
<path d="M135.824 97.017C136.578 95.6729 136.827 94.1033 136.527 92.5913C136.226 91.095 135.747 89.6406 135.099 88.2595L130.986 78.4855C130.616 77.6884 130.33 76.8551 130.132 75.9989C129.847 74.5368 130.077 73.0276 130.307 71.5576C130.047 71.4829 129.768 71.5109 129.527 71.6358C129.564 72.0314 129.482 72.4289 129.291 72.7773C129.101 73.1257 128.81 73.4089 128.458 73.5906C128.096 72.1216 127.431 70.7446 126.507 69.5481C126.608 70.6402 126.684 71.7349 126.733 72.8322C125.875 71.9486 125.014 71.0676 124.15 70.1893C123.483 71.3622 125.883 72.6093 125.321 73.8448L122.488 71.8C122.281 73.1918 124.529 73.8487 124.65 75.2561L122.617 74.3061C123.046 75.3578 124.041 76.042 124.829 76.863C127.724 79.9164 127.724 84.6431 129.535 88.4393C130.573 90.6248 131.685 92.4115 132.153 94.8002C132.504 96.5947 134.045 99.8827 135.824 97.017Z" fill="url(#paint14_linear)"/>
<path d="M74.4144 118.919C76.1103 118.919 77.4851 117.541 77.4851 115.842C77.4851 114.142 76.1103 112.765 74.4144 112.765C72.7185 112.765 71.3438 114.142 71.3438 115.842C71.3438 117.541 72.7185 118.919 74.4144 118.919Z" fill="#41B783"/>
<path d="M83.8529 118.919C85.5488 118.919 86.9236 117.541 86.9236 115.842C86.9236 114.142 85.5488 112.765 83.8529 112.765C82.157 112.765 80.7822 114.142 80.7822 115.842C80.7822 117.541 82.157 118.919 83.8529 118.919Z" fill="#41B783"/>
<path d="M93.2913 118.919C94.9872 118.919 96.362 117.541 96.362 115.842C96.362 114.142 94.9872 112.765 93.2913 112.765C91.5954 112.765 90.2206 114.142 90.2206 115.842C90.2206 117.541 91.5954 118.919 93.2913 118.919Z" fill="#41B783"/>
<path d="M149.922 171.12C151.617 171.12 152.992 169.742 152.992 168.043C152.992 166.343 151.617 164.966 149.922 164.966C148.226 164.966 146.851 166.343 146.851 168.043C146.851 169.742 148.226 171.12 149.922 171.12Z" fill="#41B783"/>
<path d="M159.356 171.12C161.052 171.12 162.427 169.742 162.427 168.043C162.427 166.343 161.052 164.966 159.356 164.966C157.66 164.966 156.285 166.343 156.285 168.043C156.285 169.742 157.66 171.12 159.356 171.12Z" fill="#41B783"/>
<path d="M168.79 171.12C170.486 171.12 171.861 169.742 171.861 168.043C171.861 166.343 170.486 164.966 168.79 164.966C167.095 164.966 165.72 166.343 165.72 168.043C165.72 169.742 167.095 171.12 168.79 171.12Z" fill="#41B783"/>
<path d="M137.412 66.3813C139.108 66.3813 140.483 65.0037 140.483 63.3044C140.483 61.6051 139.108 60.2275 137.412 60.2275C135.717 60.2275 134.342 61.6051 134.342 63.3044C134.342 65.0037 135.717 66.3813 137.412 66.3813Z" fill="#41B783"/>
<path d="M146.851 66.3813C148.547 66.3813 149.922 65.0037 149.922 63.3044C149.922 61.6051 148.547 60.2275 146.851 60.2275C145.155 60.2275 143.78 61.6051 143.78 63.3044C143.78 65.0037 145.155 66.3813 146.851 66.3813Z" fill="#41B783"/>
<path d="M156.285 66.3813C157.981 66.3813 159.356 65.0037 159.356 63.3044C159.356 61.6051 157.981 60.2275 156.285 60.2275C154.589 60.2275 153.215 61.6051 153.215 63.3044C153.215 65.0037 154.589 66.3813 156.285 66.3813Z" fill="#41B783"/>
<path d="M100.993 43.7054C100.572 45.1754 99.8774 46.622 98.7029 47.615C97.8979 48.2884 96.9111 48.7067 95.8681 48.8167C94.8251 48.9266 93.7731 48.7233 92.8457 48.2325C91.9184 47.7417 91.1577 46.9856 90.6603 46.0605C90.163 45.1353 89.9515 44.0828 90.0527 43.0369C90.0527 42.9157 90.0527 42.7671 89.9669 42.6967C89.8758 42.6655 89.777 42.6655 89.686 42.6967C89.1124 42.7554 88.6871 42.1611 88.5154 41.6138C88.3594 41.1998 88.3203 40.7507 88.4023 40.3158C88.4464 40.1005 88.5464 39.9007 88.6924 39.7366C88.8383 39.5725 89.0249 39.45 89.2334 39.3814C89.4449 39.3223 89.6711 39.3475 89.8646 39.4517C90.058 39.5559 90.2037 39.731 90.2712 39.9405C90.3521 39.1268 90.6191 38.3428 91.0516 37.6494C91.4894 36.7459 92.0809 35.9257 92.7996 35.2255C93.5699 34.5749 94.5032 34.1479 95.4984 33.9908C96.4936 33.8336 97.5128 33.9524 98.4454 34.3341C99.274 34.6771 100.02 35.1936 100.633 35.849C101.246 36.5044 101.712 37.2836 102 38.1342C102.226 38.9162 101.895 39.5925 101.742 40.3549C101.489 41.4418 101.313 42.6146 100.993 43.7054Z" fill="url(#paint15_linear)"/>
<path d="M90.5444 40.6796C90.521 40.7111 90.4911 40.7371 90.4568 40.756C90.4225 40.7749 90.3845 40.7862 90.3454 40.7891C90.1933 40.7891 90.1542 40.5779 90.1425 40.4294C90.146 40.0625 90.0059 39.7088 89.7524 39.4442C89.6897 39.3811 89.6152 39.3312 89.5331 39.2971C89.4511 39.2629 89.3632 39.2454 89.2744 39.2454C89.1856 39.2454 89.0977 39.2629 89.0156 39.2971C88.9336 39.3312 88.8591 39.3811 88.7964 39.4442C88.5396 37.7252 88.9049 35.971 89.8265 34.4985C89.9399 34.3575 90.0139 34.1888 90.0411 34.0098C90.0411 33.7791 89.9084 33.5524 89.9514 33.3256C90.0011 33.1612 90.1007 33.0164 90.2362 32.9112C90.6457 32.4865 91.1422 32.1557 91.6915 31.9416C91.9624 31.8357 92.2549 31.7974 92.5438 31.8301C92.8327 31.8628 93.1094 31.9655 93.3498 32.1293C94.5931 31.3945 96.0071 30.9995 97.4506 30.9838C98.289 30.9654 99.1233 31.1074 99.9087 31.4021C101.324 31.9912 102.469 33.0884 103.12 34.479C103.755 35.8682 103.987 37.409 103.787 38.9242C102.52 39.4982 101.079 39.5511 99.7737 39.0715C98.4683 38.5919 97.403 37.618 96.8068 36.3595C96.6934 36.9725 96.7598 37.6053 96.998 38.1814C96.5225 37.9457 96.1084 37.6021 95.7887 37.1779C95.469 36.7537 95.2525 36.2606 95.1563 35.7378C94.8637 35.4642 94.4189 35.8121 94.177 36.1288C93.5527 36.9537 92.9752 37.9233 92.2261 38.631C91.8886 38.8829 91.5786 39.1699 91.3014 39.4872C91.0009 39.8547 90.8761 40.3277 90.5444 40.6796Z" fill="#3F3D56"/>
<path d="M150.764 101.318C150.628 102.408 149.613 103.347 148.509 103.612C148.229 103.687 147.939 103.71 147.651 103.683C146.09 103.523 145.38 101.591 145.411 100.016C145.442 98.4401 145.801 96.8332 145.083 95.4922C145.083 95.4492 145.04 95.4062 145.017 95.3632C144.627 94.6712 143.944 94.1551 143.597 93.4319C143.277 92.6146 143.206 91.7207 143.394 90.8632C143.858 87.5948 146.414 78.9585 151.338 82.1917C152.614 83.0284 153.374 84.4749 153.811 85.9371C155.357 91.0939 152.056 91.004 150.764 101.318Z" fill="url(#paint16_linear)"/>
<path d="M149.387 83.2473C150.046 83.6382 150.374 84.4202 150.522 85.2021C150.948 87.3719 150.257 89.5848 149.871 91.7624C149.485 93.9401 149.481 96.4539 151.006 98.0569L151.041 98.096C151.621 98.6873 152.412 99.0236 153.24 99.0309C154.067 99.0382 154.864 98.716 155.454 98.1351C155.751 97.8464 155.985 97.5006 156.145 97.1186C156.219 96.9504 156.305 96.7862 156.395 96.6259C156.988 95.5743 157.815 94.6711 158.404 93.6156C158.883 92.7279 159.216 91.7679 159.387 90.7733C159.604 89.7599 159.611 88.7125 159.407 87.6964C159.017 85.9918 157.846 84.5687 156.621 83.3528C155.396 82.1369 154.151 81.1126 152.602 80.5731C151.053 80.0336 149.204 80.1196 147.92 81.1322C147.53 81.445 146.457 82.696 147.015 83.2434C147.487 83.6656 148.696 82.825 149.387 83.2473Z" fill="#3F3D56"/>
<path d="M78.9639 59.8678L77.1808 58.9099L78.4723 60.6731L78.5581 59.8678H78.9639Z" fill="url(#paint17_linear)"/>
<path d="M97.7471 61.1071C97.8027 60.6584 98.0261 60.2474 98.3722 59.9572C98.7184 59.667 99.1614 59.5191 99.6121 59.5433C101.36 59.4925 108.141 58.5972 108.141 58.5972L108.403 60.6614C108.403 60.6614 102.406 63.2027 97.7471 61.1071Z" fill="url(#paint18_linear)"/>
<path opacity="0.18" d="M107.615 54.7619V55.6767C107.615 55.6767 101.688 57.2758 95.4333 50.8249L95.0431 49.7185C95.3979 49.8541 95.7296 50.044 96.0263 50.2815L96.5492 50.6725L99.4287 52.7367C100.094 53.244 100.803 53.6914 101.547 54.0738C103.955 55.2154 104.95 55.1099 107.595 54.7736L107.615 54.7619Z" fill="white"/>
<path opacity="0.18" d="M89.5104 49.7224C89.5104 49.7224 83.3495 49.4213 80.4232 56.4586C79.795 57.9599 78.2499 59.4925 78.2499 59.4925L77.4383 59.3204C77.3447 59.1797 77.2588 59.0468 77.1886 58.9295C77.6139 56.9747 79.4906 56.0168 80.3646 54.238C81.0126 52.8775 81.933 51.6651 83.0686 50.6763C83.4346 50.3673 83.8262 50.09 84.2391 49.8475C85.7374 48.9756 87.4658 48.6277 89.1904 48.3657L89.5104 49.7224Z" fill="white"/>
<path d="M164.401 100.188C164.14 100.926 163.699 101.587 163.117 102.111C162.029 103.108 160.647 103.734 159.574 104.746C157.194 106.99 156.8 110.575 156.551 113.84L155.68 125.107H143.3C143.3 125.107 150.046 111.377 151.884 107.741C153.722 104.105 159.34 101.712 159.34 101.712C163.718 98.311 164.401 100.188 164.401 100.188Z" fill="url(#paint19_linear)"/>
<path d="M148.704 103.421C148.649 103.494 148.583 103.559 148.509 103.612C148.229 103.686 147.939 103.71 147.651 103.683C146.09 103.523 145.38 101.591 145.411 100.016C145.442 98.44 146.024 96.9192 144.72 94.9331C145.403 95.4296 146.308 95.7385 148.291 95.8675C149.723 95.9457 148.864 103.214 148.704 103.421Z" fill="url(#paint20_linear)"/>
</g>
<defs>
<linearGradient id="paint0_linear" x1="123.503" y1="253.949" x2="116.444" y2="155.323" gradientUnits="userSpaceOnUse">
<stop stop-opacity="0"/>
<stop offset="0.49" stop-opacity="0.2"/>
<stop offset="0.52" stop-opacity="0.23"/>
<stop offset="0.99"/>
</linearGradient>
<linearGradient id="paint1_linear" x1="111.407" y1="378.345" x2="119.606" y2="92.866" gradientUnits="userSpaceOnUse">
<stop offset="0.01"/>
<stop offset="1" stop-opacity="0"/>
</linearGradient>
<linearGradient id="paint2_linear" x1="29995.7" y1="21800.8" x2="30221.7" y2="28820.7" gradientUnits="userSpaceOnUse">
<stop offset="0.01"/>
<stop offset="1" stop-opacity="0"/>
</linearGradient>
<linearGradient id="paint3_linear" x1="120.393" y1="316.663" x2="118.708" y2="-30.9641" gradientUnits="userSpaceOnUse">
<stop offset="0.02" stop-color="white" stop-opacity="0"/>
<stop offset="0.58" stop-color="white" stop-opacity="0.39"/>
<stop offset="0.68" stop-color="white" stop-opacity="0.68"/>
<stop offset="1" stop-color="white"/>
</linearGradient>
<linearGradient id="paint4_linear" x1="88.3165" y1="29.9946" x2="89.3115" y2="199.073" gradientUnits="userSpaceOnUse">
<stop stop-opacity="0"/>
<stop offset="0.99"/>
</linearGradient>
<linearGradient id="paint5_linear" x1="26783" y1="13511.5" x2="26292.8" y2="-4684.46" gradientUnits="userSpaceOnUse">
<stop stop-opacity="0"/>
<stop offset="0.99"/>
</linearGradient>
<linearGradient id="paint6_linear" x1="45952.4" y1="13484.5" x2="45783" y2="19616" gradientUnits="userSpaceOnUse">
<stop offset="0.01"/>
<stop offset="1" stop-opacity="0"/>
</linearGradient>
<linearGradient id="paint7_linear" x1="22769.7" y1="9156.18" x2="22892.8" y2="14726.5" gradientUnits="userSpaceOnUse">
<stop offset="0.01"/>
<stop offset="1" stop-opacity="0"/>
</linearGradient>
<linearGradient id="paint8_linear" x1="161.572" y1="86.3515" x2="181.912" y2="86.3515" gradientUnits="userSpaceOnUse">
<stop stop-color="#ECC4D7"/>
<stop offset="0.42" stop-color="#EFD4D1"/>
<stop offset="1" stop-color="#F2EAC9"/>
</linearGradient>
<linearGradient id="paint9_linear" x1="8503.82" y1="1339.13" x2="8503.82" y2="1117.2" gradientUnits="userSpaceOnUse">
<stop stop-opacity="0"/>
<stop offset="0.99"/>
</linearGradient>
<linearGradient id="paint10_linear" x1="2216.61" y1="2679.39" x2="2315.42" y2="2725.01" gradientUnits="userSpaceOnUse">
<stop stop-color="#ECC4D7"/>
<stop offset="0.42" stop-color="#EFD4D1"/>
<stop offset="1" stop-color="#F2EAC9"/>
</linearGradient>
<linearGradient id="paint11_linear" x1="2381.49" y1="9358.26" x2="1557.77" y2="9280.9" gradientUnits="userSpaceOnUse">
<stop stop-opacity="0"/>
<stop offset="0.99"/>
</linearGradient>
<linearGradient id="paint12_linear" x1="6854.73" y1="6441.44" x2="7677.91" y2="6441.44" gradientUnits="userSpaceOnUse">
<stop stop-color="#ECC4D7"/>
<stop offset="0.42" stop-color="#EFD4D1"/>
<stop offset="1" stop-color="#F2EAC9"/>
</linearGradient>
<linearGradient id="paint13_linear" x1="1390.51" y1="6838.35" x2="1439.96" y2="6838.35" gradientUnits="userSpaceOnUse">
<stop stop-color="#ECC4D7"/>
<stop offset="0.42" stop-color="#EFD4D1"/>
<stop offset="1" stop-color="#F2EAC9"/>
</linearGradient>
<linearGradient id="paint14_linear" x1="5999.12" y1="11223.7" x2="6514.14" y2="11223.7" gradientUnits="userSpaceOnUse">
<stop stop-color="#ECC4D7"/>
<stop offset="0.42" stop-color="#EFD4D1"/>
<stop offset="1" stop-color="#F2EAC9"/>
</linearGradient>
<linearGradient id="paint15_linear" x1="94.6841" y1="36.5352" x2="96.5565" y2="47.6803" gradientUnits="userSpaceOnUse">
<stop offset="0.2" stop-color="#ECC4D7"/>
<stop offset="0.37" stop-color="#F0DCCE"/>
<stop offset="1" stop-color="#F2EAC9"/>
</linearGradient>
<linearGradient id="paint16_linear" x1="5254.46" y1="9242.93" x2="5560.22" y2="9242.93" gradientUnits="userSpaceOnUse">
<stop stop-color="#ECC4D7"/>
<stop offset="0.42" stop-color="#EFD4D1"/>
<stop offset="1" stop-color="#F2EAC9"/>
</linearGradient>
<linearGradient id="paint17_linear" x1="78.8" y1="59.426" x2="77.5586" y2="59.8935" gradientUnits="userSpaceOnUse">
<stop stop-color="#68E1FD"/>
<stop offset="0.2" stop-color="#5DB4CF"/>
<stop offset="0.46" stop-color="#50819B"/>
<stop offset="0.69" stop-color="#475C76"/>
<stop offset="0.87" stop-color="#41455E"/>
<stop offset="0.99" stop-color="#3F3D56"/>
</linearGradient>
<linearGradient id="paint18_linear" x1="3963.8" y1="1072.83" x2="3950.97" y2="1240.56" gradientUnits="userSpaceOnUse">
<stop stop-opacity="0"/>
<stop offset="0.99"/>
</linearGradient>
<linearGradient id="paint19_linear" x1="10348" y1="11689" x2="13630.9" y2="13177.5" gradientUnits="userSpaceOnUse">
<stop stop-opacity="0"/>
<stop offset="0.99"/>
</linearGradient>
<linearGradient id="paint20_linear" x1="2283.43" y1="3828.69" x2="1821.95" y2="3896.2" gradientUnits="userSpaceOnUse">
<stop stop-color="#ECC4D7"/>
<stop offset="0.42" stop-color="#EFD4D1"/>
<stop offset="1" stop-color="#F2EAC9"/>
</linearGradient>
<clipPath id="clip0">
<rect width="238" height="232" fill="white"/>
</clipPath>
</defs>
</svg>
