<svg width="647" height="494" viewBox="0 0 647 494" fill="none" xmlns="http://www.w3.org/2000/svg">
<path d="M148.019 192.869C148.019 192.869 128.79 159.6 111.239 147.511C97.688 138.162 86.0409 122.623 86.3958 108.6C86.4926 104.635 88.8156 101.153 92.5581 101.927C94.8488 102.41 96.5265 104.409 96.6879 106.859C97.4944 119.367 123.499 145.963 141.631 151.798C161.924 158.342 158.924 195.158 158.924 195.158L148.019 192.869Z" fill="white" stroke="#6ED097" stroke-miterlimit="10"/>
<path d="M234.259 153.474C234.259 184.197 209.319 209.116 178.572 209.116C147.825 209.116 122.886 184.197 122.886 153.474C122.886 138.903 129.242 110.373 138.372 89.096C148.535 65.4981 162.312 49.7985 178.475 49.7985C194.994 49.7985 206.77 66.0462 216.998 90.2565C225.806 111.179 234.259 139.225 234.259 153.474Z" fill="white" stroke="#6ED097" stroke-miterlimit="10"/>
<path d="M146.341 168.819C153.181 180.844 178.54 206.989 176.088 210.922C172.894 216.047 141.534 203.765 125.564 184.036C119.724 176.814 121.498 161.663 124.692 156.537" fill="white"/>
<path d="M146.341 168.819C153.181 180.844 178.54 206.989 176.088 210.922C172.894 216.047 141.534 203.765 125.564 184.036C119.724 176.814 121.498 161.663 124.692 156.537" stroke="#6ED097" stroke-miterlimit="10"/>
<path d="M148.277 171.882C143.438 176.718 143.825 189.935 149.568 203.572C149.568 203.604 149.6 203.604 149.6 203.636C162.279 210.825 174.185 213.952 176.088 210.889C178.379 207.279 156.988 184.777 148.277 171.882Z" fill="#6ED097"/>
<path d="M174.249 34.0021L130.79 37.645L145.599 2.8929C146.115 1.66787 147.761 1.44222 148.6 2.47382L174.249 34.0021Z" fill="white" stroke="#6ED097" stroke-miterlimit="10"/>
<path d="M141.074 83.1113C139.945 84.8844 132.955 103.59 132.041 106.484C125.406 127.705 122.845 138.828 122.845 153.361C122.845 153.908 122.845 154.454 122.869 155.001C128.566 149.02 134.028 133.008 136.466 113.362C137.966 101.176 139.3 97.457 141.074 83.1113Z" fill="#6ED097"/>
<path d="M150.148 11.6293L162.538 29.0053L140.179 30.8751L146.922 12.0484C147.406 10.6622 149.277 10.4043 150.148 11.6293Z" fill="#484848"/>
<path d="M224.16 41.4168L183.347 26.0395L211.642 1.02317C212.642 0.152752 214.223 0.636311 214.546 1.92581L224.16 41.4168Z" fill="white" stroke="#6ED097" stroke-miterlimit="10"/>
<path d="M194.704 23.9763L208.319 11.9517C209.287 11.1135 210.771 11.5649 211.094 12.8221L215.74 31.9068L194.704 23.9763Z" fill="#484848"/>
<path d="M228.677 48.2189C228.677 68.0127 218.579 94.8666 178.346 94.8343C136.307 94.8021 128.016 68.0127 128.016 48.2189C128.016 28.425 150.826 15.5623 178.637 15.5623C206.448 15.5623 228.677 28.425 228.677 48.2189Z" fill="white" stroke="#6ED097" stroke-miterlimit="10"/>
<path d="M178.25 85.1631C162.602 85.1631 151.374 81.0367 144.889 72.9128C138.856 65.3692 137.598 55.3434 137.598 48.2189C137.598 40.6753 143.212 35.614 147.922 32.6804C155.665 27.877 166.57 25.2335 178.572 25.2335C190.51 25.2335 201.254 27.877 208.868 32.6482C215.546 36.8713 218.934 42.0937 218.934 48.2189C218.934 53.8282 217.901 64.4666 211.062 72.8161C204.319 81.0044 193.317 85.1631 178.379 85.1631H178.25Z" fill="#484848"/>
<path d="M211.223 168.755C203.802 180.425 176.217 205.248 178.476 209.31C181.411 214.597 218.966 202.959 231.194 185.035C236.421 177.33 236.421 162.888 233.485 157.633" fill="white"/>
<path d="M211.223 168.755C203.802 180.425 176.217 205.248 178.476 209.31C181.411 214.597 218.966 202.959 231.194 185.035C236.421 177.33 236.421 162.888 233.485 157.633" stroke="#6ED097" stroke-miterlimit="10"/>
<path d="M139.581 110.614L102.665 80.7499C99.7252 78.6158 99.108 74.5385 101.244 71.6005L103.125 69.0406C105.26 66.1026 109.341 65.486 112.281 67.6201L152.229 93.3137" fill="white"/>
<path d="M139.581 110.614L102.665 80.7499C99.7252 78.6158 99.108 74.5385 101.244 71.6005L103.125 69.0406C105.26 66.1026 109.341 65.486 112.281 67.6201L152.229 93.3137" stroke="#6ED097" stroke-miterlimit="10"/>
<path d="M203.678 101.008L234.049 64.5004C236.236 61.5997 240.329 61.0399 243.221 63.1802L245.769 65.0778C248.672 67.2623 249.233 71.3526 247.091 74.2422L220.842 113.85" fill="white"/>
<path d="M203.678 101.008L234.049 64.5004C236.236 61.5997 240.329 61.0399 243.221 63.1802L245.769 65.0778C248.672 67.2623 249.233 71.3526 247.091 74.2422L220.842 113.85" stroke="#6ED097" stroke-miterlimit="10"/>
<path d="M95.2039 132.069C96.7848 134.229 98.5593 136.292 100.431 138.258L111.723 130.811C109.787 128.813 107.948 126.782 106.27 124.751L95.2039 132.069Z" fill="#6ED097"/>
<path d="M88.8479 120.947C89.8158 123.365 91.0741 125.782 92.5259 128.136L103.883 121.688C102.14 119.367 100.656 117.078 99.4948 114.918L88.8479 120.947Z" fill="#6ED097"/>
<path d="M170.474 61.7587C170.474 61.7587 172.055 72.526 177.411 67.2068C177.959 66.691 178.831 66.691 179.347 67.239C180.992 68.9154 184.315 70.9464 185.993 62.4034" stroke="#6ED097" stroke-miterlimit="10" stroke-linecap="round"/>
<path d="M156.461 52.0022L156.993 38.4816L169.381 45.7606L156.461 52.0022Z" fill="#6ED097"/>
<path d="M196.837 53.5015L184.448 46.2224L197.521 40.251L196.837 53.5015Z" fill="#6ED097"/>
<path d="M375.169 413.544C371.025 413.591 366.896 413.036 362.911 411.897C352.4 408.736 342.993 399.926 337.128 387.757C331.872 376.856 329.763 364.852 327.737 353.177C327.716 353.073 327.716 352.966 327.738 352.862C327.761 352.758 327.804 352.659 327.866 352.573C327.928 352.486 328.007 352.413 328.098 352.359C328.189 352.304 328.291 352.269 328.396 352.255C328.499 352.236 328.604 352.238 328.707 352.26C328.809 352.282 328.906 352.324 328.991 352.384C329.077 352.443 329.15 352.52 329.206 352.608C329.263 352.696 329.301 352.794 329.319 352.897C331.329 364.424 333.404 376.313 338.561 387.016C344.245 398.79 353.29 407.27 363.372 410.317C370.704 412.507 378.694 411.963 386.24 411.074C402.402 409.164 412.254 404.158 416.389 395.793C416.537 395.464 416.686 395.167 416.784 394.887C414.198 395.612 411.644 396.534 409.14 397.473C407.064 398.23 404.922 399.004 402.781 399.679C392.357 402.949 381.3 403.671 370.539 401.787C365.349 400.865 362.186 398.362 362.071 395.101C361.956 391.841 364.773 389.239 369.798 387.79C383.566 383.79 398.151 383.523 412.056 387.016C416.01 388.004 418.185 389.651 418.646 392.039C418.695 392.3 418.728 392.564 418.745 392.829C419.371 392.681 419.997 392.549 420.64 392.434C427.328 391.248 434.314 391.923 441.069 392.565C450.657 393.488 459.718 394.36 467.89 390.342C468.082 390.252 468.303 390.241 468.503 390.312C468.704 390.383 468.868 390.53 468.961 390.721C469.008 390.815 469.037 390.917 469.044 391.022C469.052 391.127 469.039 391.233 469.005 391.333C468.971 391.432 468.918 391.524 468.848 391.603C468.778 391.682 468.693 391.746 468.598 391.792C460.015 395.991 450.311 395.085 440.92 394.163C434.33 393.521 427.394 392.862 420.92 394.015C420.129 394.146 419.272 394.327 418.564 394.509C418.37 395.238 418.099 395.944 417.756 396.616C413.374 405.508 403.094 410.794 386.372 412.787C382.656 413.261 378.915 413.514 375.169 413.544ZM392.352 386.143C384.871 386.146 377.427 387.204 370.243 389.289C368.233 389.865 363.554 391.61 363.653 395.019C363.751 398.428 369.139 399.959 370.786 400.173C381.286 402.046 392.081 401.38 402.27 398.23C404.379 397.571 406.504 396.797 408.547 396.056C411.364 395.019 414.231 393.965 417.18 393.191C417.214 392.912 417.214 392.63 417.18 392.351C416.801 390.606 415.005 389.371 411.694 388.531C405.37 386.941 398.873 386.139 392.352 386.143Z" fill="#E6E7E8"/>
<path d="M431.61 168.472H538.846C542.901 168.472 546.188 171.757 546.188 175.81V405.026C546.188 409.078 542.901 412.364 538.846 412.364H431.61C427.555 412.364 424.268 409.078 424.268 405.026V175.81C424.268 171.757 427.555 168.472 431.61 168.472Z" fill="#EFEFEF" stroke="#8E8E8E"/>
<path d="M540.23 190.119H430.226V378.58H540.23V190.119Z" fill="#383838"/>
<path d="M474.758 388.252H495.698C498.079 388.252 500.008 390.181 500.008 392.56V400.58C500.008 402.959 498.079 404.888 495.698 404.888H474.758C472.377 404.888 470.447 402.959 470.447 400.58V392.56C470.447 390.181 472.377 388.252 474.758 388.252Z" fill="white" stroke="black"/>
<path d="M495.681 406.179H474.774C473.284 406.179 471.856 405.587 470.802 404.534C469.748 403.481 469.156 402.053 469.156 400.563V392.577C469.156 391.088 469.748 389.66 470.802 388.607C471.856 387.554 473.284 386.962 474.774 386.962H495.681C496.42 386.96 497.153 387.103 497.836 387.385C498.52 387.666 499.141 388.079 499.664 388.601C500.188 389.122 500.603 389.742 500.886 390.424C501.17 391.107 501.316 391.838 501.316 392.577V400.563C501.311 402.054 500.716 403.482 499.66 404.535C498.603 405.588 497.173 406.179 495.681 406.179ZM474.774 388.559C473.708 388.559 472.686 388.983 471.932 389.736C471.178 390.49 470.755 391.511 470.755 392.577V400.563C470.755 401.629 471.178 402.651 471.932 403.405C472.686 404.158 473.708 404.581 474.774 404.581H495.681C496.747 404.581 497.77 404.158 498.524 403.405C499.278 402.651 499.701 401.629 499.701 400.563V392.577C499.701 391.511 499.278 390.49 498.524 389.736C497.77 388.983 496.747 388.559 495.681 388.559H474.774Z" fill="#E6E7E8"/>
<path d="M496.34 179.334H465.038C464.932 179.336 464.828 179.317 464.73 179.278C464.632 179.24 464.543 179.182 464.468 179.108C464.393 179.035 464.333 178.947 464.292 178.85C464.251 178.753 464.23 178.649 464.23 178.543C464.23 178.329 464.315 178.124 464.467 177.973C464.618 177.821 464.824 177.736 465.038 177.736H496.34C496.445 177.736 496.55 177.757 496.647 177.798C496.744 177.839 496.832 177.899 496.905 177.974C496.979 178.049 497.037 178.138 497.076 178.236C497.114 178.334 497.133 178.438 497.131 178.543C497.133 178.648 497.114 178.752 497.075 178.848C497.036 178.945 496.978 179.033 496.904 179.107C496.83 179.181 496.742 179.239 496.645 179.278C496.548 179.317 496.445 179.336 496.34 179.334Z" fill="#E6E7E8"/>
<path d="M504.924 179.334H500.723C500.513 179.334 500.312 179.25 500.164 179.102C500.015 178.954 499.932 178.753 499.932 178.543C499.932 178.332 500.015 178.129 500.163 177.979C500.31 177.828 500.511 177.741 500.723 177.736H504.924C505.138 177.736 505.343 177.821 505.495 177.973C505.646 178.124 505.731 178.329 505.731 178.543C505.731 178.649 505.71 178.753 505.669 178.85C505.629 178.947 505.569 179.035 505.494 179.108C505.418 179.182 505.329 179.24 505.232 179.278C505.134 179.317 505.029 179.336 504.924 179.334Z" fill="#E6E7E8"/>
<path d="M526.258 308.531H444.131C442.496 308.531 440.929 307.882 439.774 306.727C438.618 305.572 437.969 304.006 437.969 302.373V261.832C437.967 261.022 438.125 260.219 438.433 259.47C438.742 258.721 439.195 258.04 439.768 257.466C440.34 256.893 441.02 256.438 441.769 256.127C442.517 255.817 443.32 255.657 444.131 255.657H526.193C527.831 255.657 529.403 256.307 530.561 257.465C531.72 258.623 532.371 260.194 532.371 261.832V302.373C532.366 303.996 531.723 305.553 530.579 306.705C529.435 307.858 527.883 308.514 526.258 308.531ZM444.131 257.27C442.92 257.27 441.76 257.751 440.904 258.606C440.048 259.462 439.567 260.622 439.567 261.832V302.373C439.567 303.582 440.048 304.743 440.904 305.598C441.76 306.453 442.92 306.934 444.131 306.934H526.193C527.403 306.934 528.564 306.453 529.419 305.598C530.275 304.743 530.756 303.582 530.756 302.373V261.832C530.756 260.622 530.275 259.462 529.419 258.606C528.564 257.751 527.403 257.27 526.193 257.27H444.131Z" fill="#EA6C1E"/>
<path d="M438.826 303.871C438.661 303.868 438.5 303.814 438.366 303.717C438.233 303.62 438.132 303.484 438.078 303.327C438.024 303.171 438.02 303.002 438.065 302.843C438.11 302.684 438.203 302.543 438.332 302.438L478.992 270.279C479.149 270.159 479.346 270.101 479.543 270.116C479.741 270.132 479.926 270.219 480.063 270.361L504.33 295.522C504.48 295.674 504.564 295.878 504.564 296.091C504.564 296.303 504.48 296.508 504.33 296.659C504.257 296.732 504.17 296.791 504.074 296.831C503.977 296.871 503.874 296.891 503.77 296.891C503.666 296.891 503.563 296.871 503.467 296.831C503.371 296.791 503.284 296.732 503.21 296.659L479.453 271.959L439.353 303.673C439.208 303.803 439.02 303.874 438.826 303.871Z" fill="#FA883A"/>
<path d="M531.629 295.802C531.516 295.801 531.405 295.775 531.302 295.727C531.2 295.679 531.109 295.609 531.036 295.523L517.56 280.258L502.156 293.118C501.994 293.254 501.785 293.319 501.575 293.301C501.365 293.282 501.171 293.181 501.035 293.02C500.9 292.858 500.834 292.649 500.853 292.439C500.871 292.229 500.972 292.035 501.134 291.9L517.131 278.529C517.279 278.385 517.477 278.305 517.683 278.305C517.889 278.305 518.088 278.385 518.235 278.529L532.222 294.386C532.296 294.46 532.355 294.547 532.395 294.643C532.434 294.739 532.455 294.842 532.455 294.946C532.455 295.05 532.434 295.153 532.395 295.249C532.355 295.345 532.296 295.433 532.222 295.506C532.154 295.599 532.065 295.674 531.962 295.726C531.859 295.778 531.745 295.804 531.629 295.802Z" fill="#FA883A"/>
<path d="M503.754 277.146C502.518 277.149 501.308 276.785 500.279 276.101C499.249 275.416 498.447 274.442 497.972 273.301C497.497 272.16 497.372 270.903 497.613 269.691C497.853 268.479 498.448 267.366 499.322 266.492C500.197 265.618 501.311 265.023 502.523 264.783C503.736 264.543 504.993 264.668 506.135 265.142C507.276 265.617 508.251 266.419 508.936 267.448C509.621 268.477 509.985 269.686 509.981 270.921C509.977 272.571 509.32 274.151 508.153 275.318C506.986 276.484 505.404 277.141 503.754 277.146ZM503.754 266.278C502.834 266.274 501.934 266.544 501.168 267.052C500.402 267.56 499.804 268.285 499.45 269.133C499.096 269.981 499.001 270.915 499.179 271.817C499.356 272.719 499.797 273.548 500.446 274.199C501.096 274.85 501.923 275.294 502.825 275.474C503.727 275.655 504.662 275.564 505.512 275.213C506.361 274.862 507.088 274.267 507.599 273.503C508.111 272.739 508.383 271.84 508.383 270.921C508.383 269.693 507.896 268.514 507.028 267.644C506.161 266.773 504.983 266.282 503.754 266.278Z" fill="#FA883A"/>
<path d="M450.523 347.903H446.092C442.98 347.903 440.457 350.424 440.457 353.534V360.45C440.457 363.561 442.98 366.082 446.092 366.082H450.523C453.635 366.082 456.158 363.561 456.158 360.45V353.534C456.158 350.424 453.635 347.903 450.523 347.903Z" fill="#EA6C1E"/>
<path d="M475.137 347.903H470.705C467.593 347.903 465.071 350.424 465.071 353.534V360.45C465.071 363.561 467.593 366.082 470.705 366.082H475.137C478.249 366.082 480.771 363.561 480.771 360.45V353.534C480.771 350.424 478.249 347.903 475.137 347.903Z" fill="#FEB247"/>
<path d="M499.75 347.903H495.319C492.207 347.903 489.684 350.424 489.684 353.534V360.45C489.684 363.561 492.207 366.082 495.319 366.082H499.75C502.862 366.082 505.385 363.561 505.385 360.45V353.534C505.385 350.424 502.862 347.903 499.75 347.903Z" fill="#EA6C1E"/>
<path d="M524.364 347.903H519.932C516.82 347.903 514.298 350.424 514.298 353.534V360.45C514.298 363.561 516.82 366.082 519.932 366.082H524.364C527.476 366.082 529.998 363.561 529.998 360.45V353.534C529.998 350.424 527.476 347.903 524.364 347.903Z" fill="#FEB247"/>
<path d="M530.46 205.828H439.995C439.89 205.831 439.786 205.812 439.688 205.773C439.59 205.734 439.501 205.676 439.426 205.603C439.35 205.529 439.291 205.441 439.25 205.344C439.209 205.247 439.188 205.143 439.188 205.038C439.188 204.824 439.273 204.619 439.425 204.468C439.576 204.316 439.781 204.231 439.995 204.231H530.46C530.674 204.231 530.879 204.316 531.031 204.468C531.182 204.619 531.267 204.824 531.267 205.038C531.267 205.143 531.246 205.247 531.205 205.344C531.165 205.441 531.105 205.529 531.03 205.603C530.954 205.676 530.865 205.734 530.767 205.773C530.67 205.812 530.565 205.831 530.46 205.828Z" fill="#FEB247"/>
<path d="M530.46 218.574H439.996C439.777 218.574 439.568 218.487 439.413 218.333C439.259 218.178 439.172 217.969 439.172 217.75C439.172 217.532 439.259 217.323 439.413 217.168C439.568 217.014 439.777 216.927 439.996 216.927H530.46C530.679 216.927 530.888 217.014 531.043 217.168C531.197 217.323 531.284 217.532 531.284 217.75C531.284 217.969 531.197 218.178 531.043 218.333C530.888 218.487 530.679 218.574 530.46 218.574Z" fill="#EA6C1E"/>
<path d="M530.46 231.319H439.995C439.781 231.319 439.576 231.234 439.425 231.083C439.273 230.931 439.188 230.726 439.188 230.512C439.188 230.407 439.209 230.303 439.25 230.206C439.291 230.109 439.35 230.021 439.426 229.947C439.501 229.874 439.59 229.816 439.688 229.777C439.786 229.738 439.89 229.72 439.995 229.722H530.46C530.565 229.72 530.67 229.738 530.767 229.777C530.865 229.816 530.954 229.874 531.03 229.947C531.105 230.021 531.165 230.109 531.205 230.206C531.246 230.303 531.267 230.407 531.267 230.512C531.267 230.726 531.182 230.931 531.031 231.083C530.879 231.234 530.674 231.319 530.46 231.319Z" fill="#FEB247"/>
<path d="M530.46 244.064H439.996C439.777 244.064 439.568 243.977 439.413 243.823C439.259 243.669 439.172 243.459 439.172 243.241C439.172 243.022 439.259 242.813 439.413 242.659C439.568 242.504 439.777 242.417 439.996 242.417H530.46C530.679 242.417 530.888 242.504 531.043 242.659C531.197 242.813 531.284 243.022 531.284 243.241C531.284 243.459 531.197 243.669 531.043 243.823C530.888 243.977 530.679 244.064 530.46 244.064Z" fill="#EA6C1E"/>
<path d="M530.46 323.005H439.996C439.777 323.005 439.568 322.919 439.413 322.764C439.259 322.61 439.172 322.4 439.172 322.182C439.172 321.964 439.259 321.754 439.413 321.6C439.568 321.445 439.777 321.359 439.996 321.359H530.46C530.679 321.359 530.888 321.445 531.043 321.6C531.197 321.754 531.284 321.964 531.284 322.182C531.284 322.4 531.197 322.61 531.043 322.764C530.888 322.919 530.679 323.005 530.46 323.005Z" fill="#EA6C1E"/>
<path d="M530.46 335.767H439.995C439.89 335.769 439.786 335.75 439.688 335.712C439.59 335.673 439.501 335.615 439.426 335.541C439.35 335.468 439.291 335.38 439.25 335.283C439.209 335.186 439.188 335.082 439.188 334.977C439.188 334.763 439.273 334.557 439.425 334.406C439.576 334.255 439.781 334.17 439.995 334.17H530.46C530.674 334.17 530.879 334.255 531.031 334.406C531.182 334.557 531.267 334.763 531.267 334.977C531.267 335.082 531.246 335.186 531.205 335.283C531.165 335.38 531.105 335.468 531.03 335.541C530.954 335.615 530.865 335.673 530.767 335.712C530.67 335.75 530.565 335.769 530.46 335.767Z" fill="#FEB247"/>
<path d="M80.925 111.337H408.217C414.811 111.337 420.156 116.68 420.156 123.269V347.727C420.156 354.316 414.811 359.659 408.217 359.659H80.925C74.3312 359.659 68.9863 354.316 68.9863 347.727V123.269C68.9863 116.68 74.3312 111.337 80.925 111.337Z" fill="#EFEFEF" stroke="#8E8E8E"/>
<path d="M407.625 143.079H81.502V347.051H407.625V143.079Z" fill="#231F20"/>
<path d="M407.625 347.875H81.502C81.2835 347.875 81.074 347.788 80.9195 347.634C80.765 347.479 80.6782 347.27 80.6782 347.052V143.079C80.6782 142.861 80.765 142.651 80.9195 142.497C81.074 142.342 81.2835 142.256 81.502 142.256H407.707C407.926 142.256 408.135 142.342 408.29 142.497C408.444 142.651 408.531 142.861 408.531 143.079V347.052C408.531 347.167 408.508 347.281 408.461 347.387C408.415 347.493 408.347 347.587 408.261 347.665C408.176 347.743 408.075 347.801 407.965 347.838C407.856 347.874 407.74 347.886 407.625 347.875ZM82.3751 346.228H406.933V143.902H82.3751V346.228Z" fill="#231F20"/>
<path d="M407.625 123.945H81.502V143.079H407.625V123.945Z" fill="#EA6C1E"/>
<path d="M407.625 143.902H81.502C81.2835 143.902 81.074 143.815 80.9195 143.661C80.765 143.507 80.6782 143.297 80.6782 143.079V123.945C80.6782 123.726 80.765 123.517 80.9195 123.362C81.074 123.208 81.2835 123.121 81.502 123.121H407.707C407.926 123.121 408.135 123.208 408.29 123.362C408.444 123.517 408.531 123.726 408.531 123.945V143.079C408.531 143.194 408.508 143.308 408.461 143.414C408.415 143.52 408.347 143.615 408.261 143.692C408.176 143.77 408.075 143.829 407.965 143.865C407.856 143.901 407.74 143.914 407.625 143.902ZM82.3751 142.255H406.933V124.768H82.3751V142.255Z" fill="#FEB247"/>
<path d="M146.891 163.382H118.883C118.778 163.384 118.674 163.366 118.576 163.327C118.478 163.288 118.389 163.23 118.314 163.157C118.238 163.083 118.179 162.995 118.138 162.898C118.097 162.801 118.076 162.697 118.076 162.592C118.076 162.378 118.161 162.173 118.313 162.021C118.464 161.87 118.669 161.785 118.883 161.785H146.891C146.996 161.785 147.1 161.806 147.197 161.847C147.294 161.887 147.382 161.947 147.456 162.022C147.53 162.097 147.588 162.186 147.626 162.284C147.665 162.382 147.684 162.487 147.682 162.592C147.684 162.696 147.665 162.8 147.626 162.897C147.587 162.994 147.529 163.082 147.455 163.156C147.381 163.23 147.293 163.288 147.196 163.327C147.099 163.366 146.995 163.384 146.891 163.382Z" fill="white"/>
<path d="M210.073 163.382H154.058C153.953 163.384 153.849 163.366 153.752 163.327C153.655 163.288 153.567 163.23 153.493 163.156C153.42 163.082 153.361 162.994 153.322 162.897C153.283 162.8 153.265 162.696 153.267 162.592C153.265 162.487 153.283 162.382 153.322 162.284C153.361 162.186 153.419 162.097 153.493 162.022C153.566 161.947 153.654 161.887 153.751 161.847C153.848 161.806 153.952 161.785 154.058 161.785H210.073C210.287 161.785 210.492 161.87 210.643 162.021C210.795 162.173 210.88 162.378 210.88 162.592C210.88 162.697 210.859 162.801 210.818 162.898C210.777 162.995 210.718 163.083 210.642 163.157C210.567 163.23 210.478 163.288 210.38 163.327C210.282 163.366 210.178 163.384 210.073 163.382Z" fill="#FEB247"/>
<path d="M229.431 175.107H173.416C173.197 175.107 172.988 175.02 172.833 174.865C172.679 174.711 172.592 174.502 172.592 174.283C172.592 174.065 172.679 173.855 172.833 173.701C172.988 173.547 173.197 173.46 173.416 173.46H229.431C229.649 173.46 229.859 173.547 230.013 173.701C230.167 173.855 230.254 174.065 230.254 174.283C230.254 174.502 230.167 174.711 230.013 174.865C229.859 175.02 229.649 175.107 229.431 175.107Z" fill="#FEB247"/>
<path d="M153.465 175.107H125.457C125.239 175.107 125.029 175.02 124.875 174.865C124.72 174.711 124.633 174.502 124.633 174.283C124.633 174.065 124.72 173.855 124.875 173.701C125.029 173.547 125.239 173.46 125.457 173.46H153.465C153.683 173.46 153.893 173.547 154.047 173.701C154.201 173.855 154.288 174.065 154.288 174.283C154.288 174.502 154.201 174.711 154.047 174.865C153.893 175.02 153.683 175.107 153.465 175.107Z" fill="white"/>
<path d="M160.055 186.814H132.047C131.833 186.814 131.628 186.729 131.476 186.578C131.325 186.427 131.24 186.221 131.24 186.007C131.24 185.902 131.261 185.798 131.302 185.701C131.342 185.604 131.402 185.516 131.477 185.443C131.553 185.369 131.642 185.311 131.74 185.272C131.837 185.234 131.942 185.215 132.047 185.217H160.055C160.159 185.215 160.263 185.234 160.36 185.273C160.457 185.311 160.545 185.37 160.619 185.443C160.693 185.517 160.751 185.605 160.79 185.702C160.829 185.799 160.848 185.903 160.846 186.007C160.848 186.113 160.829 186.217 160.79 186.315C160.751 186.413 160.693 186.502 160.62 186.577C160.546 186.652 160.458 186.712 160.361 186.753C160.264 186.793 160.16 186.814 160.055 186.814Z" fill="white"/>
<path d="M239.431 186.814H169.396C169.291 186.814 169.187 186.793 169.089 186.753C168.992 186.712 168.905 186.652 168.831 186.577C168.757 186.502 168.699 186.413 168.661 186.315C168.622 186.217 168.603 186.113 168.605 186.007C168.603 185.903 168.622 185.799 168.661 185.702C168.7 185.605 168.758 185.517 168.832 185.443C168.906 185.37 168.994 185.311 169.091 185.273C169.188 185.234 169.291 185.215 169.396 185.217H239.431C239.536 185.215 239.641 185.234 239.739 185.272C239.837 185.311 239.926 185.369 240.001 185.443C240.076 185.516 240.136 185.604 240.177 185.701C240.217 185.798 240.238 185.902 240.238 186.007C240.238 186.221 240.153 186.427 240.002 186.578C239.851 186.729 239.645 186.814 239.431 186.814Z" fill="#FEB247"/>
<path d="M166.628 198.522H138.621C138.41 198.518 138.209 198.431 138.061 198.28C137.913 198.129 137.83 197.926 137.83 197.715C137.83 197.506 137.913 197.305 138.062 197.156C138.21 197.008 138.411 196.925 138.621 196.925H166.628C166.734 196.923 166.838 196.941 166.936 196.98C167.034 197.019 167.123 197.077 167.198 197.15C167.273 197.224 167.333 197.312 167.374 197.409C167.415 197.506 167.436 197.61 167.436 197.715C167.436 197.929 167.351 198.134 167.199 198.286C167.048 198.437 166.842 198.522 166.628 198.522Z" fill="white"/>
<path d="M253.912 198.522H170.648C170.434 198.522 170.228 198.437 170.077 198.286C169.926 198.134 169.841 197.929 169.841 197.715C169.841 197.61 169.862 197.506 169.902 197.409C169.943 197.312 170.003 197.224 170.078 197.15C170.153 197.077 170.242 197.019 170.34 196.98C170.438 196.941 170.543 196.923 170.648 196.925H253.912C254.018 196.923 254.122 196.941 254.22 196.98C254.318 197.019 254.407 197.077 254.482 197.15C254.558 197.224 254.617 197.312 254.658 197.409C254.699 197.506 254.72 197.61 254.72 197.715C254.72 197.929 254.635 198.134 254.483 198.286C254.332 198.437 254.127 198.522 253.912 198.522Z" fill="#FEB247"/>
<path d="M159.198 210.23H131.19C130.972 210.23 130.762 210.143 130.608 209.989C130.453 209.834 130.366 209.625 130.366 209.407C130.366 209.188 130.453 208.979 130.608 208.824C130.762 208.67 130.972 208.583 131.19 208.583H159.198C159.416 208.583 159.626 208.67 159.78 208.824C159.935 208.979 160.021 209.188 160.021 209.407C160.021 209.625 159.935 209.834 159.78 209.989C159.626 210.143 159.416 210.23 159.198 210.23Z" fill="white"/>
<path d="M210.073 210.23H164.915C164.696 210.23 164.487 210.143 164.332 209.989C164.178 209.834 164.091 209.625 164.091 209.407C164.091 209.188 164.178 208.979 164.332 208.824C164.487 208.67 164.696 208.583 164.915 208.583H210.073C210.291 208.583 210.501 208.67 210.655 208.824C210.81 208.979 210.897 209.188 210.897 209.407C210.897 209.625 210.81 209.834 210.655 209.989C210.501 210.143 210.291 210.23 210.073 210.23Z" fill="#FEB247"/>
<path d="M272.48 210.23H227.355C227.137 210.23 226.927 210.143 226.773 209.989C226.618 209.834 226.531 209.625 226.531 209.407C226.531 209.188 226.618 208.979 226.773 208.824C226.927 208.67 227.137 208.583 227.355 208.583H272.513C272.731 208.583 272.941 208.67 273.095 208.824C273.25 208.979 273.337 209.188 273.337 209.407C273.337 209.625 273.25 209.834 273.095 209.989C272.941 210.143 272.731 210.23 272.513 210.23H272.48Z" fill="#FEB247"/>
<path d="M159.198 221.938H131.19C130.972 221.938 130.762 221.851 130.608 221.697C130.453 221.542 130.366 221.333 130.366 221.114C130.366 220.896 130.453 220.687 130.608 220.532C130.762 220.378 130.972 220.291 131.19 220.291H159.198C159.416 220.291 159.626 220.378 159.78 220.532C159.935 220.687 160.021 220.896 160.021 221.114C160.021 221.333 159.935 221.542 159.78 221.697C159.626 221.851 159.416 221.938 159.198 221.938Z" fill="white"/>
<path d="M210.073 221.938H170.648C170.43 221.938 170.22 221.851 170.066 221.697C169.911 221.542 169.824 221.333 169.824 221.114C169.824 220.896 169.911 220.687 170.066 220.532C170.22 220.378 170.43 220.291 170.648 220.291H210.073C210.291 220.291 210.501 220.378 210.655 220.532C210.81 220.687 210.897 220.896 210.897 221.114C210.897 221.333 210.81 221.542 210.655 221.697C210.501 221.851 210.291 221.938 210.073 221.938Z" fill="#FEB247"/>
<path d="M232.841 221.938H216.729C216.51 221.938 216.301 221.851 216.146 221.697C215.992 221.542 215.905 221.333 215.905 221.114C215.905 220.896 215.992 220.687 216.146 220.532C216.301 220.378 216.51 220.291 216.729 220.291H232.841C233.06 220.291 233.269 220.378 233.424 220.532C233.578 220.687 233.665 220.896 233.665 221.114C233.665 221.333 233.578 221.542 233.424 221.697C233.269 221.851 233.06 221.938 232.841 221.938Z" fill="#FEB247"/>
<path d="M159.198 233.645H131.191C131.085 233.648 130.981 233.629 130.883 233.59C130.785 233.551 130.696 233.493 130.621 233.42C130.546 233.346 130.486 233.258 130.445 233.161C130.404 233.064 130.383 232.96 130.383 232.855C130.383 232.641 130.468 232.436 130.62 232.285C130.771 232.133 130.976 232.048 131.191 232.048H159.198C159.303 232.048 159.408 232.069 159.505 232.11C159.602 232.151 159.69 232.21 159.763 232.286C159.837 232.361 159.895 232.45 159.934 232.548C159.972 232.645 159.991 232.75 159.989 232.855C159.991 232.96 159.972 233.063 159.933 233.16C159.894 233.257 159.836 233.345 159.762 233.419C159.688 233.493 159.6 233.551 159.503 233.59C159.406 233.629 159.303 233.648 159.198 233.645Z" fill="white"/>
<path d="M224.225 233.645H166.562C166.353 233.645 166.151 233.562 166.003 233.414C165.855 233.266 165.771 233.065 165.771 232.855C165.771 232.644 165.854 232.441 166.002 232.29C166.15 232.139 166.351 232.053 166.562 232.048H224.225C224.439 232.048 224.644 232.133 224.796 232.285C224.947 232.436 225.032 232.641 225.032 232.855C225.032 232.96 225.011 233.064 224.97 233.161C224.93 233.258 224.87 233.346 224.795 233.42C224.719 233.493 224.63 233.551 224.532 233.59C224.435 233.629 224.33 233.648 224.225 233.645Z" fill="#FEB247"/>
<path d="M259.053 233.645H231.045C230.94 233.648 230.835 233.629 230.738 233.59C230.64 233.551 230.551 233.493 230.475 233.42C230.4 233.346 230.341 233.258 230.3 233.161C230.259 233.064 230.238 232.96 230.238 232.855C230.238 232.641 230.323 232.436 230.474 232.285C230.626 232.133 230.831 232.048 231.045 232.048H259.053C259.264 232.053 259.465 232.139 259.613 232.29C259.761 232.441 259.844 232.644 259.844 232.855C259.844 233.065 259.76 233.266 259.612 233.414C259.464 233.562 259.263 233.645 259.053 233.645Z" fill="#FEB247"/>
<path d="M139.444 245.353H124.617C124.398 245.353 124.189 245.267 124.034 245.112C123.88 244.958 123.793 244.748 123.793 244.53C123.793 244.312 123.88 244.102 124.034 243.948C124.189 243.793 124.398 243.707 124.617 243.707H139.444C139.663 243.707 139.872 243.793 140.027 243.948C140.181 244.102 140.268 244.312 140.268 244.53C140.268 244.748 140.181 244.958 140.027 245.112C139.872 245.267 139.663 245.353 139.444 245.353Z" fill="white"/>
<path d="M216.728 245.353H151.751C151.533 245.353 151.323 245.267 151.169 245.112C151.014 244.958 150.927 244.748 150.927 244.53C150.927 244.312 151.014 244.102 151.169 243.948C151.323 243.793 151.533 243.707 151.751 243.707H216.728C216.947 243.707 217.156 243.793 217.311 243.948C217.465 244.102 217.552 244.312 217.552 244.53C217.552 244.748 217.465 244.958 217.311 245.112C217.156 245.267 216.947 245.353 216.728 245.353Z" fill="#FEB247"/>
<path d="M152.608 257.078H124.6C124.382 257.078 124.172 256.991 124.018 256.836C123.863 256.682 123.777 256.473 123.777 256.254C123.777 256.036 123.863 255.826 124.018 255.672C124.172 255.518 124.382 255.431 124.6 255.431H152.608C152.826 255.431 153.036 255.518 153.19 255.672C153.345 255.826 153.432 256.036 153.432 256.254C153.432 256.473 153.345 256.682 153.19 256.836C153.036 256.991 152.826 257.078 152.608 257.078Z" fill="white"/>
<path d="M184.668 268.785H128.653C128.548 268.785 128.444 268.764 128.347 268.724C128.25 268.683 128.162 268.623 128.088 268.548C128.015 268.473 127.957 268.384 127.918 268.286C127.879 268.188 127.86 268.084 127.862 267.979C127.86 267.874 127.879 267.77 127.918 267.673C127.957 267.577 128.015 267.489 128.089 267.415C128.163 267.341 128.251 267.283 128.348 267.244C128.445 267.205 128.549 267.186 128.653 267.188H184.668C184.774 267.186 184.878 267.205 184.976 267.244C185.074 267.282 185.163 267.34 185.238 267.414C185.313 267.487 185.373 267.575 185.414 267.672C185.455 267.769 185.476 267.873 185.476 267.979C185.476 268.193 185.391 268.398 185.239 268.549C185.088 268.7 184.882 268.785 184.668 268.785Z" fill="white"/>
<path d="M232.841 268.785H193.944C193.838 268.785 193.734 268.764 193.637 268.724C193.54 268.683 193.452 268.623 193.378 268.548C193.305 268.473 193.247 268.384 193.208 268.286C193.169 268.188 193.151 268.084 193.153 267.979C193.151 267.874 193.169 267.77 193.208 267.673C193.247 267.577 193.305 267.489 193.379 267.415C193.453 267.341 193.541 267.283 193.638 267.244C193.735 267.205 193.839 267.186 193.944 267.188H232.841C232.946 267.186 233.051 267.205 233.149 267.244C233.247 267.282 233.336 267.34 233.411 267.414C233.486 267.487 233.546 267.575 233.587 267.672C233.627 267.769 233.648 267.873 233.648 267.979C233.648 268.193 233.563 268.398 233.412 268.549C233.26 268.7 233.055 268.785 232.841 268.785Z" fill="#FEB247"/>
<path d="M286.566 268.785H238.41C238.305 268.785 238.2 268.764 238.103 268.724C238.006 268.683 237.918 268.623 237.845 268.548C237.771 268.473 237.713 268.384 237.674 268.286C237.636 268.188 237.617 268.084 237.619 267.979C237.617 267.874 237.636 267.77 237.675 267.673C237.714 267.577 237.772 267.489 237.846 267.415C237.92 267.341 238.008 267.283 238.105 267.244C238.202 267.205 238.305 267.186 238.41 267.188H286.566C286.776 267.188 286.977 267.271 287.125 267.42C287.274 267.568 287.357 267.769 287.357 267.979C287.357 268.19 287.274 268.393 287.126 268.543C286.979 268.694 286.778 268.781 286.566 268.785Z" fill="#FEB247"/>
<path d="M212.709 280.493H131.158C130.944 280.493 130.738 280.408 130.587 280.257C130.435 280.106 130.35 279.9 130.35 279.686C130.35 279.581 130.371 279.477 130.412 279.38C130.453 279.283 130.513 279.195 130.588 279.122C130.663 279.048 130.752 278.99 130.85 278.951C130.948 278.913 131.052 278.894 131.158 278.896H212.709C212.814 278.894 212.919 278.913 213.017 278.951C213.114 278.99 213.204 279.048 213.279 279.122C213.354 279.195 213.414 279.283 213.454 279.38C213.495 279.477 213.516 279.581 213.516 279.686C213.516 279.9 213.431 280.106 213.28 280.257C213.128 280.408 212.923 280.493 212.709 280.493Z" fill="white"/>
<path d="M254.967 280.493H218.277C218.063 280.493 217.858 280.408 217.706 280.257C217.555 280.106 217.47 279.9 217.47 279.686C217.47 279.581 217.491 279.477 217.532 279.38C217.572 279.283 217.632 279.195 217.707 279.122C217.783 279.048 217.872 278.99 217.97 278.951C218.067 278.913 218.172 278.894 218.277 278.896H254.967C255.072 278.894 255.175 278.913 255.272 278.952C255.369 278.99 255.457 279.049 255.531 279.122C255.605 279.196 255.663 279.284 255.702 279.381C255.741 279.478 255.76 279.582 255.758 279.686C255.76 279.792 255.741 279.896 255.702 279.994C255.664 280.092 255.606 280.181 255.532 280.256C255.458 280.331 255.371 280.391 255.274 280.432C255.177 280.472 255.072 280.493 254.967 280.493Z" fill="#FEB247"/>
<path d="M370.275 280.493H261.178C260.967 280.489 260.766 280.402 260.618 280.251C260.47 280.1 260.387 279.898 260.387 279.686C260.387 279.477 260.471 279.276 260.619 279.127C260.767 278.979 260.968 278.896 261.178 278.896H370.275C370.381 278.894 370.485 278.913 370.583 278.951C370.681 278.99 370.77 279.048 370.845 279.122C370.921 279.195 370.98 279.283 371.021 279.38C371.062 279.477 371.083 279.581 371.083 279.686C371.083 279.9 370.998 280.106 370.846 280.257C370.695 280.408 370.49 280.493 370.275 280.493Z" fill="#FEB247"/>
<path d="M169.396 292.201H130.828C130.61 292.201 130.4 292.114 130.246 291.96C130.091 291.805 130.004 291.596 130.004 291.378C130.004 291.159 130.091 290.95 130.246 290.795C130.4 290.641 130.61 290.554 130.828 290.554H169.396C169.615 290.554 169.824 290.641 169.979 290.795C170.133 290.95 170.22 291.159 170.22 291.378C170.22 291.596 170.133 291.805 169.979 291.96C169.824 292.114 169.615 292.201 169.396 292.201Z" fill="white"/>
<path d="M205.476 292.201H177.073C176.855 292.201 176.645 292.114 176.491 291.96C176.336 291.805 176.25 291.596 176.25 291.378C176.25 291.159 176.336 290.95 176.491 290.795C176.645 290.641 176.855 290.554 177.073 290.554H205.476C205.695 290.554 205.904 290.641 206.059 290.795C206.213 290.95 206.3 291.159 206.3 291.378C206.3 291.596 206.213 291.805 206.059 291.96C205.904 292.114 205.695 292.201 205.476 292.201Z" fill="#FEB247"/>
<path d="M241.523 292.201H213.12C212.902 292.201 212.692 292.114 212.538 291.96C212.383 291.805 212.297 291.596 212.297 291.378C212.297 291.159 212.383 290.95 212.538 290.795C212.692 290.641 212.902 290.554 213.12 290.554H241.523C241.742 290.554 241.951 290.641 242.106 290.795C242.26 290.95 242.347 291.159 242.347 291.378C242.347 291.596 242.26 291.805 242.106 291.96C241.951 292.114 241.742 292.201 241.523 292.201Z" fill="#FEB247"/>
<path d="M199.018 303.909H130.828C130.723 303.911 130.618 303.892 130.52 303.853C130.422 303.815 130.333 303.757 130.258 303.683C130.183 303.61 130.123 303.522 130.082 303.425C130.041 303.328 130.02 303.224 130.021 303.118C130.021 302.904 130.106 302.699 130.257 302.548C130.408 302.397 130.614 302.312 130.828 302.312H199.018C199.232 302.312 199.437 302.397 199.589 302.548C199.74 302.699 199.825 302.904 199.825 303.118C199.825 303.224 199.804 303.328 199.763 303.425C199.723 303.522 199.663 303.61 199.588 303.683C199.513 303.757 199.423 303.815 199.326 303.853C199.228 303.892 199.123 303.911 199.018 303.909Z" fill="white"/>
<path d="M241.524 303.909H207.42C207.316 303.911 207.212 303.892 207.115 303.853C207.018 303.814 206.93 303.756 206.856 303.682C206.782 303.609 206.724 303.52 206.685 303.424C206.646 303.327 206.627 303.223 206.63 303.118C206.627 303.013 206.646 302.909 206.685 302.811C206.724 302.713 206.782 302.624 206.855 302.549C206.929 302.474 207.017 302.414 207.114 302.373C207.211 302.332 207.315 302.312 207.42 302.312H241.524C241.629 302.312 241.733 302.332 241.83 302.373C241.927 302.414 242.015 302.474 242.089 302.549C242.162 302.624 242.22 302.713 242.259 302.811C242.298 302.909 242.317 303.013 242.314 303.118C242.317 303.223 242.298 303.327 242.259 303.424C242.22 303.52 242.162 303.609 242.088 303.682C242.014 303.756 241.926 303.814 241.829 303.853C241.732 303.892 241.628 303.911 241.524 303.909Z" fill="#FEB247"/>
<path d="M301.822 303.909H249.893C249.788 303.911 249.684 303.892 249.587 303.853C249.49 303.814 249.402 303.756 249.328 303.682C249.254 303.609 249.196 303.52 249.157 303.424C249.118 303.327 249.099 303.223 249.102 303.118C249.1 303.013 249.118 302.909 249.157 302.811C249.196 302.713 249.254 302.624 249.327 302.549C249.401 302.474 249.489 302.414 249.586 302.373C249.683 302.332 249.787 302.312 249.893 302.312H301.822C301.928 302.312 302.033 302.332 302.131 302.373C302.229 302.414 302.318 302.473 302.393 302.548C302.468 302.623 302.527 302.712 302.568 302.81C302.608 302.908 302.629 303.012 302.629 303.118C302.629 303.224 302.608 303.328 302.567 303.425C302.527 303.522 302.467 303.61 302.392 303.683C302.316 303.757 302.227 303.815 302.129 303.853C302.032 303.892 301.927 303.911 301.822 303.909Z" fill="#FEB247"/>
<path d="M359.155 303.909H307.291C307.186 303.911 307.082 303.892 306.984 303.853C306.886 303.815 306.797 303.757 306.722 303.683C306.646 303.61 306.587 303.522 306.546 303.425C306.505 303.328 306.484 303.224 306.484 303.118C306.484 302.904 306.569 302.699 306.721 302.548C306.872 302.397 307.077 302.312 307.291 302.312H359.155C359.369 302.312 359.574 302.397 359.726 302.548C359.877 302.699 359.962 302.904 359.962 303.118C359.962 303.224 359.941 303.328 359.9 303.425C359.86 303.522 359.8 303.61 359.725 303.683C359.649 303.757 359.56 303.815 359.462 303.853C359.365 303.892 359.26 303.911 359.155 303.909Z" fill="#FEB247"/>
<path d="M188.754 315.617H148.078C147.972 315.619 147.868 315.6 147.77 315.561C147.672 315.522 147.583 315.465 147.508 315.391C147.432 315.317 147.373 315.229 147.332 315.132C147.291 315.035 147.27 314.931 147.27 314.826C147.27 314.72 147.291 314.615 147.332 314.517C147.372 314.419 147.432 314.331 147.507 314.256C147.582 314.181 147.671 314.121 147.769 314.081C147.867 314.04 147.972 314.019 148.078 314.019H188.754C188.86 314.019 188.964 314.04 189.061 314.081C189.158 314.122 189.246 314.181 189.319 314.257C189.393 314.332 189.451 314.421 189.49 314.519C189.528 314.616 189.547 314.721 189.545 314.826C189.547 314.931 189.528 315.034 189.489 315.131C189.451 315.228 189.392 315.316 189.318 315.39C189.245 315.464 189.157 315.522 189.06 315.561C188.963 315.6 188.859 315.619 188.754 315.617Z" fill="white"/>
<path d="M237.059 315.617H196.382C196.277 315.619 196.173 315.6 196.077 315.561C195.98 315.522 195.891 315.464 195.818 315.39C195.744 315.316 195.686 315.228 195.647 315.131C195.608 315.034 195.589 314.931 195.591 314.826C195.589 314.721 195.608 314.616 195.646 314.519C195.685 314.421 195.743 314.332 195.817 314.257C195.89 314.181 195.978 314.122 196.075 314.081C196.172 314.04 196.277 314.019 196.382 314.019H237.059C237.165 314.019 237.27 314.04 237.367 314.081C237.465 314.121 237.554 314.181 237.629 314.256C237.704 314.331 237.764 314.419 237.804 314.517C237.845 314.615 237.866 314.72 237.866 314.826C237.866 314.931 237.845 315.035 237.804 315.132C237.763 315.229 237.704 315.317 237.628 315.391C237.553 315.465 237.464 315.522 237.366 315.561C237.268 315.6 237.164 315.619 237.059 315.617Z" fill="#FEB247"/>
<path d="M285.71 315.617H245.033C244.928 315.619 244.823 315.6 244.725 315.561C244.627 315.522 244.538 315.465 244.463 315.391C244.388 315.317 244.328 315.229 244.287 315.132C244.247 315.035 244.226 314.931 244.226 314.826C244.226 314.72 244.246 314.615 244.287 314.517C244.328 314.419 244.387 314.331 244.462 314.256C244.537 314.181 244.626 314.121 244.724 314.081C244.822 314.04 244.927 314.019 245.033 314.019H285.71C285.815 314.019 285.919 314.04 286.016 314.081C286.113 314.122 286.201 314.181 286.275 314.257C286.348 314.332 286.406 314.421 286.445 314.519C286.484 314.616 286.503 314.721 286.5 314.826C286.503 314.931 286.484 315.034 286.445 315.131C286.406 315.228 286.348 315.316 286.274 315.39C286.2 315.464 286.112 315.522 286.015 315.561C285.918 315.6 285.814 315.619 285.71 315.617Z" fill="#FEB247"/>
<path d="M336.09 316.934H295.397C295.178 316.934 294.968 316.847 294.814 316.693C294.66 316.538 294.573 316.329 294.573 316.111C294.573 315.892 294.66 315.683 294.814 315.528C294.968 315.374 295.178 315.287 295.397 315.287H336.09C336.308 315.287 336.518 315.374 336.672 315.528C336.827 315.683 336.914 315.892 336.914 316.111C336.914 316.329 336.827 316.538 336.672 316.693C336.518 316.847 336.308 316.934 336.09 316.934Z" fill="#FEB247"/>
<path d="M182.164 327.324H154.156C154.052 327.327 153.948 327.308 153.851 327.269C153.754 327.23 153.666 327.172 153.592 327.098C153.518 327.024 153.46 326.936 153.421 326.839C153.382 326.742 153.363 326.638 153.366 326.534C153.363 326.429 153.382 326.324 153.421 326.226C153.46 326.129 153.518 326.039 153.591 325.964C153.665 325.889 153.753 325.83 153.85 325.789C153.947 325.748 154.051 325.727 154.156 325.727H182.164C182.378 325.727 182.583 325.812 182.735 325.963C182.886 326.115 182.971 326.32 182.971 326.534C182.971 326.639 182.95 326.743 182.909 326.84C182.869 326.937 182.809 327.025 182.734 327.099C182.659 327.172 182.569 327.23 182.472 327.269C182.374 327.308 182.269 327.326 182.164 327.324Z" fill="white"/>
<path d="M216.795 327.324H188.787C188.682 327.326 188.577 327.308 188.48 327.269C188.382 327.23 188.293 327.172 188.217 327.099C188.142 327.025 188.082 326.937 188.042 326.84C188.001 326.743 187.98 326.639 187.98 326.534C187.98 326.32 188.065 326.115 188.216 325.963C188.368 325.812 188.573 325.727 188.787 325.727H216.795C216.9 325.727 217.004 325.748 217.101 325.789C217.198 325.83 217.286 325.889 217.36 325.964C217.434 326.039 217.491 326.129 217.53 326.226C217.569 326.324 217.588 326.429 217.586 326.534C217.588 326.638 217.569 326.742 217.53 326.839C217.491 326.936 217.433 327.024 217.359 327.098C217.285 327.172 217.197 327.23 217.1 327.269C217.003 327.308 216.899 327.327 216.795 327.324Z" fill="#FEB247"/>
<path d="M281.542 328.51L223.648 327.324C223.543 327.324 223.439 327.303 223.342 327.263C223.245 327.222 223.157 327.162 223.083 327.087C223.01 327.012 222.952 326.923 222.913 326.825C222.874 326.727 222.855 326.623 222.858 326.518C222.855 326.41 222.875 326.304 222.916 326.204C222.957 326.105 223.018 326.016 223.095 325.941C223.173 325.867 223.265 325.809 223.366 325.773C223.467 325.736 223.574 325.72 223.681 325.727L281.575 326.913C281.793 326.913 282.002 327 282.157 327.154C282.311 327.308 282.398 327.518 282.398 327.736C282.398 327.954 282.311 328.164 282.157 328.318C282.002 328.473 281.793 328.559 281.575 328.559L281.542 328.51Z" fill="#FEB247"/>
<path d="M303.14 198.522H265.248C265.142 198.522 265.038 198.501 264.941 198.46C264.844 198.42 264.756 198.36 264.682 198.285C264.609 198.21 264.551 198.121 264.512 198.023C264.473 197.925 264.455 197.82 264.457 197.715C264.454 197.611 264.473 197.507 264.512 197.41C264.551 197.313 264.609 197.225 264.683 197.151C264.757 197.078 264.845 197.019 264.942 196.98C265.039 196.942 265.143 196.923 265.248 196.925H303.14C303.245 196.923 303.35 196.942 303.448 196.98C303.546 197.019 303.635 197.077 303.71 197.15C303.785 197.224 303.845 197.312 303.886 197.409C303.926 197.506 303.947 197.61 303.947 197.715C303.947 197.929 303.862 198.135 303.711 198.286C303.559 198.437 303.354 198.522 303.14 198.522Z" fill="#FEB247"/>
<path d="M331.147 198.637C323.734 198.637 318.231 198.637 317.967 198.473C317.867 198.445 317.773 198.397 317.69 198.333C317.608 198.268 317.54 198.188 317.488 198.097C317.385 197.913 317.359 197.696 317.415 197.493C317.472 197.29 317.607 197.118 317.791 197.014C317.975 196.911 318.192 196.885 318.396 196.941C319.845 197.122 344.854 197.024 361.395 196.941C361.501 196.939 361.605 196.958 361.703 196.997C361.801 197.035 361.89 197.093 361.965 197.167C362.04 197.241 362.1 197.328 362.141 197.425C362.182 197.522 362.203 197.627 362.203 197.732C362.203 197.946 362.118 198.151 361.966 198.302C361.815 198.454 361.609 198.539 361.395 198.539C352.565 198.572 340.373 198.637 331.147 198.637Z" fill="#FEB247"/>
<path d="M297.094 175.107H242.067C241.849 175.107 241.639 175.02 241.485 174.865C241.33 174.711 241.244 174.502 241.244 174.283C241.244 174.065 241.33 173.855 241.485 173.701C241.639 173.547 241.849 173.46 242.067 173.46H297.094C297.312 173.46 297.522 173.547 297.676 173.701C297.831 173.855 297.918 174.065 297.918 174.283C297.918 174.502 297.831 174.711 297.676 174.865C297.522 175.02 297.312 175.107 297.094 175.107Z" fill="#FEB247"/>
<path d="M362.911 175.107H308.083C307.864 175.107 307.655 175.02 307.5 174.865C307.346 174.711 307.259 174.502 307.259 174.283C307.259 174.065 307.346 173.855 307.5 173.701C307.655 173.547 307.864 173.46 308.083 173.46H362.845C363.064 173.46 363.273 173.547 363.428 173.701C363.582 173.855 363.669 174.065 363.669 174.283C363.669 174.502 363.582 174.711 363.428 174.865C363.273 175.02 363.064 175.107 362.845 175.107H362.911Z" fill="#FEB247"/>
<path d="M245.477 163.448C235.312 163.448 227.569 163.448 227.256 163.448C227.047 163.412 226.861 163.295 226.737 163.122C226.614 162.95 226.564 162.735 226.597 162.526C226.63 162.322 226.741 162.138 226.907 162.015C227.074 161.892 227.282 161.839 227.487 161.867C228.887 161.966 269.514 161.867 290.833 161.867C291.047 161.867 291.252 161.952 291.404 162.104C291.555 162.255 291.64 162.46 291.64 162.674C291.64 162.779 291.619 162.884 291.579 162.981C291.538 163.078 291.478 163.165 291.403 163.239C291.328 163.313 291.239 163.371 291.141 163.409C291.043 163.448 290.938 163.467 290.833 163.465C281.887 163.415 260.865 163.448 245.477 163.448Z" fill="#FEB247"/>
<path d="M305.677 163.432C305.53 163.429 305.386 163.384 305.264 163.302C305.141 163.22 305.044 163.105 304.985 162.971C304.905 162.767 304.904 162.54 304.983 162.335C305.063 162.131 305.216 161.964 305.413 161.867C306.056 161.555 318.857 161.522 343.438 161.867C343.647 161.876 343.846 161.964 343.993 162.114C344.14 162.264 344.224 162.464 344.228 162.674C344.228 162.779 344.207 162.884 344.167 162.981C344.126 163.078 344.066 163.165 343.991 163.239C343.916 163.313 343.827 163.371 343.729 163.409C343.631 163.448 343.526 163.467 343.421 163.465C329.104 163.316 307.341 163.185 305.99 163.465C305.885 163.484 305.776 163.472 305.677 163.432Z" fill="white"/>
<path d="M252.595 245.353H224.225C224.006 245.353 223.797 245.267 223.642 245.112C223.488 244.958 223.401 244.748 223.401 244.53C223.401 244.312 223.488 244.102 223.642 243.948C223.797 243.793 224.006 243.707 224.225 243.707H252.595C252.813 243.707 253.023 243.793 253.177 243.948C253.332 244.102 253.419 244.312 253.419 244.53C253.419 244.748 253.332 244.958 253.177 245.112C253.023 245.267 252.813 245.353 252.595 245.353Z" fill="#FEB247"/>
<path d="M187.502 257.078H166.628C166.41 257.078 166.2 256.991 166.046 256.836C165.891 256.682 165.804 256.473 165.804 256.254C165.804 256.036 165.891 255.826 166.046 255.672C166.2 255.518 166.41 255.431 166.628 255.431H187.502C187.72 255.431 187.93 255.518 188.085 255.672C188.239 255.826 188.326 256.036 188.326 256.254C188.326 256.473 188.239 256.682 188.085 256.836C187.93 256.991 187.72 257.078 187.502 257.078Z" fill="#FEB247"/>
<path d="M245.033 257.078H195.427C195.208 257.078 194.999 256.991 194.844 256.836C194.69 256.682 194.603 256.473 194.603 256.254C194.603 256.036 194.69 255.826 194.844 255.672C194.999 255.518 195.208 255.431 195.427 255.431H245.033C245.251 255.431 245.461 255.518 245.615 255.672C245.77 255.826 245.857 256.036 245.857 256.254C245.857 256.473 245.77 256.682 245.615 256.836C245.461 256.991 245.251 257.078 245.033 257.078Z" fill="white"/>
<path d="M351.066 257.078H254.967C254.748 257.078 254.539 256.991 254.384 256.836C254.23 256.682 254.143 256.473 254.143 256.254C254.143 256.036 254.23 255.826 254.384 255.672C254.539 255.518 254.748 255.431 254.967 255.431H351.066C351.284 255.431 351.494 255.518 351.648 255.672C351.803 255.826 351.889 256.036 351.889 256.254C351.889 256.473 351.803 256.682 351.648 256.836C351.494 256.991 351.284 257.078 351.066 257.078Z" fill="#FEB247"/>
<path d="M93.9072 136.311C95.454 136.311 96.7079 135.058 96.7079 133.512C96.7079 131.966 95.454 130.712 93.9072 130.712C92.3604 130.712 91.1064 131.966 91.1064 133.512C91.1064 135.058 92.3604 136.311 93.9072 136.311Z" fill="#231F20"/>
<path d="M103.726 136.311C105.273 136.311 106.527 135.058 106.527 133.512C106.527 131.966 105.273 130.712 103.726 130.712C102.179 130.712 100.926 131.966 100.926 133.512C100.926 135.058 102.179 136.311 103.726 136.311Z" fill="white"/>
<path d="M113.546 136.311C115.093 136.311 116.347 135.058 116.347 133.512C116.347 131.966 115.093 130.712 113.546 130.712C111.999 130.712 110.745 131.966 110.745 133.512C110.745 135.058 111.999 136.311 113.546 136.311Z" fill="white"/>
<path d="M284.863 360.939L296.421 397.266H192.722L204.28 360.939H284.863Z" fill="#EFEFEF" stroke="#8E8E8E"/>
<path d="M183.515 396.754H305.611C308.148 396.754 310.202 398.805 310.202 401.334C310.202 403.862 308.148 405.914 305.611 405.914H183.515C180.978 405.914 178.924 403.862 178.924 401.334C178.924 398.805 180.978 396.754 183.515 396.754Z" fill="#EFEFEF" stroke="#8E8E8E"/>
<path d="M195.311 386.687C196.959 385.798 287.736 369.232 287.736 369.232L284.754 360.159H203.647L195.311 386.687Z" fill="#231F20"/>
<path d="M195.294 387.51C195.106 387.509 194.924 387.438 194.784 387.313C194.664 387.209 194.578 387.072 194.537 386.92C194.496 386.767 194.501 386.606 194.553 386.456L202.889 359.928C202.937 359.765 203.036 359.621 203.173 359.52C203.31 359.419 203.477 359.366 203.647 359.369H284.754C284.922 359.365 285.087 359.415 285.224 359.513C285.36 359.612 285.462 359.751 285.512 359.912L288.494 368.969C288.525 369.078 288.534 369.193 288.52 369.306C288.505 369.419 288.467 369.527 288.408 369.625C288.349 369.722 288.271 369.806 288.178 369.872C288.085 369.938 287.979 369.983 287.868 370.006C262.99 374.551 197.898 386.555 195.607 387.428C195.509 387.474 195.403 387.502 195.294 387.51ZM204.29 360.966L196.547 385.584C207.453 383.114 270.981 371.488 286.731 368.606L284.227 360.966H204.29Z" fill="#231F20"/>
</svg>
