<svg width="99" height="111" viewBox="0 0 99 111" fill="none" xmlns="http://www.w3.org/2000/svg">
<path d="M40.4143 74.7728C40.4143 70.9905 37.3454 67.9243 33.5597 67.9243C29.774 67.9243 26.7051 70.9905 26.7051 74.7728V104.151C26.7051 107.934 29.774 111 33.5597 111C37.3454 111 40.4143 107.934 40.4143 104.151V74.7728Z" fill="#31B057"/>
<path d="M17.9108 32.603C17.8882 32.8623 17.8685 33.1252 17.8685 33.3907V77.9016C17.8685 82.6888 21.6611 86.5448 26.3693 86.5448H71.6744C76.3827 86.5448 80.1752 82.6888 80.1752 77.9016V33.3907C80.1752 33.1252 80.1661 32.8623 80.1434 32.603H17.9111H17.9108Z" fill="#31B057"/>
<path d="M71.3392 74.7728C71.3392 70.9905 68.2703 67.9243 64.4846 67.9243C60.6989 67.9243 57.63 70.9905 57.63 74.7728V104.151C57.63 107.934 60.6989 111 64.4846 111C68.2703 111 71.3392 107.934 71.3392 104.151V74.7728Z" fill="#31B057"/>
<path d="M13.7092 43.4134C13.7092 39.6311 10.6403 36.5649 6.85459 36.5649C3.06888 36.5649 0 39.6311 0 43.4134V72.792C0 76.5743 3.06888 79.6404 6.85459 79.6404C10.6403 79.6404 13.7092 76.5743 13.7092 72.792V43.4134Z" fill="#31B057"/>
<path d="M98.0444 43.4134C98.0444 39.6311 94.9755 36.5649 91.1898 36.5649C87.4041 36.5649 84.3352 39.6311 84.3352 43.4134V72.792C84.3352 76.5743 87.4041 79.6404 91.1898 79.6404C94.9755 79.6404 98.0444 76.5743 98.0444 72.792V43.4134Z" fill="#31B057"/>
<path d="M18.1112 29.6788C18.302 16.0072 30.2454 4.79692 45.5775 3.31909H52.4667C67.7988 4.79692 79.7422 16.0072 79.933 29.6788H18.1112Z" fill="#31B057"/>
<path d="M20.4951 2L27.726 14.5133" stroke="#31B057" stroke-width="3" stroke-linecap="round" stroke-linejoin="round"/>
<path d="M77.5491 2L70.318 14.5133" stroke="#31B057" stroke-width="3" stroke-linecap="round" stroke-linejoin="round"/>
<path d="M39.8138 17.4266C39.8145 17.8815 39.7232 18.332 39.5453 18.7525C39.3674 19.1729 39.1063 19.555 38.777 19.8769C38.4476 20.1988 38.0565 20.4541 37.6259 20.6284C37.1953 20.8026 36.7338 20.8923 36.2677 20.8923C35.8016 20.8923 35.3401 20.8026 34.9095 20.6284C34.4789 20.4541 34.0878 20.1988 33.7584 19.8769C33.4291 19.555 33.168 19.1729 32.9901 18.7525C32.8122 18.332 32.7209 17.8815 32.7216 17.4266C32.7209 16.9717 32.8122 16.5212 32.9901 16.1007C33.168 15.6803 33.4291 15.2982 33.7584 14.9763C34.0878 14.6544 34.4789 14.3991 34.9095 14.2248C35.3401 14.0506 35.8016 13.9609 36.2677 13.9609C36.7338 13.9609 37.1953 14.0506 37.6259 14.2248C38.0565 14.3991 38.4476 14.6544 38.777 14.9763C39.1063 15.2982 39.3674 15.6803 39.5453 16.1007C39.7232 16.5212 39.8145 16.9717 39.8138 17.4266Z" fill="white"/>
<path d="M66.2855 17.4266C66.2862 17.8815 66.1949 18.332 66.017 18.7525C65.8391 19.1729 65.578 19.555 65.2487 19.8769C64.9193 20.1988 64.5281 20.4541 64.0976 20.6284C63.667 20.8026 63.2055 20.8923 62.7394 20.8923C62.2732 20.8923 61.8117 20.8026 61.3812 20.6284C60.9506 20.4541 60.5594 20.1988 60.2301 19.8769C59.9007 19.555 59.6397 19.1729 59.4618 18.7525C59.2839 18.332 59.1925 17.8815 59.1932 17.4266C59.1925 16.9717 59.2839 16.5212 59.4618 16.1007C59.6397 15.6803 59.9007 15.2982 60.2301 14.9763C60.5594 14.6544 60.9506 14.3991 61.3812 14.2248C61.8117 14.0506 62.2732 13.9609 62.7394 13.9609C63.2055 13.9609 63.667 14.0506 64.0976 14.2248C64.5281 14.3991 64.9193 14.6544 65.2487 14.9763C65.578 15.2982 65.8391 15.6803 66.017 16.1007C66.1949 16.5212 66.2862 16.9717 66.2855 17.4266Z" fill="white"/>
</svg>
