<svg width="241" height="196" viewBox="0 0 241 196" fill="none" xmlns="http://www.w3.org/2000/svg">
<g clip-path="url(#clip0)">
<path opacity="0.48" d="M235.342 7.2583H26.7265C23.8011 7.2583 21.4297 9.62099 21.4297 12.5355V141.872C21.4297 144.786 23.8011 147.149 26.7265 147.149H235.342C238.268 147.149 240.639 144.786 240.639 141.872V12.5355C240.639 9.62099 238.268 7.2583 235.342 7.2583Z" fill="#41B783"/>
<path opacity="0.18" d="M236.301 157.361C236.141 161.943 235.088 166.607 232.513 170.404C229.27 175.186 224.003 178.146 218.902 180.929L204.438 188.859C198.099 192.338 191.418 195.9 184.191 196C179.078 196.077 174.131 194.396 169.213 192.987C146.244 186.383 122.051 185.457 98.3068 187.126C86.145 187.981 74.0423 189.484 61.9929 191.295C52.3522 192.721 40.7822 197.468 32.0884 191.849C22.6193 185.717 16.8076 175.787 11.4576 166.147C6.79999 157.78 2.07728 149.207 0.538558 139.767C-1.82871 125.179 3.8409 110.196 12.7122 98.3448C15.3802 94.8053 18.2931 91.4559 21.4297 88.321V141.877C21.4297 143.28 21.9868 144.625 22.9793 145.619C23.9718 146.614 25.319 147.176 26.7265 147.184H235.336C236.079 150.524 236.403 153.942 236.301 157.361Z" fill="#41B783"/>
<path opacity="0.18" d="M158.359 7.26431H102.58C104.679 5.67392 106.96 4.33603 109.374 3.27839C113.783 1.36208 118.588 0.507117 123.382 0.165129C135.443 -0.701631 147.54 1.95172 158.359 7.26431Z" fill="#41B783"/>
<path d="M107.32 129.542C107.864 130.26 108.517 130.889 109.255 131.406C110.354 131.996 111.563 132.353 112.806 132.455L131.697 135.291C131.885 135.304 132.066 135.365 132.224 135.468C132.329 135.582 132.408 135.716 132.456 135.863C132.504 136.009 132.52 136.164 132.502 136.317C132.59 139.841 132.112 143.356 131.088 146.73C131.034 147.006 130.9 147.26 130.703 147.461C130.448 147.633 130.147 147.724 129.839 147.721C123.483 148.257 117.097 148.086 110.723 147.915C109.651 147.93 108.582 147.814 107.539 147.567C105.764 147.072 104.314 145.863 102.976 144.619C100.106 141.96 88.4886 131.27 87.7843 129.82C86.8503 127.742 86.0979 125.587 85.5354 123.381C84.9436 121.258 89.2698 120.993 89.181 118.787C89.1186 117.263 89.3024 115.738 89.7254 114.271C90.0404 112.963 90.6932 111.759 91.6193 110.78C92.2703 110.191 91.2642 106.193 92.1637 106.146C93.2053 109.684 97.9162 116.759 99.9639 119.79C102.24 123.169 104.695 126.424 107.32 129.542Z" fill="#41B783"/>
<path d="M107.32 129.542C107.864 130.26 108.517 130.889 109.255 131.406C110.354 131.996 111.563 132.353 112.806 132.455L131.697 135.291C131.885 135.304 132.066 135.365 132.224 135.468C132.329 135.582 132.408 135.716 132.456 135.863C132.504 136.009 132.52 136.164 132.502 136.317C132.59 139.841 132.112 143.356 131.088 146.73C131.034 147.006 130.9 147.26 130.703 147.461C130.448 147.633 130.147 147.724 129.839 147.721C123.483 148.257 117.097 148.086 110.723 147.915C109.651 147.93 108.582 147.814 107.539 147.567C105.764 147.072 104.314 145.863 102.976 144.619C100.106 141.96 88.4886 131.27 87.7843 129.82C86.8503 127.742 86.0979 125.587 85.5354 123.381C84.9436 121.258 89.2698 120.993 89.181 118.787C89.1186 117.263 89.3024 115.738 89.7254 114.271C90.0404 112.963 90.6932 111.759 91.6193 110.78C92.2703 110.191 91.2642 106.193 92.1637 106.146C93.2053 109.684 97.9162 116.759 99.9639 119.79C102.24 123.169 104.695 126.424 107.32 129.542Z" fill="url(#paint0_linear)"/>
<path d="M59.5191 99.6716C58.2469 100.802 57.06 102.023 55.9682 103.327C53.3524 106.529 51.6125 110.338 49.9909 114.135C45.6765 124.242 41.9185 135.05 43.037 145.976C43.0582 146.633 43.2367 147.276 43.5578 147.851C44.0672 148.501 44.7827 148.96 45.5877 149.154C47.665 149.814 49.8843 149.844 52.0977 149.861C60.6258 149.938 69.1658 150.015 77.6879 149.602C79.0077 149.537 80.4044 149.437 81.4992 148.694C82.299 148.084 82.937 147.288 83.3576 146.377C85.6479 142.084 86.3166 137.119 88.0921 132.603C90.4594 126.706 96.9694 121.347 95.5963 115.132C89.7255 88.7457 62.206 97.2365 59.5191 99.6716Z" fill="#41B783"/>
<path d="M59.5191 99.6716C58.2469 100.802 57.06 102.023 55.9682 103.327C53.3524 106.529 51.6125 110.338 49.9909 114.135C45.6765 124.242 41.9185 135.05 43.037 145.976C43.0582 146.633 43.2367 147.276 43.5578 147.851C44.0672 148.501 44.7827 148.96 45.5877 149.154C47.665 149.814 49.8843 149.844 52.0977 149.861C60.6258 149.938 69.1658 150.015 77.6879 149.602C79.0077 149.537 80.4044 149.437 81.4992 148.694C82.299 148.084 82.937 147.288 83.3576 146.377C85.6479 142.084 86.3166 137.119 88.0921 132.603C90.4594 126.706 96.9694 121.347 95.5963 115.132C89.7255 88.7457 62.206 97.2365 59.5191 99.6716Z" fill="url(#paint1_linear)"/>
<path d="M98.0583 77.8141C97.0581 82.6549 96.0106 87.6256 93.3237 91.7943C92.3442 93.4775 90.9274 94.8667 89.2224 95.8156C87.4884 96.6823 85.2869 96.8002 83.6653 95.7389C82.8545 95.2141 81.9668 94.3886 81.0849 94.7778C80.4458 95.0667 80.2387 95.8568 80.1499 96.5467C79.9278 98.2414 79.9517 99.9591 80.2209 101.647C80.3307 102.122 80.3587 102.613 80.3038 103.098C80.1891 103.546 79.9464 103.952 79.605 104.266C79.2637 104.58 78.8383 104.788 78.3803 104.866C77.4648 104.999 76.5302 104.854 75.6994 104.448C74.407 103.872 73.276 102.989 72.4052 101.877C71.5344 100.765 70.9505 99.457 70.7045 98.068C70.5803 97.1297 70.521 96.1841 70.5269 95.2377C70.4145 91.0395 69.7457 86.859 69.8818 82.6667C70.018 78.4744 71.0655 74.1112 73.924 71.0156C75.5748 69.3299 77.5358 67.9767 79.7001 67.0297C82.9255 65.4966 86.5238 64.4176 90.051 64.9777C91.4546 65.1986 92.7935 65.7199 93.9756 66.5057C95.1576 67.2915 96.1548 68.3232 96.8983 69.5297C98.7448 72.354 98.7507 74.459 98.0583 77.8141Z" fill="#FFDAD2"/>
<path d="M106.87 67.1476C107.111 65.1799 106.744 63.1861 105.819 61.4313C104.894 59.6765 103.454 58.2439 101.692 57.3243C100.124 56.5459 98.3778 56.2157 96.6852 55.7676C92.7201 54.7063 88.9147 52.9492 84.8489 52.5718C80.7831 52.1944 76.1077 53.6155 74.2968 57.2889C73.9654 57.9611 73.6399 58.7748 72.9119 58.9516C72.5142 58.9943 72.112 58.9582 71.7283 58.8455C69.0118 58.3679 66.5676 60.6793 65.3426 63.138C63.3659 67.1181 63.2653 71.7585 63.6973 76.1748C64.0938 80.261 65.1414 84.6774 68.4319 87.1656C68.7574 87.4132 69.2367 87.6373 69.5504 87.372C69.694 87.2224 69.7835 87.0295 69.8049 86.8236C70.1358 85.2743 70.2592 83.6882 70.1718 82.1066C70.1067 80.9273 69.9173 79.6773 70.2251 78.5157C70.5328 77.3541 71.5212 76.2515 72.7285 76.2869C73.847 76.2869 74.7466 77.3246 75.0247 78.4095C75.2229 79.5141 75.1805 80.6482 74.9004 81.7351C75.078 82.1773 75.6994 81.6466 75.8059 81.1867C76.6226 77.4838 76.8061 73.3387 79.3864 70.5733C79.9114 71.1146 80.2937 71.7771 80.499 72.5014C80.8848 72.1033 81.3752 71.8214 81.9142 71.688C82.4532 71.5545 83.019 71.5749 83.5469 71.7467C84.2957 72.0714 84.984 72.52 85.5827 73.0734C91.8679 77.9614 105.551 76.5109 106.87 67.1476Z" fill="#3F3D56"/>
<path d="M61.3301 105.709C59.3415 107.148 58.371 109.678 58.3118 112.119C58.2526 114.56 60.8448 130.049 63.289 134.448C65.1828 137.868 69.1302 146.795 75.1253 149.26C76.9008 149.991 103.148 149.684 115.327 148.369C115.251 145.498 115.109 142.626 114.919 139.755C114.937 139.376 114.822 139.003 114.594 138.699C114.286 138.381 113.848 136.299 113.41 136.299C106.308 136.329 99.1472 138.493 92.0454 138.658C91.014 138.724 89.9783 138.663 88.962 138.475C88.1302 138.268 87.3328 137.943 86.5948 137.508C81.1145 134.419 78.0844 128.351 75.942 122.449C74.3027 117.897 72.9829 113.186 70.6157 108.935C69.7753 107.419 69.0237 105.945 67.3666 105.279C65.4195 104.495 63.1351 104.406 61.3301 105.709Z" fill="#41B783"/>
<path d="M61.3301 105.709C59.3415 107.148 58.371 109.678 58.3118 112.119C58.2526 114.56 60.8448 130.049 63.289 134.448C65.1828 137.868 69.1302 146.795 75.1253 149.26C76.9008 149.991 103.148 149.684 115.327 148.369C115.251 145.498 115.109 142.626 114.919 139.755C114.937 139.376 114.822 139.003 114.594 138.699C114.286 138.381 113.848 136.299 113.41 136.299C106.308 136.329 99.1472 138.493 92.0454 138.658C91.014 138.724 89.9783 138.663 88.962 138.475C88.1302 138.268 87.3328 137.943 86.5948 137.508C81.1145 134.419 78.0844 128.351 75.942 122.449C74.3027 117.897 72.9829 113.186 70.6157 108.935C69.7753 107.419 69.0237 105.945 67.3666 105.279C65.4195 104.495 63.1351 104.406 61.3301 105.709Z" fill="url(#paint2_linear)"/>
<path d="M114.286 135.745C117.973 135.397 122.068 136.217 124.406 139.077C124.652 139.337 124.813 139.666 124.868 140.02C124.865 140.339 124.766 140.649 124.584 140.91C123.205 143.192 120.21 143.735 117.695 144.637C116.386 145.104 115.137 145.721 113.972 146.477C113.317 146.995 112.558 147.369 111.747 147.573C109.972 147.839 108.498 146.258 107.693 144.678C106.77 142.909 105.326 139.277 107.101 137.603C108.551 136.276 112.463 135.91 114.286 135.745Z" fill="#FFDAD2"/>
<path d="M144.818 134.837C145.474 135.209 146.038 135.723 146.469 136.341C146.679 136.654 146.804 137.015 146.831 137.391C146.858 137.766 146.786 138.142 146.623 138.481C146.344 138.899 145.963 139.24 145.516 139.472C142.243 141.412 138.231 141.76 134.917 143.599C134.237 144.092 133.457 144.43 132.632 144.59C132.148 144.6 131.667 144.5 131.228 144.295C130.788 144.091 130.402 143.788 130.099 143.411C129.496 142.66 129.033 141.807 128.732 140.893C124.856 130.751 139.243 131.3 144.818 134.837Z" fill="#FFDAD2"/>
<path d="M51.0325 130.309H66.3665V142.856C66.3665 144.029 65.8988 145.154 65.0664 145.983C64.234 146.813 63.105 147.278 61.9278 147.278H55.4711C54.2939 147.278 53.1649 146.813 52.3325 145.983C51.5001 145.154 51.0325 144.029 51.0325 142.856V130.309Z" fill="white"/>
<path d="M65.3308 133.352H69.9766C70.9576 133.352 71.8984 133.74 72.5921 134.431C73.2857 135.122 73.6754 136.059 73.6754 137.037V138.564C73.6754 139.541 73.2857 140.479 72.5921 141.17C71.8984 141.861 70.9576 142.249 69.9766 142.249H65.3308V133.352Z" stroke="white" stroke-width="3.3" stroke-miterlimit="10"/>
<path d="M237.71 147.007H29.9934C28.1761 147.007 26.7029 148.474 26.7029 150.283C26.7029 152.092 28.1761 153.558 29.9934 153.558H237.71C239.527 153.558 241 152.092 241 150.283C241 148.474 239.527 147.007 237.71 147.007Z" fill="#41B783"/>
<path d="M199.525 153.658H82.1147V194.231H199.525V153.658Z" fill="#41B783"/>
<path d="M82.9137 153.658H36.7933V194.231H82.9137V153.658Z" fill="#41B783"/>
<path d="M199.531 153.658H82.89V194.231H199.531V153.658Z" fill="url(#paint3_linear)"/>
<path d="M82.9137 153.658H36.7933V194.231H82.9137V153.658Z" fill="url(#paint4_linear)"/>
<path opacity="0.18" d="M240.633 12.5416V38.3675H21.4297V12.5416C21.4297 11.1392 21.9868 9.7939 22.9793 8.79954C23.9718 7.80519 25.319 7.24265 26.7265 7.23486H235.336C236.744 7.24265 238.091 7.80519 239.083 8.79954C240.076 9.7939 240.633 11.1392 240.633 12.5416Z" fill="#41B783"/>
<path d="M116.044 146.895H192.057C194.188 146.895 195.915 145.174 195.915 143.051C195.915 140.928 194.188 139.206 192.057 139.206H116.044C113.912 139.206 112.185 140.928 112.185 143.051C112.185 145.174 113.912 146.895 116.044 146.895Z" fill="#41B783"/>
<path d="M116.044 146.895H192.057C194.188 146.895 195.915 145.174 195.915 143.051C195.915 140.928 194.188 139.206 192.057 139.206H116.044C113.912 139.206 112.185 140.928 112.185 143.051C112.185 145.174 113.912 146.895 116.044 146.895Z" fill="url(#paint5_linear)"/>
<path d="M142.403 146.907H200.739L216.126 108.033C216.33 107.515 216.404 106.955 216.342 106.402C216.28 105.848 216.083 105.319 215.769 104.859C215.454 104.398 215.032 104.022 214.538 103.761C214.045 103.5 213.495 103.364 212.936 103.363H167.159C164.945 103.367 162.782 104.033 160.953 105.276C159.123 106.519 157.71 108.28 156.897 110.332L142.403 146.907Z" fill="#41B783"/>
<path d="M145.368 146.948H200.774L215.386 110.02C215.581 109.528 215.652 108.996 215.594 108.47C215.535 107.944 215.348 107.441 215.049 107.004C214.75 106.566 214.349 106.209 213.879 105.961C213.41 105.714 212.887 105.585 212.356 105.586H168.881C166.775 105.585 164.717 106.215 162.976 107.395C161.234 108.575 159.889 110.25 159.116 112.201L145.368 146.948Z" fill="#41B783"/>
<path d="M145.368 146.948H200.774L215.386 110.02C215.581 109.528 215.652 108.996 215.594 108.47C215.535 107.944 215.348 107.441 215.049 107.004C214.75 106.566 214.349 106.209 213.879 105.961C213.41 105.714 212.887 105.585 212.356 105.586H168.881C166.775 105.585 164.717 106.215 162.976 107.395C161.234 108.575 159.889 110.25 159.116 112.201L145.368 146.948Z" fill="url(#paint6_linear)"/>
<path opacity="0.51" d="M208.095 91.1631H126.069V95.7622H208.095V91.1631Z" fill="white"/>
<path d="M184.381 83.2915H126.069V87.8906H184.381V83.2915Z" fill="white"/>
<path d="M231.389 83.2915H192.353V87.8906H231.389V83.2915Z" fill="white"/>
<path d="M231.253 54.1755H171.237V58.2617H231.253V54.1755Z" fill="white"/>
<path opacity="0.51" d="M222.873 61.4338H158.666V65.52H222.873V61.4338Z" fill="white"/>
<path d="M166.656 54.1755H127.182V58.2617H166.656V54.1755Z" fill="white"/>
<path d="M231.253 68.4741H144.498V72.5603H231.253V68.4741Z" fill="white"/>
<path opacity="0.51" d="M139.918 68.4741H127.182V72.5603H139.918V68.4741Z" fill="white"/>
<path opacity="0.51" d="M231.253 75.7324H173.989V79.8186H231.253V75.7324Z" fill="white"/>
<path d="M166.656 75.7324H127.182V79.8186H166.656V75.7324Z" fill="white"/>
<path d="M152.565 61.2629H127.182V65.3491H152.565V61.2629Z" fill="white"/>
<path d="M209.302 40.4194H149.286V44.5056H209.302V40.4194Z" fill="white"/>
<path opacity="0.51" d="M200.922 47.6777H136.716V51.7639H200.922V47.6777Z" fill="white"/>
<path d="M144.711 40.4194H105.237V44.5056H144.711V40.4194Z" fill="white"/>
<path d="M208.77 31.9583H148.753V36.0444H208.77V31.9583Z" fill="white"/>
<path d="M144.179 24.2812H104.704V28.3674H144.179V24.2812Z" fill="white"/>
<path d="M144.179 17.2761H104.704V21.3623H144.179V17.2761Z" fill="white"/>
<path d="M130.62 47.5066H105.237V51.5928H130.62V47.5066Z" fill="white"/>
</g>
<defs>
<linearGradient id="paint0_linear" x1="88.5063" y1="122.555" x2="118.217" y2="133.92" gradientUnits="userSpaceOnUse">
<stop offset="0.01"/>
<stop offset="0.12" stop-opacity="0.75"/>
<stop offset="1" stop-opacity="0"/>
</linearGradient>
<linearGradient id="paint1_linear" x1="6868.77" y1="14864.7" x2="6044.94" y2="9947.37" gradientUnits="userSpaceOnUse">
<stop offset="0.01"/>
<stop offset="0.12" stop-opacity="0.75"/>
<stop offset="1" stop-opacity="0"/>
</linearGradient>
<linearGradient id="paint2_linear" x1="7719.08" y1="12281.1" x2="8668.18" y2="9571.33" gradientUnits="userSpaceOnUse">
<stop offset="0.01"/>
<stop offset="0.12" stop-opacity="0.75"/>
<stop offset="1" stop-opacity="0"/>
</linearGradient>
<linearGradient id="paint3_linear" x1="30757.2" y1="8799.69" x2="30102.7" y2="15121.9" gradientUnits="userSpaceOnUse">
<stop offset="0.01"/>
<stop offset="0.12" stop-opacity="0.75"/>
<stop offset="1" stop-opacity="0"/>
</linearGradient>
<linearGradient id="paint4_linear" x1="3971.32" y1="9078.02" x2="5474.87" y2="17183.3" gradientUnits="userSpaceOnUse">
<stop offset="0.01"/>
<stop offset="0.12" stop-opacity="0.75"/>
<stop offset="1" stop-opacity="0"/>
</linearGradient>
<linearGradient id="paint5_linear" x1="22294" y1="2200.27" x2="22294.5" y2="1990.88" gradientUnits="userSpaceOnUse">
<stop offset="0.01"/>
<stop offset="0.12" stop-opacity="0.75"/>
<stop offset="1" stop-opacity="0"/>
</linearGradient>
<linearGradient id="paint6_linear" x1="21759.2" y1="11888.6" x2="21857.7" y2="7653.29" gradientUnits="userSpaceOnUse">
<stop offset="0.01"/>
<stop offset="0.12" stop-opacity="0.75"/>
<stop offset="1" stop-opacity="0"/>
</linearGradient>
<clipPath id="clip0">
<rect width="241" height="196" fill="white"/>
</clipPath>
</defs>
</svg>
