<svg width="97" height="97" viewBox="0 0 97 97" fill="none" xmlns="http://www.w3.org/2000/svg">
<path d="M97 80.8333C97 89.725 89.725 97 80.8333 97H16.1667C7.275 97 0 89.725 0 80.8333V16.1667C0 7.275 7.275 0 16.1667 0H80.8333C89.725 0 97 7.275 97 16.1667V80.8333Z" fill="#31B057"/>
<path d="M26.358 21.0801H53.8572C58.9291 21.0801 63.0025 22.2371 66.0615 24.567C69.1204 26.8969 70.6579 30.3997 70.6579 35.107C70.6579 37.96 69.9605 40.4008 68.5657 42.4296C67.1709 44.4583 65.1739 46.0433 62.5745 47.1528V47.3113C66.0615 48.0562 68.7084 49.7046 70.4994 52.2564C72.2904 54.824 73.1938 58.0257 73.1938 61.893C73.1938 64.1119 72.7976 66.1882 72.0051 68.1061C71.2126 70.0397 69.9763 71.7039 68.2804 73.0987C66.5845 74.4935 64.4289 75.603 61.782 76.4271C59.1351 77.2513 55.9969 77.6634 52.3515 77.6634H26.358V21.0801ZM36.2641 44.7753H52.4307C54.8082 44.7753 56.7894 44.1097 58.3744 42.7466C59.9593 41.3835 60.7518 39.4498 60.7518 36.9139C60.7518 34.061 60.0386 32.048 58.6121 30.891C57.1856 29.734 55.1252 29.1476 52.4307 29.1476H36.2641V44.7753ZM36.2641 69.5801H53.778C56.7894 69.5801 59.1352 68.8034 60.7835 67.2343C62.4477 65.6811 63.2878 63.4621 63.2878 60.6092C63.2878 57.8038 62.4636 55.6641 60.7835 54.1425C59.1035 52.6209 56.7894 51.8918 53.778 51.8918H36.2641V69.5801Z" fill="white"/>
</svg>
