<svg width="132" height="120" viewBox="0 0 132 120" fill="none" xmlns="http://www.w3.org/2000/svg">
<circle cx="6" cy="6" r="6" fill="#EA6C1E" fill-opacity="0.26"/>
<circle cx="6" cy="24" r="6" fill="#EA6C1E" fill-opacity="0.26"/>
<circle cx="6" cy="42" r="6" fill="#EA6C1E" fill-opacity="0.26"/>
<circle cx="6" cy="60" r="6" fill="#EA6C1E" fill-opacity="0.26"/>
<circle cx="6" cy="96" r="6" fill="#EA6C1E" fill-opacity="0.26"/>
<circle cx="6" cy="78" r="6" fill="#EA6C1E" fill-opacity="0.26"/>
<circle cx="6" cy="114" r="6" fill="#EA6C1E" fill-opacity="0.26"/>
<circle cx="46" cy="6" r="6" fill="#EA6C1E" fill-opacity="0.26"/>
<circle cx="46" cy="24" r="6" fill="#EA6C1E" fill-opacity="0.26"/>
<circle cx="46" cy="42" r="6" fill="#EA6C1E" fill-opacity="0.26"/>
<circle cx="46" cy="60" r="6" fill="#EA6C1E" fill-opacity="0.26"/>
<circle cx="46" cy="96" r="6" fill="#EA6C1E" fill-opacity="0.26"/>
<circle cx="46" cy="78" r="6" fill="#EA6C1E" fill-opacity="0.26"/>
<circle cx="46" cy="114" r="6" fill="#EA6C1E" fill-opacity="0.26"/>
<circle cx="86" cy="6" r="6" fill="#EA6C1E" fill-opacity="0.26"/>
<circle cx="126" cy="6" r="6" fill="#EA6C1E" fill-opacity="0.26"/>
<circle cx="86" cy="24" r="6" fill="#EA6C1E" fill-opacity="0.26"/>
<circle cx="126" cy="24" r="6" fill="#EA6C1E" fill-opacity="0.26"/>
<circle cx="86" cy="42" r="6" fill="#EA6C1E" fill-opacity="0.26"/>
<circle cx="126" cy="42" r="6" fill="#EA6C1E" fill-opacity="0.26"/>
<circle cx="86" cy="60" r="6" fill="#EA6C1E" fill-opacity="0.26"/>
<circle cx="86" cy="96" r="6" fill="#EA6C1E" fill-opacity="0.26"/>
<circle cx="126" cy="60" r="6" fill="#EA6C1E" fill-opacity="0.26"/>
<circle cx="126" cy="96" r="6" fill="#EA6C1E" fill-opacity="0.26"/>
<circle cx="86" cy="78" r="6" fill="#EA6C1E" fill-opacity="0.26"/>
<circle cx="86" cy="114" r="6" fill="#EA6C1E" fill-opacity="0.26"/>
<circle cx="126" cy="78" r="6" fill="#EA6C1E" fill-opacity="0.26"/>
<circle cx="126" cy="114" r="6" fill="#EA6C1E" fill-opacity="0.26"/>
<circle cx="26" cy="6" r="6" fill="#EA6C1E" fill-opacity="0.26"/>
<circle cx="26" cy="24" r="6" fill="#EA6C1E" fill-opacity="0.26"/>
<circle cx="26" cy="42" r="6" fill="#EA6C1E" fill-opacity="0.26"/>
<circle cx="26" cy="60" r="6" fill="#EA6C1E" fill-opacity="0.26"/>
<circle cx="26" cy="96" r="6" fill="#EA6C1E" fill-opacity="0.26"/>
<circle cx="26" cy="78" r="6" fill="#EA6C1E" fill-opacity="0.26"/>
<circle cx="26" cy="114" r="6" fill="#EA6C1E" fill-opacity="0.26"/>
<circle cx="66" cy="6" r="6" fill="#EA6C1E" fill-opacity="0.26"/>
<circle cx="106" cy="6" r="6" fill="#EA6C1E" fill-opacity="0.26"/>
<circle cx="66" cy="24" r="6" fill="#EA6C1E" fill-opacity="0.26"/>
<circle cx="106" cy="24" r="6" fill="#EA6C1E" fill-opacity="0.26"/>
<circle cx="66" cy="42" r="6" fill="#EA6C1E" fill-opacity="0.26"/>
<circle cx="106" cy="42" r="6" fill="#EA6C1E" fill-opacity="0.26"/>
<circle cx="66" cy="60" r="6" fill="#EA6C1E" fill-opacity="0.26"/>
<circle cx="66" cy="96" r="6" fill="#EA6C1E" fill-opacity="0.26"/>
<circle cx="106" cy="60" r="6" fill="#EA6C1E" fill-opacity="0.26"/>
<circle cx="106" cy="96" r="6" fill="#EA6C1E" fill-opacity="0.26"/>
<circle cx="66" cy="78" r="6" fill="#EA6C1E" fill-opacity="0.26"/>
<circle cx="66" cy="114" r="6" fill="#EA6C1E" fill-opacity="0.26"/>
<circle cx="106" cy="78" r="6" fill="#EA6C1E" fill-opacity="0.26"/>
<circle cx="106" cy="114" r="6" fill="#EA6C1E" fill-opacity="0.26"/>
</svg>
