<svg width="83" height="99" viewBox="0 0 83 99" fill="none" xmlns="http://www.w3.org/2000/svg">
<path fill-rule="evenodd" clip-rule="evenodd" d="M15.0306 82.8297C15.0439 89.4699 20.6034 95.9596 26.5446 98.5131C14.7679 95.8186 4.33965 88.1982 1.08608 76.2277C-2.16958 64.2491 2.26063 52.1731 9.49717 42.5713C13.1154 37.7742 17.3473 33.4687 21.7493 29.3815C23.084 28.1421 24.4628 26.9354 25.8437 25.7269C28.7027 23.2249 31.5706 20.7151 34.0737 17.8909C37.9019 13.5702 42.6868 5.84165 39.0549 0C45.6491 4.89864 50.9676 13.0846 50.0785 21.5169C49.8624 23.5641 49.242 25.6226 48.6234 27.675C47.209 32.3678 45.8043 37.0285 49.2641 41.4489C52.3575 45.3987 58.6195 44.5704 60.9325 40.7558L60.7624 40.9378C61.1586 40.311 61.4486 39.6238 61.6208 38.9036L61.6025 39.1813C61.7408 38.6559 61.8121 38.1154 61.815 37.5724C61.795 38.0295 61.7245 38.4725 61.6208 38.9036C61.6328 38.3191 61.5287 37.6661 61.2105 36.8984L61.8162 37.2272C73.4103 43.2041 82.7699 53.6441 82.5077 67.2097C82.1911 83.6988 66.7401 95.2382 51.7866 98.5197C58.863 95.748 65.1718 90.2578 66.0311 82.3639C66.8239 75.0809 62.8974 68.8016 57.5802 64.1575C54.372 61.353 50.7702 59.181 47.1613 57.0046C45.0838 55.7517 43.0039 54.4974 40.9953 53.1202C37.8259 50.9475 33.0157 46.5855 34.7085 42.1625C32.5062 44.0473 30.7678 46.6841 30.082 49.4991C28.712 55.1147 32.1938 59.4886 35.793 63.3609C39.4332 67.2712 39.1515 73.9828 33.0111 75.3194C30.3832 75.8878 27.6001 74.8404 26.0111 72.685C24.3017 70.3667 24.678 67.996 25.368 65.4041C19.6288 69.4435 15.0144 75.59 15.0306 82.8297Z" fill="#31B057"/>
</svg>
