<svg width="76" height="107" viewBox="0 0 76 107" fill="none" xmlns="http://www.w3.org/2000/svg">
<g clip-path="url(#clip0)">
<path d="M76 21.0278L69.0762 98.3936L37.9535 107L6.91646 98.4058L0 21.0278H76Z" fill="#31B057"/>
<path d="M63.1487 93.4676L69.0655 27.355H38V100.422L63.1487 93.4676Z" fill="#41B783"/>
<path d="M15.856 56.0532L16.7087 65.5432H38.0001V56.0532H15.856Z" fill="#EBEBEB"/>
<path d="M38 36.8447H37.9671H14.1423L15.0072 46.3349H38V36.8447Z" fill="#EBEBEB"/>
<path d="M38.0001 90.5738V80.7002L37.9584 80.7112L27.3621 77.8574L26.6848 70.2886H21.5358H17.1338L18.4668 85.1894L37.9563 90.586L38.0001 90.5738Z" fill="#EBEBEB"/>
<path d="M17.886 0H29.4096V4.80664H22.7049V9.61328H29.4096V14.4199H17.886V0Z" fill="#177751"/>
<path d="M31.7144 0H43.2379V4.17969H36.5333V5.01562H43.2379V14.6289H31.7144V10.2402H38.419V9.4043H31.7144V0Z" fill="#177751"/>
<path d="M45.5427 0H57.0663V4.17969H50.3617V5.01562H57.0663V14.6289H45.5427V10.2402H52.2474V9.4043H45.5427V0Z" fill="#177751"/>
<path d="M49.683 65.5429L48.5786 77.8508L37.967 80.7076V90.5809L57.4721 85.1889L57.6152 83.5856L59.851 58.6013L60.0831 56.0529L61.8008 36.8447H37.967V46.3349H51.3738L50.5081 56.0529H37.967V65.5429H49.683Z" fill="white"/>
</g>
<defs>
<clipPath id="clip0">
<rect width="76" height="107" fill="white"/>
</clipPath>
</defs>
</svg>
