<svg width="401" height="298" viewBox="0 0 401 298" fill="none" xmlns="http://www.w3.org/2000/svg">
<path opacity="0.18" d="M353.678 283.61C346.05 287.146 337.977 289.935 329.612 291.924C290.175 301.405 249.484 298.375 210.451 289.726C189.265 285.031 166.092 278.635 144.035 279.621C128.09 280.326 112.783 285.51 96.4771 285.447C69.6472 285.356 50.6941 273.686 32.145 257.519C13.1706 240.973 10.7789 208.938 14.5206 186.593C18.56 162.456 31.8261 139.649 51.5445 122.922C60.378 115.413 70.3913 109.18 79.8519 102.331C108.414 81.7407 133.373 55.1884 167.974 44.5223C202.574 33.8562 241.001 41.166 275.548 52.2482C302.123 60.7613 329.633 72.9653 342.623 95.4918C350.181 108.592 351.924 123.844 358.759 137.27C375.905 170.942 408.549 187.615 399.418 228.796C397.728 237.145 394.635 245.243 390.234 252.842C382.092 266.304 368.857 276.545 353.678 283.61Z" fill="#41B783"/>
<path d="M260.899 133.139C260.899 127.617 265.376 123.139 270.899 123.139H322.746C328.268 123.139 332.746 127.617 332.746 133.139V184.986C332.746 190.509 328.268 194.986 322.746 194.986H270.899C265.376 194.986 260.899 190.509 260.899 184.986V133.139Z" fill="#473F47"/>
<path d="M315.233 173.75H275.474C274.699 173.75 274.071 173.122 274.071 172.347V142.13C274.071 141.355 274.699 140.727 275.474 140.727H315.233C316.008 140.727 316.636 141.355 316.636 142.13V172.347C316.636 173.122 316.008 173.75 315.233 173.75Z" fill="#F1F2F4"/>
<path d="M315.233 183.012C314.755 183.012 314.31 182.769 314.052 182.366L310.029 176.099C309.752 175.667 309.733 175.118 309.979 174.668C310.225 174.218 310.697 173.937 311.21 173.937H319.256C319.769 173.937 320.241 174.218 320.487 174.668C320.733 175.118 320.714 175.667 320.437 176.099L316.414 182.367C316.156 182.769 315.711 183.012 315.233 183.012Z" fill="#FCCD49"/>
<path d="M309.807 157.727H320.659V175.528H309.807V157.727Z" fill="#41B783"/>
<path d="M317.853 149.51H312.614C311.064 149.51 309.807 150.767 309.807 152.317V157.93H320.659V152.317C320.659 150.767 319.403 149.51 317.853 149.51Z" fill="#13A458"/>
<path d="M305.597 150.082H281.087C280.312 150.082 279.684 149.454 279.684 148.679C279.684 147.904 280.312 147.275 281.087 147.275H305.597C306.372 147.275 307 147.904 307 148.679C307 149.454 306.372 150.082 305.597 150.082Z" fill="#41B783"/>
<path d="M298.675 155.695H281.087C280.312 155.695 279.684 155.067 279.684 154.292C279.684 153.517 280.312 152.888 281.087 152.888H298.675C299.45 152.888 300.078 153.517 300.078 154.292C300.078 155.067 299.45 155.695 298.675 155.695Z" fill="#41B783"/>
<path d="M305.597 161.308H281.087C280.312 161.308 279.684 160.68 279.684 159.905C279.684 159.13 280.312 158.502 281.087 158.502H305.597C306.372 158.502 307 159.13 307 159.905C307 160.68 306.372 161.308 305.597 161.308Z" fill="#41B783"/>
<path d="M298.675 166.921H281.087C280.312 166.921 279.684 166.293 279.684 165.518C279.684 164.743 280.312 164.115 281.087 164.115H298.675C299.45 164.115 300.078 164.743 300.078 165.518C300.078 166.293 299.45 166.921 298.675 166.921Z" fill="#41B783"/>
<path d="M316.636 143.533H274.071V136.517C274.071 135.742 274.699 135.114 275.474 135.114H315.233C316.008 135.114 316.636 135.742 316.636 136.517V143.533Z" fill="#41B783"/>
<rect x="260.899" y="20.1591" width="71.8467" height="71.8467" rx="10" fill="#473F47"/>
<path d="M299.629 49.3469H279.422C276.322 49.3469 273.809 51.8599 273.809 54.9599V69.3667C273.809 72.4666 276.322 74.9797 279.422 74.9797H285.501L285.416 74.987L289.525 79.0959L289.528 74.9797H299.629C302.729 74.9797 305.242 72.4666 305.242 69.3667V54.9599C305.242 51.8599 302.729 49.3469 299.629 49.3469Z" fill="#F1F2F4"/>
<path d="M307.174 33.0691H304.806C297.814 33.0691 292.145 38.7378 292.145 45.7307C292.145 52.7235 297.814 58.3924 304.806 58.3924H307.174C308.47 58.3924 309.721 58.1973 310.898 57.8355L314.784 61.7193V55.8506C317.852 53.54 319.836 49.8672 319.836 45.7306C319.836 38.7378 314.167 33.0691 307.174 33.0691Z" fill="#41B783"/>
<path d="M306.252 49.6063C305.736 49.6063 305.317 49.1875 305.317 48.6708V46.4233C305.317 45.5854 305.89 44.8718 306.711 44.688C307.725 44.4613 308.408 43.5405 308.337 42.4987C308.266 41.4671 307.434 40.6355 306.402 40.5644C305.814 40.5238 305.255 40.7215 304.827 41.1208C304.398 41.5206 304.163 42.0633 304.163 42.6488C304.163 43.1655 303.744 43.5843 303.227 43.5843C302.71 43.5843 302.292 43.1655 302.292 42.6488C302.292 41.5551 302.75 40.4997 303.55 39.753C304.361 38.9959 305.421 38.6215 306.531 38.6977C308.489 38.8327 310.068 40.4115 310.203 42.3699C310.337 44.3177 309.073 46.0426 307.188 46.498V48.6708C307.188 49.1875 306.769 49.6063 306.252 49.6063Z" fill="#FCCD49"/>
<path d="M306.252 53.3068C306.006 53.3068 305.765 53.2076 305.591 53.0336C305.417 52.8596 305.317 52.6183 305.317 52.3713C305.317 52.1253 305.417 51.8839 305.591 51.7099C305.765 51.5359 306.006 51.4358 306.252 51.4358C306.498 51.4358 306.74 51.5359 306.914 51.7099C307.087 51.8839 307.188 52.1253 307.188 52.3713C307.188 52.6183 307.088 52.8587 306.914 53.0336C306.74 53.2076 306.498 53.3068 306.252 53.3068Z" fill="#FCCD49"/>
<path d="M298.6 63.0052H278.861C278.344 63.0052 277.925 62.5864 277.925 62.0697C277.925 61.553 278.344 61.1342 278.861 61.1342H298.6C299.116 61.1342 299.535 61.553 299.535 62.0697C299.535 62.5864 299.116 63.0052 298.6 63.0052Z" fill="#41B783"/>
<path d="M298.6 68.244C298.354 68.244 298.112 68.1439 297.938 67.9699C297.764 67.7959 297.664 67.5546 297.664 67.3085C297.664 67.0625 297.764 66.8211 297.938 66.6471C298.112 66.4731 298.354 66.373 298.6 66.373C298.846 66.373 299.087 66.4731 299.261 66.6471C299.435 66.8211 299.535 67.0625 299.535 67.3085C299.535 67.5555 299.435 67.7959 299.261 67.9699C299.087 68.1439 298.846 68.244 298.6 68.244Z" fill="#41B783"/>
<path d="M294.92 68.244H278.861C278.344 68.244 277.925 67.8252 277.925 67.3085C277.925 66.7918 278.344 66.373 278.861 66.373H294.92C295.437 66.373 295.856 66.7918 295.856 67.3085C295.856 67.8252 295.437 68.244 294.92 68.244Z" fill="#41B783"/>
<path d="M292.519 57.7664H278.861C278.344 57.7664 277.925 57.3476 277.925 56.8309C277.925 56.3142 278.344 55.8954 278.861 55.8954H292.519C293.035 55.8954 293.454 56.3142 293.454 56.8309C293.454 57.3476 293.036 57.7664 292.519 57.7664Z" fill="#41B783"/>
<rect x="260.899" y="226.12" width="71.8467" height="71.8467" rx="10" fill="#473F47"/>
<path d="M286.926 258.802L276.466 278.509L285.964 277.631L290.562 285.991L301.022 266.283L286.926 258.802Z" fill="#41B783"/>
<path d="M306.493 258.802L316.953 278.509L307.454 277.631L302.857 285.991L292.397 266.283L306.493 258.802Z" fill="#41B783"/>
<path d="M296.709 273.049C306.361 273.049 314.186 265.224 314.186 255.572C314.186 245.919 306.361 238.094 296.709 238.094C287.056 238.094 279.231 245.919 279.231 255.572C279.231 265.224 287.056 273.049 296.709 273.049Z" fill="#41B783"/>
<path d="M296.709 268.046C289.83 268.046 284.233 262.448 284.233 255.57C284.233 248.692 289.83 243.096 296.709 243.096C303.589 243.096 309.185 248.694 309.185 255.572C309.185 262.45 303.589 268.046 296.709 268.046Z" fill="#F1F2F4"/>
<path d="M305.419 252.809H299.351L297.474 247.037C297.233 246.296 296.183 246.296 295.942 247.037L294.067 252.809H288C287.219 252.809 286.894 253.808 287.526 254.266L292.435 257.833L290.56 263.604C290.319 264.346 291.168 264.963 291.8 264.504L296.709 260.937L301.618 264.504C302.25 264.963 303.099 264.346 302.858 263.604L300.983 257.833L305.892 254.266C306.522 253.808 306.199 252.809 305.419 252.809Z" fill="#FCCD49"/>
<path d="M107.816 34.389L66.5834 46.8833L73.4223 7.85847C73.6578 6.484 75.2 5.91991 76.233 6.82198L107.816 34.389Z" fill="white" stroke="#6ED097" stroke-miterlimit="10"/>
<path d="M80.1962 18.138L95.1484 33.1162L75.0396 39.2326L77.3254 19.1695C77.4822 17.6946 79.1441 17.0815 80.1962 18.138Z" fill="#484848"/>
<path d="M168.627 128.057L224.339 93.024C228.466 90.1427 234.097 91.167 236.983 95.2318L239.521 98.8291C242.402 102.957 241.378 108.588 237.313 111.473L185.693 152.366" fill="white"/>
<path d="M168.627 128.057L224.339 93.024C228.466 90.1427 234.097 91.167 236.983 95.2318L239.521 98.8291C242.402 102.957 241.378 108.588 237.313 111.473L185.693 152.366" stroke="#6ED097" stroke-miterlimit="10"/>
<path d="M86.1004 269.615C86.1004 269.615 59.4649 223.495 35.1532 206.736C16.3831 193.775 0.24982 172.234 0.741417 152.794C0.875489 147.297 4.09321 142.471 9.27732 143.543C12.4504 144.213 14.7743 146.984 14.9977 150.381C16.115 167.721 52.1356 204.59 77.2517 212.679C105.362 221.752 101.206 272.788 101.206 272.788L86.1004 269.615Z" fill="white" stroke="#6ED097" stroke-miterlimit="10"/>
<path d="M205.373 215.049C205.373 257.614 172.574 292.14 132.139 292.14C91.703 292.14 58.9048 257.614 58.9048 215.049C58.9048 194.86 67.2635 155.332 79.2711 125.853C92.6365 93.1586 110.754 71.4069 132.011 71.4069C153.735 71.4069 169.222 93.9179 182.673 127.461C194.256 156.449 205.373 195.307 205.373 215.049Z" fill="white" stroke="#6ED097" stroke-miterlimit="10"/>
<path d="M84.3641 114.316C82.585 117.969 80.8905 121.8 79.2384 125.81C67.25 155.213 58.9048 194.64 58.9048 214.777C58.9048 215.535 58.9048 216.292 58.9471 217.049C69.241 208.763 79.1113 186.577 83.5169 159.356C86.2281 142.472 86.3551 126.612 84.3641 114.316Z" fill="#6ED097"/>
<path d="M191.57 59.6592L135.036 38.3418L174.23 3.66193C175.615 2.45528 177.805 3.12563 178.252 4.91326L191.57 59.6592Z" fill="white" stroke="#6ED097" stroke-miterlimit="10"/>
<path d="M150.768 35.482L169.627 18.8124C170.968 17.6504 173.023 18.2761 173.47 20.019L179.906 46.4759L150.768 35.482Z" fill="#484848"/>
<path d="M197.827 69.0886C197.827 96.5286 183.839 133.756 128.109 133.711C69.8776 133.667 58.3921 96.5286 58.3921 69.0886C58.3921 41.6486 89.9883 23.817 128.512 23.817C167.035 23.817 197.827 41.6486 197.827 69.0886Z" fill="white" stroke="#6ED097" stroke-miterlimit="10"/>
<path d="M131.045 119.054C109.37 119.054 93.8175 113.334 84.8347 102.071C76.4776 91.6139 74.7346 77.7151 74.7346 67.8385C74.7346 57.3809 82.5108 50.3645 89.0356 46.2976C99.7613 39.6387 114.867 35.9741 131.492 35.9741C148.027 35.9741 162.909 39.6387 173.456 46.2529C182.707 52.1074 187.4 59.3473 187.4 67.8385C187.4 75.6146 185.969 90.3625 176.495 101.937C167.155 113.289 151.915 119.054 131.224 119.054H131.045Z" fill="#484848"/>
<path d="M174.223 164.759L237.175 183.882C242.062 185.091 244.98 190.006 243.771 194.893L242.693 199.161C241.484 204.048 236.568 206.966 231.681 205.757L167.011 193.571" fill="white"/>
<path d="M174.223 164.759L237.175 183.882C242.062 185.091 244.98 190.006 243.771 194.893L242.693 199.161C241.484 204.048 236.568 206.966 231.681 205.757L167.011 193.571" stroke="#6ED097" stroke-miterlimit="10"/>
<path d="M12.9419 185.329C15.1317 188.323 17.5897 191.183 20.1818 193.91L35.8235 183.586C33.142 180.815 30.5947 178 28.2708 175.184L12.9419 185.329Z" fill="#6ED097"/>
<path d="M4.13794 169.911C5.47866 173.263 7.22159 176.614 9.23267 179.877L24.9638 170.939C22.5505 167.721 20.4947 164.548 18.8858 161.554L4.13794 169.911Z" fill="#6ED097"/>
<path d="M107.282 77.4656C111.664 77.4656 115.216 72.1633 115.216 65.6226C115.216 59.0818 111.664 53.7795 107.282 53.7795C102.9 53.7795 99.3472 59.0818 99.3472 65.6226C99.3472 72.1633 102.9 77.4656 107.282 77.4656Z" fill="#6ED097"/>
<path d="M153.708 77.4655C158.09 77.4655 161.642 72.1632 161.642 65.6225C161.642 59.0817 158.09 53.7794 153.708 53.7794C149.326 53.7794 145.773 59.0817 145.773 65.6225C145.773 72.1632 149.326 77.4655 153.708 77.4655Z" fill="#6ED097"/>
<path d="M102.903 34.8484L108.453 33.4585L110.064 34.0145L106.304 36.9796L81.2394 44.6705L67.8118 49.1183L65.9319 47.9137L68.5279 44.6705L102.903 34.8484Z" fill="white"/>
<path d="M139.358 89.9731H121.845C121.845 89.9731 124.518 105.778 131.335 104.826C137.654 103.944 139.358 89.9731 139.358 89.9731Z" fill="#6ED097"/>
</svg>
