<svg width="81" height="112" viewBox="0 0 81 112" fill="none" xmlns="http://www.w3.org/2000/svg">
<path d="M0.0440674 89.6121L13.7146 2.13616C13.8817 1.06334 14.716 0.217636 15.7865 0.0357828C16.8569 -0.14607 17.9236 0.377117 18.4355 1.3346L32.5731 27.7035L38.2084 16.9741C38.6448 16.1445 39.5051 15.6251 40.4426 15.6251C41.3801 15.6251 42.2404 16.1445 42.6769 16.9741L80.8293 89.6119H0.0440674V89.6121Z" fill="#31B057"/>
<path d="M47.2722 55.5368L32.5667 27.6909L0.0441895 89.612L47.2722 55.5368Z" fill="#177751"/>
<path d="M80.83 89.6121L70.3594 24.8193C70.2012 23.8888 69.5372 23.1245 68.6379 22.8364C67.7387 22.5482 66.7545 22.7881 66.0867 23.4551L0.0441895 89.6112L36.5872 110.104C38.8819 111.386 41.6767 111.386 43.9714 110.104L80.83 89.6112V89.6121Z" fill="#6ED097"/>
<path d="M70.3593 24.8193C70.2011 23.8889 69.5371 23.1245 68.6378 22.8364C67.7385 22.5483 66.7544 22.7881 66.0865 23.4552L52.9786 36.5964L42.6712 16.9737C42.2348 16.1441 41.3744 15.6247 40.437 15.6247C39.4995 15.6247 38.6392 16.1441 38.2027 16.9737L32.5674 27.7031L18.4291 1.33463C17.9164 0.376891 16.8484 -0.145449 15.7767 0.0377595C14.705 0.220968 13.8735 1.0688 13.7082 2.14246L0.0440651 89.6121H0L0.0440651 89.6627L0.403788 89.8393L66.0675 24.0998C66.735 23.4291 67.7216 23.188 68.6232 23.4753C69.5249 23.7625 70.1901 24.5299 70.3467 25.463L80.7289 89.6751L80.8299 89.612L70.3594 24.8192L70.3593 24.8193ZM0.163973 89.4922L13.7146 2.76106C13.8796 1.6874 14.7131 0.839574 15.7839 0.656365C16.8547 0.473156 17.9228 0.995327 18.4363 1.95323L32.5731 28.3222L38.2084 17.5928C38.6448 16.7632 39.5051 16.2437 40.4426 16.2437C41.3801 16.2437 42.2404 16.7632 42.6769 17.5928L52.7752 36.7983L0.16338 89.4922H0.163973Z" fill="white" fill-opacity="0.2"/>
</svg>
