<svg width="103" height="103" viewBox="0 0 103 103" fill="none" xmlns="http://www.w3.org/2000/svg">
<path d="M98.4446 47.1547L55.844 4.55628C53.3912 2.10233 49.4124 2.10233 46.9574 4.55628L38.1121 13.4037L49.3327 24.6243C51.9407 23.743 54.9309 24.3344 57.0089 26.4135C59.0997 28.5054 59.6858 31.521 58.7822 34.1385L69.5983 44.9535C72.2157 44.0509 75.2335 44.635 77.3233 46.7279C80.2434 49.648 80.2434 54.3796 77.3233 57.3018C74.401 60.223 69.6694 60.223 66.7461 57.3018C64.5502 55.1038 64.0065 51.8758 65.1204 49.1701L55.0328 39.0836V65.6268C55.7442 65.9793 56.4164 66.4487 57.0089 67.0412C59.929 69.9613 59.929 74.6929 57.0089 77.6162C54.0888 80.5352 49.354 80.5352 46.436 77.6162C43.5159 74.6919 43.5159 69.9602 46.436 67.0412C47.1581 66.3202 47.9937 65.7744 48.8857 65.4091V38.6185C47.9937 38.2532 47.1602 37.7127 46.436 36.9864C44.2242 34.7756 43.6922 31.5285 44.8262 28.8123L33.7649 17.7488L4.55323 46.9572C2.09928 49.4133 2.09928 53.3921 4.55323 55.846L47.1559 98.4456C49.6088 100.9 53.5865 100.9 56.0426 98.4456L98.4446 56.0435C100.899 53.5896 100.899 49.6087 98.4446 47.1547Z" fill="#31B057"/>
</svg>
