<svg width="514" height="363" viewBox="0 0 514 363" fill="none" xmlns="http://www.w3.org/2000/svg">
<g clip-path="url(#clip0)">
<path d="M103.383 39.3297C90.1523 39.307 77.043 41.8496 64.7803 46.8167C64.2866 47.019 63.7909 47.2224 63.2954 47.4303C44.6593 55.2944 28.7588 68.4841 17.5868 85.3463C6.41468 102.208 0.468006 121.993 0.492016 142.22V254.493C0.493352 255.679 0.964959 256.815 1.80337 257.654C2.64179 258.492 3.77853 258.964 4.96423 258.965L5.05303 258.973C91.2509 274.627 175.05 282.559 254.191 282.559C255.378 282.559 256.563 282.557 257.747 282.553C335.541 282.317 411.29 274.384 482.89 258.976L482.994 258.965C484.18 258.964 485.317 258.492 486.155 257.654C486.993 256.815 487.465 255.679 487.466 254.493V43.802C487.465 42.6163 486.993 41.4795 486.155 40.6411C485.317 39.8027 484.18 39.3311 482.994 39.3298L103.383 39.3297Z" fill="#6ED097"/>
<path d="M103.383 39.3297C90.1526 39.307 77.0432 41.8496 64.7806 46.8167C64.2868 47.019 63.7911 47.2224 63.2957 47.4303C44.6595 55.2944 28.7591 68.4841 17.587 85.3463C6.41492 102.208 0.46825 121.993 0.49226 142.22V254.493C0.493596 255.679 0.965203 256.815 1.80362 257.654C2.64203 258.492 3.77878 258.964 4.96447 258.965L5.05328 258.973C91.2511 274.627 175.05 282.559 254.191 282.559C255.378 282.559 256.563 282.557 257.747 282.553C335.541 282.317 411.29 274.384 482.89 258.976L482.994 258.965C484.18 258.964 485.317 258.492 486.155 257.654C486.994 256.815 487.465 255.679 487.467 254.493V43.802C487.465 42.6163 486.994 41.4795 486.155 40.6411C485.317 39.8027 484.18 39.3311 482.994 39.3298L103.383 39.3297Z" fill="#6ED097"/>
<path d="M371.09 128.87C370.314 128.883 369.575 129.2 369.032 129.752C368.488 130.305 368.183 131.049 368.183 131.825C368.183 132.6 368.488 133.344 369.032 133.897C369.575 134.45 370.314 134.767 371.09 134.779H445.172C445.56 134.786 445.946 134.716 446.307 134.574C446.669 134.432 446.998 134.219 447.278 133.949C447.557 133.68 447.78 133.357 447.935 133.001C448.089 132.645 448.172 132.262 448.179 131.873C448.185 131.485 448.115 131.099 447.972 130.738C447.829 130.377 447.617 130.048 447.346 129.769C447.076 129.49 446.754 129.267 446.397 129.113C446.041 128.958 445.657 128.876 445.269 128.87C445.237 128.869 445.204 128.869 445.172 128.87H371.09Z" fill="#3F3D56"/>
<path d="M461.972 128.047C461.918 128.101 461.875 128.165 461.846 128.236C461.817 128.306 461.802 128.382 461.802 128.458C461.802 128.535 461.817 128.61 461.846 128.681C461.875 128.751 461.918 128.816 461.972 128.87L464.468 131.365H458.313C458.159 131.365 458.011 131.427 457.902 131.536C457.793 131.645 457.732 131.793 457.732 131.947C457.732 132.101 457.793 132.249 457.902 132.358C458.011 132.467 458.159 132.528 458.313 132.528H464.468L461.972 135.024C461.918 135.078 461.875 135.142 461.846 135.213C461.817 135.283 461.802 135.359 461.802 135.435C461.802 135.512 461.817 135.587 461.846 135.658C461.875 135.728 461.918 135.792 461.972 135.846C462.026 135.9 462.09 135.943 462.161 135.972C462.231 136.002 462.307 136.017 462.383 136.017C462.46 136.017 462.535 136.002 462.606 135.972C462.676 135.943 462.74 135.9 462.794 135.846L466.283 132.358C466.392 132.249 466.453 132.101 466.453 131.947C466.453 131.793 466.392 131.645 466.283 131.536L462.794 128.047C462.74 127.993 462.676 127.95 462.606 127.921C462.535 127.892 462.46 127.877 462.383 127.877C462.307 127.877 462.231 127.892 462.161 127.921C462.09 127.95 462.026 127.993 461.972 128.047Z" fill="white"/>
<path d="M354.258 128.047C354.312 128.101 354.355 128.165 354.384 128.236C354.413 128.306 354.428 128.382 354.428 128.458C354.428 128.535 354.413 128.61 354.384 128.681C354.355 128.751 354.312 128.816 354.258 128.87L351.762 131.365H357.917C357.993 131.365 358.069 131.38 358.14 131.409C358.211 131.438 358.275 131.481 358.329 131.535C358.383 131.589 358.426 131.653 358.456 131.724C358.485 131.795 358.5 131.87 358.5 131.947C358.5 132.023 358.485 132.099 358.456 132.17C358.426 132.24 358.383 132.305 358.329 132.359C358.275 132.413 358.211 132.455 358.14 132.484C358.069 132.514 357.993 132.528 357.917 132.528H351.762L354.258 135.024C354.367 135.133 354.428 135.281 354.428 135.435C354.428 135.59 354.367 135.737 354.258 135.846C354.149 135.955 354.001 136.017 353.847 136.017C353.693 136.017 353.545 135.955 353.436 135.846L349.947 132.358C349.838 132.249 349.777 132.101 349.777 131.947C349.777 131.793 349.838 131.645 349.947 131.536L353.436 128.047C353.49 127.993 353.554 127.95 353.624 127.921C353.695 127.892 353.771 127.877 353.847 127.877C353.923 127.877 353.999 127.892 354.069 127.921C354.14 127.95 354.204 127.993 354.258 128.047V128.047Z" fill="white"/>
<g opacity="0.4">
<path opacity="0.4" d="M374.081 67.5448C375.835 67.5448 377.256 66.1232 377.256 64.3696C377.256 62.6159 375.835 61.1943 374.081 61.1943C372.328 61.1943 370.906 62.6159 370.906 64.3696C370.906 66.1232 372.328 67.5448 374.081 67.5448Z" fill="white"/>
<path opacity="0.4" d="M387.311 67.5445C389.065 67.5445 390.486 66.1229 390.486 64.3693C390.486 62.6157 389.065 61.1941 387.311 61.1941C385.557 61.1941 384.136 62.6157 384.136 64.3693C384.136 66.1229 385.557 67.5445 387.311 67.5445Z" fill="white"/>
<path opacity="0.4" d="M400.541 67.5445C402.295 67.5445 403.716 66.1229 403.716 64.3693C403.716 62.6157 402.295 61.1941 400.541 61.1941C398.788 61.1941 397.366 62.6157 397.366 64.3693C397.366 66.1229 398.788 67.5445 400.541 67.5445Z" fill="white"/>
<path opacity="0.4" d="M413.771 67.5445C415.525 67.5445 416.946 66.1229 416.946 64.3693C416.946 62.6157 415.525 61.1941 413.771 61.1941C412.018 61.1941 410.596 62.6157 410.596 64.3693C410.596 66.1229 412.018 67.5445 413.771 67.5445Z" fill="white"/>
<path opacity="0.4" d="M427.001 67.5445C428.755 67.5445 430.176 66.1229 430.176 64.3693C430.176 62.6157 428.755 61.1941 427.001 61.1941C425.248 61.1941 423.826 62.6157 423.826 64.3693C423.826 66.1229 425.248 67.5445 427.001 67.5445Z" fill="white"/>
<path opacity="0.4" d="M440.231 67.5445C441.985 67.5445 443.407 66.1229 443.407 64.3693C443.407 62.6157 441.985 61.1941 440.231 61.1941C438.478 61.1941 437.056 62.6157 437.056 64.3693C437.056 66.1229 438.478 67.5445 440.231 67.5445Z" fill="white"/>
<path opacity="0.4" d="M453.462 67.5445C455.215 67.5445 456.637 66.1229 456.637 64.3693C456.637 62.6157 455.215 61.1941 453.462 61.1941C451.708 61.1941 450.286 62.6157 450.286 64.3693C450.286 66.1229 451.708 67.5445 453.462 67.5445Z" fill="white"/>
<path opacity="0.4" d="M374.081 77.5995C375.835 77.5995 377.256 76.1779 377.256 74.4242C377.256 72.6706 375.835 71.249 374.081 71.249C372.327 71.249 370.906 72.6706 370.906 74.4242C370.906 76.1779 372.327 77.5995 374.081 77.5995Z" fill="white"/>
<path opacity="0.4" d="M387.311 77.5995C389.065 77.5995 390.486 76.1779 390.486 74.4242C390.486 72.6706 389.065 71.249 387.311 71.249C385.557 71.249 384.136 72.6706 384.136 74.4242C384.136 76.1779 385.557 77.5995 387.311 77.5995Z" fill="white"/>
<path opacity="0.4" d="M400.541 77.5995C402.295 77.5995 403.716 76.1779 403.716 74.4242C403.716 72.6706 402.295 71.249 400.541 71.249C398.788 71.249 397.366 72.6706 397.366 74.4242C397.366 76.1779 398.788 77.5995 400.541 77.5995Z" fill="white"/>
<path opacity="0.4" d="M413.771 77.5995C415.525 77.5995 416.946 76.1779 416.946 74.4242C416.946 72.6706 415.525 71.249 413.771 71.249C412.018 71.249 410.596 72.6706 410.596 74.4242C410.596 76.1779 412.018 77.5995 413.771 77.5995Z" fill="white"/>
<path opacity="0.4" d="M427.001 77.5995C428.755 77.5995 430.176 76.1779 430.176 74.4242C430.176 72.6706 428.755 71.249 427.001 71.249C425.248 71.249 423.826 72.6706 423.826 74.4242C423.826 76.1779 425.248 77.5995 427.001 77.5995Z" fill="white"/>
<path opacity="0.4" d="M440.231 77.5995C441.985 77.5995 443.407 76.1779 443.407 74.4242C443.407 72.6706 441.985 71.249 440.231 71.249C438.478 71.249 437.056 72.6706 437.056 74.4242C437.056 76.1779 438.478 77.5995 440.231 77.5995Z" fill="white"/>
<path opacity="0.4" d="M453.462 77.5995C455.215 77.5995 456.637 76.1779 456.637 74.4242C456.637 72.6706 455.215 71.249 453.462 71.249C451.708 71.249 450.286 72.6706 450.286 74.4242C450.286 76.1779 451.708 77.5995 453.462 77.5995Z" fill="white"/>
<path opacity="0.4" d="M374.081 87.6544C375.835 87.6544 377.256 86.2328 377.256 84.4792C377.256 82.7255 375.835 81.304 374.081 81.304C372.327 81.304 370.906 82.7255 370.906 84.4792C370.906 86.2328 372.327 87.6544 374.081 87.6544Z" fill="white"/>
<path opacity="0.4" d="M387.311 87.6544C389.065 87.6544 390.486 86.2328 390.486 84.4792C390.486 82.7255 389.065 81.304 387.311 81.304C385.557 81.304 384.136 82.7255 384.136 84.4792C384.136 86.2328 385.557 87.6544 387.311 87.6544Z" fill="white"/>
<path opacity="0.4" d="M400.541 87.6544C402.295 87.6544 403.716 86.2328 403.716 84.4792C403.716 82.7255 402.295 81.304 400.541 81.304C398.788 81.304 397.366 82.7255 397.366 84.4792C397.366 86.2328 398.788 87.6544 400.541 87.6544Z" fill="white"/>
<path opacity="0.4" d="M413.771 87.6544C415.525 87.6544 416.946 86.2328 416.946 84.4792C416.946 82.7255 415.525 81.304 413.771 81.304C412.018 81.304 410.596 82.7255 410.596 84.4792C410.596 86.2328 412.018 87.6544 413.771 87.6544Z" fill="white"/>
<path opacity="0.4" d="M427.001 87.6544C428.755 87.6544 430.176 86.2328 430.176 84.4792C430.176 82.7255 428.755 81.304 427.001 81.304C425.248 81.304 423.826 82.7255 423.826 84.4792C423.826 86.2328 425.248 87.6544 427.001 87.6544Z" fill="white"/>
<path opacity="0.4" d="M440.231 87.6544C441.985 87.6544 443.407 86.2328 443.407 84.4792C443.407 82.7255 441.985 81.304 440.231 81.304C438.478 81.304 437.056 82.7255 437.056 84.4792C437.056 86.2328 438.478 87.6544 440.231 87.6544Z" fill="white"/>
<path opacity="0.4" d="M453.462 87.6544C455.215 87.6544 456.637 86.2328 456.637 84.4792C456.637 82.7255 455.215 81.304 453.462 81.304C451.708 81.304 450.286 82.7255 450.286 84.4792C450.286 86.2328 451.708 87.6544 453.462 87.6544Z" fill="white"/>
<path opacity="0.4" d="M374.081 97.7091C375.835 97.7091 377.256 96.2875 377.256 94.5339C377.256 92.7802 375.835 91.3586 374.081 91.3586C372.327 91.3586 370.906 92.7802 370.906 94.5339C370.906 96.2875 372.327 97.7091 374.081 97.7091Z" fill="white"/>
<path opacity="0.4" d="M387.311 97.7091C389.065 97.7091 390.486 96.2875 390.486 94.5339C390.486 92.7802 389.065 91.3586 387.311 91.3586C385.557 91.3586 384.136 92.7802 384.136 94.5339C384.136 96.2875 385.557 97.7091 387.311 97.7091Z" fill="white"/>
<path opacity="0.4" d="M374.081 107.764C375.835 107.764 377.256 106.342 377.256 104.589C377.256 102.835 375.835 101.414 374.081 101.414C372.327 101.414 370.906 102.835 370.906 104.589C370.906 106.342 372.327 107.764 374.081 107.764Z" fill="white"/>
<path opacity="0.4" d="M387.311 107.764C389.065 107.764 390.486 106.342 390.486 104.589C390.486 102.835 389.065 101.414 387.311 101.414C385.557 101.414 384.136 102.835 384.136 104.589C384.136 106.342 385.557 107.764 387.311 107.764Z" fill="white"/>
<path opacity="0.4" d="M400.541 107.764C402.295 107.764 403.716 106.342 403.716 104.589C403.716 102.835 402.295 101.414 400.541 101.414C398.788 101.414 397.366 102.835 397.366 104.589C397.366 106.342 398.788 107.764 400.541 107.764Z" fill="white"/>
<path opacity="0.4" d="M400.541 97.7091C402.295 97.7091 403.716 96.2875 403.716 94.5339C403.716 92.7802 402.295 91.3586 400.541 91.3586C398.788 91.3586 397.366 92.7802 397.366 94.5339C397.366 96.2875 398.788 97.7091 400.541 97.7091Z" fill="white"/>
<path opacity="0.4" d="M413.771 97.7091C415.525 97.7091 416.946 96.2875 416.946 94.5339C416.946 92.7802 415.525 91.3586 413.771 91.3586C412.018 91.3586 410.596 92.7802 410.596 94.5339C410.596 96.2875 412.018 97.7091 413.771 97.7091Z" fill="white"/>
<path opacity="0.4" d="M427.001 97.7091C428.755 97.7091 430.176 96.2875 430.176 94.5339C430.176 92.7802 428.755 91.3586 427.001 91.3586C425.248 91.3586 423.826 92.7802 423.826 94.5339C423.826 96.2875 425.248 97.7091 427.001 97.7091Z" fill="white"/>
<path opacity="0.4" d="M440.231 97.7091C441.985 97.7091 443.407 96.2875 443.407 94.5339C443.407 92.7802 441.985 91.3586 440.231 91.3586C438.478 91.3586 437.056 92.7802 437.056 94.5339C437.056 96.2875 438.478 97.7091 440.231 97.7091Z" fill="white"/>
<path opacity="0.4" d="M453.462 97.7091C455.215 97.7091 456.637 96.2875 456.637 94.5339C456.637 92.7802 455.215 91.3586 453.462 91.3586C451.708 91.3586 450.286 92.7802 450.286 94.5339C450.286 96.2875 451.708 97.7091 453.462 97.7091Z" fill="white"/>
</g>
<path d="M328.333 104.821C324.867 104.821 321.478 103.793 318.596 101.867C315.713 99.9407 313.467 97.2033 312.14 94.0006C310.814 90.7979 310.466 87.2738 311.143 83.8738C311.819 80.4738 313.488 77.3507 315.94 74.8995C318.391 72.4483 321.514 70.779 324.914 70.1027C328.314 69.4264 331.838 69.7735 335.041 71.1001C338.243 72.4267 340.981 74.6732 342.907 77.5555C344.833 80.4379 345.861 83.8266 345.861 87.2932C345.855 91.9401 344.007 96.3952 340.721 99.6811C337.435 102.967 332.98 104.815 328.333 104.821V104.821ZM328.333 70.7597C325.063 70.7597 321.867 71.7294 319.148 73.5461C316.429 75.3628 314.31 77.945 313.058 80.9661C311.807 83.9872 311.479 87.3115 312.117 90.5187C312.755 93.7259 314.33 96.6719 316.642 98.9841C318.955 101.296 321.901 102.871 325.108 103.509C328.315 104.147 331.639 103.82 334.66 102.568C337.681 101.317 340.264 99.1976 342.08 96.4787C343.897 93.7598 344.867 90.5632 344.867 87.2932C344.862 82.9098 343.118 78.7073 340.019 75.6077C336.919 72.5081 332.717 70.7646 328.333 70.7597V70.7597Z" fill="#3F3D56"/>
<path d="M335.053 85.6134H330.013V80.5735C330.013 80.128 329.836 79.7006 329.521 79.3856C329.206 79.0705 328.779 78.8936 328.333 78.8936C327.888 78.8936 327.46 79.0705 327.145 79.3856C326.83 79.7006 326.653 80.128 326.653 80.5735V85.6134H321.614C321.168 85.6134 320.741 85.7903 320.426 86.1054C320.111 86.4204 319.934 86.8477 319.934 87.2933C319.934 87.7388 320.111 88.1661 320.426 88.4812C320.741 88.7962 321.168 88.9733 321.614 88.9733H326.653V94.0131C326.653 94.4587 326.83 94.886 327.145 95.201C327.46 95.5161 327.888 95.6931 328.333 95.6931C328.779 95.6931 329.206 95.5161 329.521 95.201C329.836 94.886 330.013 94.4587 330.013 94.0131V88.9733H335.053C335.499 88.9733 335.926 88.7962 336.241 88.4812C336.556 88.1661 336.733 87.7388 336.733 87.2933C336.733 86.8477 336.556 86.4204 336.241 86.1054C335.926 85.7903 335.499 85.6134 335.053 85.6134V85.6134Z" fill="white"/>
<g opacity="0.4">
<path opacity="0.4" d="M27.3375 228.052C28.7163 228.052 29.834 226.935 29.834 225.556C29.834 224.177 28.7163 223.059 27.3375 223.059C25.9588 223.059 24.8411 224.177 24.8411 225.556C24.8411 226.935 25.9588 228.052 27.3375 228.052Z" fill="white"/>
<path opacity="0.4" d="M27.3375 217.65C28.7163 217.65 29.834 216.532 29.834 215.154C29.834 213.775 28.7163 212.657 27.3375 212.657C25.9588 212.657 24.8411 213.775 24.8411 215.154C24.8411 216.532 25.9588 217.65 27.3375 217.65Z" fill="white"/>
<path opacity="0.4" d="M27.3375 207.248C28.7163 207.248 29.834 206.131 29.834 204.752C29.834 203.373 28.7163 202.255 27.3375 202.255C25.9588 202.255 24.8411 203.373 24.8411 204.752C24.8411 206.131 25.9588 207.248 27.3375 207.248Z" fill="white"/>
<path opacity="0.4" d="M27.3375 196.847C28.7163 196.847 29.834 195.729 29.834 194.35C29.834 192.971 28.7163 191.854 27.3375 191.854C25.9588 191.854 24.8411 192.971 24.8411 194.35C24.8411 195.729 25.9588 196.847 27.3375 196.847Z" fill="white"/>
<path opacity="0.4" d="M27.3375 186.445C28.7163 186.445 29.834 185.327 29.834 183.948C29.834 182.57 28.7163 181.452 27.3375 181.452C25.9588 181.452 24.8411 182.57 24.8411 183.948C24.8411 185.327 25.9588 186.445 27.3375 186.445Z" fill="white"/>
<path opacity="0.4" d="M27.3375 176.043C28.7163 176.043 29.834 174.925 29.834 173.546C29.834 172.168 28.7163 171.05 27.3375 171.05C25.9588 171.05 24.8411 172.168 24.8411 173.546C24.8411 174.925 25.9588 176.043 27.3375 176.043Z" fill="white"/>
<path opacity="0.4" d="M27.3375 165.641C28.7163 165.641 29.834 164.523 29.834 163.145C29.834 161.766 28.7163 160.648 27.3375 160.648C25.9588 160.648 24.8411 161.766 24.8411 163.145C24.8411 164.523 25.9588 165.641 27.3375 165.641Z" fill="white"/>
<path opacity="0.4" d="M35.243 228.052C36.6218 228.052 37.7395 226.935 37.7395 225.556C37.7395 224.177 36.6218 223.059 35.243 223.059C33.8643 223.059 32.7466 224.177 32.7466 225.556C32.7466 226.935 33.8643 228.052 35.243 228.052Z" fill="white"/>
<path opacity="0.4" d="M35.243 217.65C36.6218 217.65 37.7395 216.532 37.7395 215.154C37.7395 213.775 36.6218 212.657 35.243 212.657C33.8643 212.657 32.7466 213.775 32.7466 215.154C32.7466 216.532 33.8643 217.65 35.243 217.65Z" fill="white"/>
<path opacity="0.4" d="M35.243 207.248C36.6218 207.248 37.7395 206.131 37.7395 204.752C37.7395 203.373 36.6218 202.255 35.243 202.255C33.8643 202.255 32.7466 203.373 32.7466 204.752C32.7466 206.131 33.8643 207.248 35.243 207.248Z" fill="white"/>
<path opacity="0.4" d="M35.243 196.847C36.6218 196.847 37.7395 195.729 37.7395 194.35C37.7395 192.971 36.6218 191.854 35.243 191.854C33.8643 191.854 32.7466 192.971 32.7466 194.35C32.7466 195.729 33.8643 196.847 35.243 196.847Z" fill="white"/>
<path opacity="0.4" d="M35.243 186.445C36.6218 186.445 37.7395 185.327 37.7395 183.948C37.7395 182.57 36.6218 181.452 35.243 181.452C33.8643 181.452 32.7466 182.57 32.7466 183.948C32.7466 185.327 33.8643 186.445 35.243 186.445Z" fill="white"/>
<path opacity="0.4" d="M35.243 176.043C36.6218 176.043 37.7395 174.925 37.7395 173.546C37.7395 172.168 36.6218 171.05 35.243 171.05C33.8643 171.05 32.7466 172.168 32.7466 173.546C32.7466 174.925 33.8643 176.043 35.243 176.043Z" fill="white"/>
<path opacity="0.4" d="M35.243 165.641C36.6218 165.641 37.7395 164.523 37.7395 163.145C37.7395 161.766 36.6218 160.648 35.243 160.648C33.8643 160.648 32.7466 161.766 32.7466 163.145C32.7466 164.523 33.8643 165.641 35.243 165.641Z" fill="white"/>
<path opacity="0.4" d="M43.1481 228.052C44.5268 228.052 45.6445 226.935 45.6445 225.556C45.6445 224.177 44.5268 223.059 43.1481 223.059C41.7693 223.059 40.6516 224.177 40.6516 225.556C40.6516 226.935 41.7693 228.052 43.1481 228.052Z" fill="white"/>
<path opacity="0.4" d="M43.1481 217.65C44.5268 217.65 45.6445 216.532 45.6445 215.154C45.6445 213.775 44.5268 212.657 43.1481 212.657C41.7693 212.657 40.6516 213.775 40.6516 215.154C40.6516 216.532 41.7693 217.65 43.1481 217.65Z" fill="white"/>
<path opacity="0.4" d="M43.1481 207.248C44.5268 207.248 45.6445 206.131 45.6445 204.752C45.6445 203.373 44.5268 202.255 43.1481 202.255C41.7693 202.255 40.6516 203.373 40.6516 204.752C40.6516 206.131 41.7693 207.248 43.1481 207.248Z" fill="white"/>
<path opacity="0.4" d="M43.1481 196.847C44.5268 196.847 45.6445 195.729 45.6445 194.35C45.6445 192.971 44.5268 191.854 43.1481 191.854C41.7693 191.854 40.6516 192.971 40.6516 194.35C40.6516 195.729 41.7693 196.847 43.1481 196.847Z" fill="white"/>
<path opacity="0.4" d="M43.1481 186.445C44.5268 186.445 45.6445 185.327 45.6445 183.948C45.6445 182.57 44.5268 181.452 43.1481 181.452C41.7693 181.452 40.6516 182.57 40.6516 183.948C40.6516 185.327 41.7693 186.445 43.1481 186.445Z" fill="white"/>
<path opacity="0.4" d="M43.1481 176.043C44.5268 176.043 45.6445 174.925 45.6445 173.546C45.6445 172.168 44.5268 171.05 43.1481 171.05C41.7693 171.05 40.6516 172.168 40.6516 173.546C40.6516 174.925 41.7693 176.043 43.1481 176.043Z" fill="white"/>
<path opacity="0.4" d="M43.1481 165.641C44.5268 165.641 45.6445 164.523 45.6445 163.145C45.6445 161.766 44.5268 160.648 43.1481 160.648C41.7693 160.648 40.6516 161.766 40.6516 163.145C40.6516 164.523 41.7693 165.641 43.1481 165.641Z" fill="white"/>
<path opacity="0.4" d="M51.0536 228.052C52.4323 228.052 53.55 226.935 53.55 225.556C53.55 224.177 52.4323 223.059 51.0536 223.059C49.6748 223.059 48.5571 224.177 48.5571 225.556C48.5571 226.935 49.6748 228.052 51.0536 228.052Z" fill="white"/>
<path opacity="0.4" d="M51.0536 217.65C52.4323 217.65 53.55 216.532 53.55 215.154C53.55 213.775 52.4323 212.657 51.0536 212.657C49.6748 212.657 48.5571 213.775 48.5571 215.154C48.5571 216.532 49.6748 217.65 51.0536 217.65Z" fill="white"/>
<path opacity="0.4" d="M58.9588 228.052C60.3376 228.052 61.4553 226.935 61.4553 225.556C61.4553 224.177 60.3376 223.059 58.9588 223.059C57.5801 223.059 56.4624 224.177 56.4624 225.556C56.4624 226.935 57.5801 228.052 58.9588 228.052Z" fill="white"/>
<path opacity="0.4" d="M58.9588 217.65C60.3376 217.65 61.4553 216.532 61.4553 215.154C61.4553 213.775 60.3376 212.657 58.9588 212.657C57.5801 212.657 56.4624 213.775 56.4624 215.154C56.4624 216.532 57.5801 217.65 58.9588 217.65Z" fill="white"/>
<path opacity="0.4" d="M58.9588 207.248C60.3376 207.248 61.4553 206.131 61.4553 204.752C61.4553 203.373 60.3376 202.255 58.9588 202.255C57.5801 202.255 56.4624 203.373 56.4624 204.752C56.4624 206.131 57.5801 207.248 58.9588 207.248Z" fill="white"/>
<path opacity="0.4" d="M51.0536 207.248C52.4323 207.248 53.55 206.131 53.55 204.752C53.55 203.373 52.4323 202.255 51.0536 202.255C49.6748 202.255 48.5571 203.373 48.5571 204.752C48.5571 206.131 49.6748 207.248 51.0536 207.248Z" fill="white"/>
<path opacity="0.4" d="M51.0536 196.847C52.4323 196.847 53.55 195.729 53.55 194.35C53.55 192.971 52.4323 191.854 51.0536 191.854C49.6748 191.854 48.5571 192.971 48.5571 194.35C48.5571 195.729 49.6748 196.847 51.0536 196.847Z" fill="white"/>
<path opacity="0.4" d="M51.0536 186.445C52.4323 186.445 53.55 185.327 53.55 183.948C53.55 182.57 52.4323 181.452 51.0536 181.452C49.6748 181.452 48.5571 182.57 48.5571 183.948C48.5571 185.327 49.6748 186.445 51.0536 186.445Z" fill="white"/>
<path opacity="0.4" d="M51.0536 176.043C52.4323 176.043 53.55 174.925 53.55 173.546C53.55 172.168 52.4323 171.05 51.0536 171.05C49.6748 171.05 48.5571 172.168 48.5571 173.546C48.5571 174.925 49.6748 176.043 51.0536 176.043Z" fill="white"/>
<path opacity="0.4" d="M51.0536 165.641C52.4323 165.641 53.55 164.523 53.55 163.145C53.55 161.766 52.4323 160.648 51.0536 160.648C49.6748 160.648 48.5571 161.766 48.5571 163.145C48.5571 164.523 49.6748 165.641 51.0536 165.641Z" fill="white"/>
</g>
<g opacity="0.4">
<path opacity="0.4" d="M27.3375 228.052C28.7163 228.052 29.834 226.935 29.834 225.556C29.834 224.177 28.7163 223.059 27.3375 223.059C25.9588 223.059 24.8411 224.177 24.8411 225.556C24.8411 226.935 25.9588 228.052 27.3375 228.052Z" fill="white"/>
<path opacity="0.4" d="M27.3375 217.65C28.7163 217.65 29.834 216.532 29.834 215.154C29.834 213.775 28.7163 212.657 27.3375 212.657C25.9588 212.657 24.8411 213.775 24.8411 215.154C24.8411 216.532 25.9588 217.65 27.3375 217.65Z" fill="white"/>
<path opacity="0.4" d="M27.3375 207.248C28.7163 207.248 29.834 206.131 29.834 204.752C29.834 203.373 28.7163 202.255 27.3375 202.255C25.9588 202.255 24.8411 203.373 24.8411 204.752C24.8411 206.131 25.9588 207.248 27.3375 207.248Z" fill="white"/>
<path opacity="0.4" d="M27.3375 196.847C28.7163 196.847 29.834 195.729 29.834 194.35C29.834 192.971 28.7163 191.854 27.3375 191.854C25.9588 191.854 24.8411 192.971 24.8411 194.35C24.8411 195.729 25.9588 196.847 27.3375 196.847Z" fill="white"/>
<path opacity="0.4" d="M27.3375 186.445C28.7163 186.445 29.834 185.327 29.834 183.948C29.834 182.57 28.7163 181.452 27.3375 181.452C25.9588 181.452 24.8411 182.57 24.8411 183.948C24.8411 185.327 25.9588 186.445 27.3375 186.445Z" fill="white"/>
<path opacity="0.4" d="M27.3375 176.043C28.7163 176.043 29.834 174.925 29.834 173.546C29.834 172.168 28.7163 171.05 27.3375 171.05C25.9588 171.05 24.8411 172.168 24.8411 173.546C24.8411 174.925 25.9588 176.043 27.3375 176.043Z" fill="white"/>
<path opacity="0.4" d="M27.3375 165.641C28.7163 165.641 29.834 164.523 29.834 163.145C29.834 161.766 28.7163 160.648 27.3375 160.648C25.9588 160.648 24.8411 161.766 24.8411 163.145C24.8411 164.523 25.9588 165.641 27.3375 165.641Z" fill="white"/>
<path opacity="0.4" d="M35.243 228.052C36.6218 228.052 37.7395 226.935 37.7395 225.556C37.7395 224.177 36.6218 223.059 35.243 223.059C33.8643 223.059 32.7466 224.177 32.7466 225.556C32.7466 226.935 33.8643 228.052 35.243 228.052Z" fill="white"/>
<path opacity="0.4" d="M35.243 217.65C36.6218 217.65 37.7395 216.532 37.7395 215.154C37.7395 213.775 36.6218 212.657 35.243 212.657C33.8643 212.657 32.7466 213.775 32.7466 215.154C32.7466 216.532 33.8643 217.65 35.243 217.65Z" fill="white"/>
<path opacity="0.4" d="M35.243 207.248C36.6218 207.248 37.7395 206.131 37.7395 204.752C37.7395 203.373 36.6218 202.255 35.243 202.255C33.8643 202.255 32.7466 203.373 32.7466 204.752C32.7466 206.131 33.8643 207.248 35.243 207.248Z" fill="white"/>
<path opacity="0.4" d="M35.243 196.847C36.6218 196.847 37.7395 195.729 37.7395 194.35C37.7395 192.971 36.6218 191.854 35.243 191.854C33.8643 191.854 32.7466 192.971 32.7466 194.35C32.7466 195.729 33.8643 196.847 35.243 196.847Z" fill="white"/>
<path opacity="0.4" d="M35.243 186.445C36.6218 186.445 37.7395 185.327 37.7395 183.948C37.7395 182.57 36.6218 181.452 35.243 181.452C33.8643 181.452 32.7466 182.57 32.7466 183.948C32.7466 185.327 33.8643 186.445 35.243 186.445Z" fill="white"/>
<path opacity="0.4" d="M35.243 176.043C36.6218 176.043 37.7395 174.925 37.7395 173.546C37.7395 172.168 36.6218 171.05 35.243 171.05C33.8643 171.05 32.7466 172.168 32.7466 173.546C32.7466 174.925 33.8643 176.043 35.243 176.043Z" fill="white"/>
<path opacity="0.4" d="M35.243 165.641C36.6218 165.641 37.7395 164.523 37.7395 163.145C37.7395 161.766 36.6218 160.648 35.243 160.648C33.8643 160.648 32.7466 161.766 32.7466 163.145C32.7466 164.523 33.8643 165.641 35.243 165.641Z" fill="white"/>
<path opacity="0.4" d="M43.1481 228.052C44.5268 228.052 45.6445 226.935 45.6445 225.556C45.6445 224.177 44.5268 223.059 43.1481 223.059C41.7693 223.059 40.6516 224.177 40.6516 225.556C40.6516 226.935 41.7693 228.052 43.1481 228.052Z" fill="white"/>
<path opacity="0.4" d="M43.1481 217.65C44.5268 217.65 45.6445 216.532 45.6445 215.154C45.6445 213.775 44.5268 212.657 43.1481 212.657C41.7693 212.657 40.6516 213.775 40.6516 215.154C40.6516 216.532 41.7693 217.65 43.1481 217.65Z" fill="white"/>
<path opacity="0.4" d="M43.1481 207.248C44.5268 207.248 45.6445 206.131 45.6445 204.752C45.6445 203.373 44.5268 202.255 43.1481 202.255C41.7693 202.255 40.6516 203.373 40.6516 204.752C40.6516 206.131 41.7693 207.248 43.1481 207.248Z" fill="white"/>
<path opacity="0.4" d="M43.1481 196.847C44.5268 196.847 45.6445 195.729 45.6445 194.35C45.6445 192.971 44.5268 191.854 43.1481 191.854C41.7693 191.854 40.6516 192.971 40.6516 194.35C40.6516 195.729 41.7693 196.847 43.1481 196.847Z" fill="white"/>
<path opacity="0.4" d="M43.1481 186.445C44.5268 186.445 45.6445 185.327 45.6445 183.948C45.6445 182.57 44.5268 181.452 43.1481 181.452C41.7693 181.452 40.6516 182.57 40.6516 183.948C40.6516 185.327 41.7693 186.445 43.1481 186.445Z" fill="white"/>
<path opacity="0.4" d="M43.1481 176.043C44.5268 176.043 45.6445 174.925 45.6445 173.546C45.6445 172.168 44.5268 171.05 43.1481 171.05C41.7693 171.05 40.6516 172.168 40.6516 173.546C40.6516 174.925 41.7693 176.043 43.1481 176.043Z" fill="white"/>
<path opacity="0.4" d="M43.1481 165.641C44.5268 165.641 45.6445 164.523 45.6445 163.145C45.6445 161.766 44.5268 160.648 43.1481 160.648C41.7693 160.648 40.6516 161.766 40.6516 163.145C40.6516 164.523 41.7693 165.641 43.1481 165.641Z" fill="white"/>
<path opacity="0.4" d="M51.0536 228.052C52.4323 228.052 53.55 226.935 53.55 225.556C53.55 224.177 52.4323 223.059 51.0536 223.059C49.6748 223.059 48.5571 224.177 48.5571 225.556C48.5571 226.935 49.6748 228.052 51.0536 228.052Z" fill="white"/>
<path opacity="0.4" d="M51.0536 217.65C52.4323 217.65 53.55 216.532 53.55 215.154C53.55 213.775 52.4323 212.657 51.0536 212.657C49.6748 212.657 48.5571 213.775 48.5571 215.154C48.5571 216.532 49.6748 217.65 51.0536 217.65Z" fill="white"/>
<path opacity="0.4" d="M58.9588 228.052C60.3376 228.052 61.4553 226.935 61.4553 225.556C61.4553 224.177 60.3376 223.059 58.9588 223.059C57.5801 223.059 56.4624 224.177 56.4624 225.556C56.4624 226.935 57.5801 228.052 58.9588 228.052Z" fill="white"/>
<path opacity="0.4" d="M58.9588 217.65C60.3376 217.65 61.4553 216.532 61.4553 215.154C61.4553 213.775 60.3376 212.657 58.9588 212.657C57.5801 212.657 56.4624 213.775 56.4624 215.154C56.4624 216.532 57.5801 217.65 58.9588 217.65Z" fill="white"/>
<path opacity="0.4" d="M58.9588 207.248C60.3376 207.248 61.4553 206.131 61.4553 204.752C61.4553 203.373 60.3376 202.255 58.9588 202.255C57.5801 202.255 56.4624 203.373 56.4624 204.752C56.4624 206.131 57.5801 207.248 58.9588 207.248Z" fill="white"/>
<path opacity="0.4" d="M51.0536 207.248C52.4323 207.248 53.55 206.131 53.55 204.752C53.55 203.373 52.4323 202.255 51.0536 202.255C49.6748 202.255 48.5571 203.373 48.5571 204.752C48.5571 206.131 49.6748 207.248 51.0536 207.248Z" fill="white"/>
<path opacity="0.4" d="M51.0536 196.847C52.4323 196.847 53.55 195.729 53.55 194.35C53.55 192.971 52.4323 191.854 51.0536 191.854C49.6748 191.854 48.5571 192.971 48.5571 194.35C48.5571 195.729 49.6748 196.847 51.0536 196.847Z" fill="white"/>
<path opacity="0.4" d="M51.0536 186.445C52.4323 186.445 53.55 185.327 53.55 183.948C53.55 182.57 52.4323 181.452 51.0536 181.452C49.6748 181.452 48.5571 182.57 48.5571 183.948C48.5571 185.327 49.6748 186.445 51.0536 186.445Z" fill="white"/>
<path opacity="0.4" d="M51.0536 176.043C52.4323 176.043 53.55 174.925 53.55 173.546C53.55 172.168 52.4323 171.05 51.0536 171.05C49.6748 171.05 48.5571 172.168 48.5571 173.546C48.5571 174.925 49.6748 176.043 51.0536 176.043Z" fill="white"/>
<path opacity="0.4" d="M51.0536 165.641C52.4323 165.641 53.55 164.523 53.55 163.145C53.55 161.766 52.4323 160.648 51.0536 160.648C49.6748 160.648 48.5571 161.766 48.5571 163.145C48.5571 164.523 49.6748 165.641 51.0536 165.641Z" fill="white"/>
</g>
<path d="M262.469 55.8713H81.9116C81.0248 55.8722 80.1746 56.2068 79.5475 56.8018C78.9205 57.3968 78.5678 58.2035 78.5669 59.0449V205.539C78.5678 206.38 78.9205 207.187 79.5475 207.782C80.1746 208.377 81.0248 208.712 81.9116 208.712H262.469C263.356 208.712 264.206 208.377 264.833 207.782C265.46 207.187 265.813 206.38 265.814 205.539V59.0449C265.813 58.2035 265.46 57.3968 264.833 56.8018C264.206 56.2068 263.356 55.8722 262.469 55.8713ZM264.473 205.539C264.473 206.044 264.262 206.528 263.886 206.886C263.511 207.243 263.001 207.445 262.469 207.447H81.9116C81.3792 207.446 80.8689 207.244 80.4931 206.887C80.1172 206.529 79.9065 206.044 79.9073 205.539V59.0449C79.9065 58.5397 80.1172 58.055 80.4931 57.6972C80.8689 57.3394 81.3792 57.138 81.9116 57.1372H262.469C263.001 57.139 263.511 57.3408 263.886 57.6983C264.262 58.0558 264.473 58.54 264.473 59.0449V205.539Z" fill="#3F3D56"/>
<path d="M262.469 55.8713H81.9116C81.0248 55.8722 80.1746 56.2068 79.5475 56.8018C78.9205 57.3968 78.5678 58.2035 78.5669 59.0449V205.539C78.5678 206.38 78.9205 207.187 79.5475 207.782C80.1746 208.377 81.0248 208.712 81.9116 208.712H262.469C263.356 208.712 264.206 208.377 264.833 207.782C265.46 207.187 265.813 206.38 265.814 205.539V59.0449C265.813 58.2035 265.46 57.3968 264.833 56.8018C264.206 56.2068 263.356 55.8722 262.469 55.8713ZM264.473 205.539C264.473 206.044 264.262 206.528 263.886 206.886C263.511 207.243 263.001 207.445 262.469 207.447H81.9116C81.3792 207.446 80.8689 207.244 80.4931 206.887C80.1172 206.529 79.9065 206.044 79.9073 205.539V59.0449C79.9065 58.5397 80.1172 58.055 80.4931 57.6972C80.8689 57.3394 81.3792 57.138 81.9116 57.1372H262.469C263.001 57.139 263.511 57.3408 263.886 57.6983C264.262 58.0558 264.473 58.54 264.473 59.0449V205.539Z" fill="#3F3D56"/>
<path d="M287.061 155.399H121.221C120.095 155.398 119.015 154.95 118.219 154.153C117.422 153.357 116.974 152.277 116.973 151.151V78.372C116.974 77.2458 117.422 76.166 118.219 75.3695C119.015 74.5731 120.095 74.1251 121.221 74.1238H287.061C288.187 74.1251 289.267 74.5731 290.063 75.3695C290.86 76.166 291.308 77.2458 291.309 78.372V151.151C291.308 152.277 290.86 153.357 290.063 154.153C289.267 154.95 288.187 155.398 287.061 155.399V155.399ZM121.221 75.6145C120.49 75.6154 119.789 75.9062 119.272 76.4231C118.755 76.9401 118.465 77.641 118.464 78.372V151.151C118.465 151.882 118.755 152.583 119.272 153.1C119.789 153.617 120.49 153.908 121.221 153.909H287.061C287.792 153.908 288.493 153.617 289.01 153.1C289.527 152.583 289.817 151.882 289.818 151.151V78.372C289.817 77.641 289.527 76.9401 289.01 76.4231C288.493 75.9062 287.792 75.6154 287.061 75.6145H121.221Z" fill="white"/>
<path d="M287.061 155.399H121.221C120.095 155.398 119.015 154.95 118.219 154.153C117.422 153.357 116.974 152.277 116.973 151.151V78.372C116.974 77.2458 117.422 76.166 118.219 75.3695C119.015 74.5731 120.095 74.1251 121.221 74.1238H287.061C288.187 74.1251 289.267 74.5731 290.063 75.3695C290.86 76.166 291.308 77.2458 291.309 78.372V151.151C291.308 152.277 290.86 153.357 290.063 154.153C289.267 154.95 288.187 155.398 287.061 155.399V155.399ZM121.221 75.6145C120.49 75.6154 119.789 75.9062 119.272 76.4231C118.755 76.9401 118.465 77.641 118.464 78.372V151.151C118.465 151.882 118.755 152.583 119.272 153.1C119.789 153.617 120.49 153.908 121.221 153.909H287.061C287.792 153.908 288.493 153.617 289.01 153.1C289.527 152.583 289.817 151.882 289.818 151.151V78.372C289.817 77.641 289.527 76.9401 289.01 76.4231C288.493 75.9062 287.792 75.6154 287.061 75.6145H121.221Z" fill="white"/>
<path d="M154.994 100.668C154.441 100.668 153.911 100.888 153.52 101.279C153.129 101.67 152.909 102.2 152.909 102.753C152.909 103.306 153.129 103.837 153.52 104.228C153.911 104.619 154.441 104.838 154.994 104.838H253.287C253.84 104.838 254.371 104.619 254.762 104.228C255.153 103.837 255.372 103.306 255.372 102.753C255.372 102.2 255.153 101.67 254.762 101.279C254.371 100.888 253.84 100.668 253.287 100.668H154.994Z" fill="white"/>
<path d="M154.994 112.75C154.441 112.75 153.911 112.969 153.52 113.36C153.129 113.751 152.909 114.282 152.909 114.835C152.909 115.388 153.129 115.918 153.52 116.309C153.911 116.7 154.441 116.92 154.994 116.92H253.287C253.84 116.919 254.369 116.699 254.76 116.308C255.15 115.917 255.369 115.387 255.369 114.835C255.369 114.282 255.15 113.752 254.76 113.362C254.369 112.971 253.84 112.751 253.287 112.75H154.994Z" fill="white"/>
<path d="M154.994 124.685C154.441 124.685 153.911 124.904 153.52 125.295C153.129 125.686 152.909 126.217 152.909 126.77C152.909 127.323 153.129 127.853 153.52 128.244C153.911 128.635 154.441 128.855 154.994 128.855H197.29C197.843 128.854 198.372 128.634 198.762 128.243C199.153 127.852 199.372 127.322 199.372 126.77C199.372 126.217 199.153 125.687 198.762 125.296C198.372 124.905 197.843 124.685 197.29 124.685H154.994Z" fill="white"/>
<path d="M144.566 230.695C144.37 230.694 144.176 230.733 143.995 230.807C143.815 230.882 143.65 230.992 143.512 231.13C143.373 231.268 143.263 231.432 143.188 231.613C143.113 231.794 143.075 231.988 143.075 232.183C143.075 232.379 143.113 232.573 143.188 232.754C143.263 232.934 143.373 233.099 143.512 233.237C143.65 233.375 143.815 233.485 143.995 233.559C144.176 233.634 144.37 233.672 144.566 233.672H214.737C215.132 233.672 215.511 233.515 215.79 233.236C216.069 232.957 216.226 232.578 216.226 232.183C216.226 231.789 216.069 231.41 215.79 231.131C215.511 230.852 215.132 230.695 214.737 230.695H144.566Z" fill="white"/>
<path d="M144.566 230.695C144.37 230.694 144.176 230.733 143.995 230.807C143.815 230.882 143.65 230.992 143.512 231.13C143.373 231.268 143.263 231.432 143.188 231.613C143.113 231.794 143.075 231.988 143.075 232.183C143.075 232.379 143.113 232.573 143.188 232.754C143.263 232.934 143.373 233.099 143.512 233.237C143.65 233.375 143.815 233.485 143.995 233.559C144.176 233.634 144.37 233.672 144.566 233.672H214.737C215.132 233.672 215.511 233.515 215.79 233.236C216.069 232.957 216.226 232.578 216.226 232.183C216.226 231.789 216.069 231.41 215.79 231.131C215.511 230.852 215.132 230.695 214.737 230.695H144.566Z" fill="white"/>
<path d="M144.566 239.626C144.37 239.626 144.176 239.664 143.995 239.738C143.815 239.813 143.65 239.923 143.512 240.061C143.373 240.199 143.263 240.363 143.188 240.544C143.113 240.725 143.075 240.919 143.075 241.114C143.075 241.31 143.113 241.504 143.188 241.685C143.263 241.865 143.373 242.03 143.512 242.168C143.65 242.306 143.815 242.416 143.995 242.49C144.176 242.565 144.37 242.603 144.566 242.603H174.761C175.156 242.603 175.534 242.446 175.813 242.167C176.093 241.888 176.249 241.509 176.249 241.114C176.249 240.72 176.093 240.341 175.813 240.062C175.534 239.783 175.156 239.626 174.761 239.626H144.566Z" fill="white"/>
<path d="M144.566 239.626C144.37 239.626 144.176 239.664 143.995 239.738C143.815 239.813 143.65 239.923 143.512 240.061C143.373 240.199 143.263 240.363 143.188 240.544C143.113 240.725 143.075 240.919 143.075 241.114C143.075 241.31 143.113 241.504 143.188 241.685C143.263 241.865 143.373 242.03 143.512 242.168C143.65 242.306 143.815 242.416 143.995 242.49C144.176 242.565 144.37 242.603 144.566 242.603H174.761C175.156 242.603 175.534 242.446 175.813 242.167C176.093 241.888 176.249 241.509 176.249 241.114C176.249 240.72 176.093 240.341 175.813 240.062C175.534 239.783 175.156 239.626 174.761 239.626H144.566Z" fill="white"/>
<path d="M399.674 150.02H452.294C452.875 150.021 453.432 150.252 453.843 150.663C454.254 151.074 454.485 151.631 454.486 152.212V207.013C454.485 207.594 454.254 208.152 453.843 208.563C453.432 208.974 452.875 209.205 452.294 209.206H399.674C399.093 209.205 398.536 208.974 398.125 208.563C397.714 208.152 397.483 207.594 397.482 207.013V152.212C397.483 151.631 397.714 151.074 398.125 150.663C398.536 150.252 399.093 150.021 399.674 150.02V150.02ZM452.294 208.329C452.642 208.328 452.977 208.19 453.223 207.943C453.47 207.696 453.609 207.362 453.609 207.013V152.212C453.609 151.864 453.47 151.529 453.223 151.283C452.977 151.036 452.642 150.897 452.294 150.897H399.674C399.326 150.897 398.991 151.036 398.745 151.283C398.498 151.529 398.359 151.864 398.359 152.212V207.013C398.359 207.362 398.498 207.696 398.745 207.943C398.991 208.19 399.326 208.328 399.674 208.329H452.294Z" fill="#3F3D56"/>
<path d="M441.082 197.905C441.476 197.905 441.855 197.748 442.134 197.469C442.413 197.19 442.57 196.811 442.57 196.416C442.57 196.022 442.413 195.643 442.134 195.364C441.855 195.085 441.476 194.928 441.082 194.928H410.887C410.492 194.928 410.113 195.085 409.834 195.364C409.555 195.643 409.398 196.022 409.398 196.416C409.398 196.811 409.555 197.19 409.834 197.469C410.113 197.748 410.492 197.905 410.887 197.905H441.082Z" fill="white"/>
<path d="M441.082 189.135C441.277 189.135 441.471 189.097 441.652 189.022C441.833 188.948 441.997 188.838 442.136 188.7C442.274 188.562 442.384 188.397 442.459 188.217C442.534 188.036 442.573 187.842 442.573 187.646C442.573 187.451 442.534 187.257 442.459 187.076C442.384 186.895 442.274 186.731 442.136 186.593C441.997 186.455 441.833 186.345 441.652 186.27C441.471 186.196 441.277 186.158 441.082 186.158H410.887C410.691 186.158 410.497 186.196 410.316 186.27C410.135 186.345 409.971 186.455 409.832 186.593C409.694 186.731 409.584 186.895 409.509 187.076C409.434 187.257 409.396 187.451 409.396 187.646C409.396 187.842 409.434 188.036 409.509 188.217C409.584 188.397 409.694 188.562 409.832 188.7C409.971 188.838 410.135 188.948 410.316 189.022C410.497 189.097 410.691 189.135 410.887 189.135H441.082Z" fill="white"/>
<path d="M437.287 157.765C439.14 157.765 440.952 158.315 442.493 159.344C444.033 160.374 445.234 161.837 445.943 163.549C446.653 165.261 446.838 167.145 446.477 168.962C446.115 170.78 445.223 172.449 443.912 173.76C442.602 175.07 440.933 175.962 439.115 176.324C437.298 176.685 435.414 176.5 433.702 175.791C431.99 175.081 430.526 173.881 429.497 172.34C428.467 170.799 427.918 168.988 427.918 167.134C427.921 164.65 428.909 162.269 430.665 160.512C432.422 158.756 434.803 157.768 437.287 157.765Z" fill="white"/>
</g>
<path d="M418.186 249.756L381.179 240.074C378.384 239.18 375.507 241.017 374.703 244.141L374 246.903C373.209 250.065 374.833 253.318 377.596 254.228L413.48 268.4" fill="white"/>
<path d="M418.186 249.756L381.179 240.074C378.384 239.18 375.507 241.017 374.703 244.141L374 246.903C373.209 250.065 374.833 253.318 377.596 254.228L413.48 268.4" stroke="#6ED097" stroke-width="0.66165" stroke-miterlimit="10"/>
<path d="M372.716 226.765L377.88 224.599L381.838 236.662L376.674 238.828L372.716 226.765Z" fill="#231F20"/>
<path d="M364.736 193.9C367.78 192.623 371.091 192.396 374.25 193.247C377.409 194.098 380.273 195.989 382.482 198.682C384.69 201.374 386.143 204.746 386.656 208.373C387.17 211.999 386.721 215.716 385.367 219.054C384.013 222.392 381.814 225.2 379.048 227.125C376.283 229.049 373.075 230.003 369.83 229.865C366.585 229.728 363.449 228.505 360.819 226.352C358.189 224.198 356.182 221.211 355.053 217.768C354.303 215.482 353.958 213.051 354.039 210.614C354.12 208.177 354.624 205.782 355.523 203.566C356.423 201.349 357.699 199.355 359.28 197.697C360.86 196.038 362.715 194.748 364.736 193.9V193.9ZM374.74 224.401C377.03 223.441 379.017 221.734 380.449 219.496C381.881 217.259 382.695 214.591 382.786 211.831C382.878 209.07 382.244 206.341 380.964 203.989C379.684 201.636 377.816 199.765 375.596 198.613C373.376 197.462 370.904 197.08 368.493 197.517C366.081 197.955 363.838 199.191 362.048 201.07C360.258 202.949 359.001 205.386 358.435 208.073C357.87 210.761 358.021 213.577 358.871 216.167C360.011 219.638 362.323 222.456 365.298 224C368.274 225.544 371.67 225.688 374.74 224.401V224.401Z" fill="#24285B"/>
<path d="M376.079 235.13L380.161 233.418C381.409 232.894 382.795 233.614 383.258 235.025L388.322 250.459C388.785 251.87 388.149 253.438 386.901 253.961L382.819 255.674C381.571 256.197 380.185 255.478 379.722 254.067L374.658 238.632C374.195 237.222 374.831 235.654 376.079 235.13Z" fill="#24285B"/>
<path d="M464.07 339.727C464.07 339.727 479.443 309.621 493.475 298.681C504.308 290.221 513.62 276.159 513.336 263.469C513.259 259.881 511.401 256.73 508.409 257.43C506.578 257.868 505.237 259.677 505.108 261.894C504.463 273.213 483.673 297.281 469.177 302.561C452.953 308.483 455.352 341.798 455.352 341.798L464.07 339.727Z" fill="white" stroke="#6ED097" stroke-width="0.66165" stroke-miterlimit="10"/>
<path d="M395.123 304.078C395.123 331.88 415.062 354.43 439.643 354.43C464.225 354.43 484.163 331.88 484.163 304.078C484.163 290.892 479.082 265.074 471.782 245.82C463.657 224.465 452.643 210.258 439.721 210.258C426.514 210.258 417.1 224.961 408.923 246.87C401.881 265.803 395.123 291.183 395.123 304.078Z" fill="white" stroke="#6ED097" stroke-width="0.66165" stroke-miterlimit="10"/>
<path d="M468.661 238.264C469.745 240.656 470.776 243.165 471.782 245.791C479.082 265.045 484.163 290.863 484.163 304.049C484.163 304.545 484.163 305.041 484.138 305.537C477.87 300.11 471.86 285.582 469.177 267.758C467.526 256.701 467.449 246.316 468.661 238.264Z" fill="#6ED097"/>
<path d="M403.197 202.673L435.826 188.757L413.205 166.119C412.405 165.332 411.141 165.769 410.883 166.936L403.197 202.673Z" fill="white" stroke="#6ED097" stroke-width="0.66165" stroke-miterlimit="10"/>
<path d="M426.746 186.891L415.861 176.009C415.088 175.251 413.901 175.659 413.643 176.797L409.929 194.067L426.746 186.891Z" fill="#484848"/>
<path d="M399.586 208.828C399.586 226.74 407.659 251.041 439.824 251.012C473.433 250.983 480.062 226.74 480.062 208.828C480.062 190.916 461.826 179.276 439.592 179.276C417.358 179.276 399.586 190.916 399.586 208.828Z" fill="white" stroke="#6ED097" stroke-width="0.66165" stroke-miterlimit="10"/>
<path d="M435.365 241.445C447.875 241.445 456.851 237.71 462.036 230.359C466.859 223.532 467.865 214.46 467.865 208.012C467.865 201.186 463.377 196.606 459.611 193.951C453.421 189.604 444.702 187.212 435.107 187.212C425.564 187.212 416.974 189.604 410.887 193.922C405.548 197.744 402.839 202.47 402.839 208.012C402.839 213.088 403.665 222.716 409.133 230.271C414.524 237.681 423.319 241.445 435.262 241.445H435.365Z" fill="#484848"/>
<path d="M418.799 266.061L383.975 248.936C381.375 247.469 378.254 248.678 376.957 251.619L375.835 254.197C374.539 257.138 375.608 260.669 378.208 262.135L411.192 283.435" fill="white"/>
<path d="M418.799 266.061L383.975 248.936C381.375 247.469 378.254 248.678 376.957 251.619L375.835 254.197C374.539 257.138 375.608 260.669 378.208 262.135L411.192 283.435" stroke="#6ED097" stroke-width="0.66165" stroke-miterlimit="10"/>
<path d="M506.294 284.707C505.03 286.662 503.612 288.529 502.116 290.308L493.088 283.569C494.635 281.761 496.106 279.923 497.447 278.085L506.294 284.707Z" fill="#6ED097"/>
<path d="M511.375 274.643C510.602 276.831 509.596 279.019 508.435 281.148L499.356 275.314C500.748 273.213 501.935 271.142 502.864 269.187L511.375 274.643Z" fill="#6ED097"/>
<path d="M435.258 214.296C432.729 214.296 430.678 210.835 430.678 206.566C430.678 202.296 432.729 198.835 435.258 198.835C437.787 198.835 439.837 202.296 439.837 206.566C439.837 210.835 437.787 214.296 435.258 214.296Z" fill="#6ED097"/>
<path d="M413.642 214.296C411.113 214.296 409.063 210.835 409.063 206.566C409.063 202.296 411.113 198.835 413.642 198.835C416.172 198.835 418.222 202.296 418.222 206.566C418.222 210.835 416.172 214.296 413.642 214.296Z" fill="#6ED097"/>
<path d="M451.537 186.177L475.334 194.333L471.387 168.859C471.251 167.962 470.361 167.593 469.765 168.182L451.537 186.177Z" fill="white" stroke="#6ED097" stroke-width="0.66165" stroke-miterlimit="10"/>
<path d="M467.478 175.569L458.848 185.346L470.454 189.339L469.134 176.242C469.044 175.28 468.085 174.879 467.478 175.569Z" fill="#484848"/>
<path d="M454.372 186.477L451.169 185.57L450.239 185.933L452.409 187.868L466.876 192.889L474.625 195.792L475.71 195.006L474.212 192.889L454.372 186.477Z" fill="white"/>
<path d="M125.827 274.442C125.827 303.219 102.354 326.561 73.4151 326.561C44.4763 326.561 21.0034 303.219 21.0034 274.442C21.0034 260.793 26.9855 234.07 35.5791 214.14C45.1444 192.037 58.1106 177.331 73.324 177.331C88.8713 177.331 99.9549 192.55 109.581 215.227C117.871 234.825 125.827 261.095 125.827 274.442Z" fill="white"/>
<path d="M35.5791 214.14L35.2755 214.009L35.2753 214.009L35.5791 214.14ZM109.581 215.227L109.886 215.098L109.885 215.098L109.581 215.227ZM125.496 274.442C125.496 303.035 102.173 326.23 73.4151 326.23V326.892C102.535 326.892 126.158 303.404 126.158 274.442H125.496ZM73.4151 326.23C44.6573 326.23 21.3342 303.035 21.3342 274.442H20.6726C20.6726 303.404 44.2953 326.892 73.4151 326.892V326.23ZM21.3342 274.442C21.3342 260.85 27.3017 234.172 35.8829 214.271L35.2753 214.009C26.6693 233.968 20.6726 260.736 20.6726 274.442H21.3342ZM35.8827 214.272C40.656 203.241 46.2691 194.079 52.5693 187.679C58.8677 181.281 65.8328 177.662 73.324 177.662V177C65.6018 177 58.477 180.734 52.0977 187.215C45.7201 193.693 40.0674 202.936 35.2755 214.009L35.8827 214.272ZM73.324 177.662C80.9746 177.662 87.5491 181.402 93.426 187.995C99.3078 194.595 104.468 204.03 109.276 215.357L109.885 215.098C105.067 203.748 99.8732 194.235 93.9199 187.555C87.9617 180.87 81.2207 177 73.324 177V177.662ZM109.276 215.356C113.416 225.142 117.473 236.597 120.494 247.269C123.518 257.949 125.496 267.817 125.496 274.442H126.158C126.158 267.721 124.157 257.779 121.131 247.089C118.102 236.389 114.036 224.909 109.886 215.098L109.276 215.356Z" fill="#6ED097"/>
<path d="M125.827 274.442C125.827 303.219 102.354 326.561 73.4151 326.561C44.4763 326.561 21.0034 303.219 21.0034 274.442C21.0034 260.793 26.9855 234.07 35.5791 214.14C45.1444 192.037 58.1106 177.331 73.324 177.331C88.8713 177.331 99.9549 192.55 109.581 215.227C117.871 234.825 125.827 261.095 125.827 274.442Z" fill="white"/>
<path d="M35.5791 214.14L35.2755 214.009L35.2753 214.009L35.5791 214.14ZM109.581 215.227L109.886 215.098L109.885 215.098L109.581 215.227ZM125.496 274.442C125.496 303.035 102.173 326.23 73.4151 326.23V326.892C102.535 326.892 126.158 303.404 126.158 274.442H125.496ZM73.4151 326.23C44.6573 326.23 21.3342 303.035 21.3342 274.442H20.6726C20.6726 303.404 44.2953 326.892 73.4151 326.892V326.23ZM21.3342 274.442C21.3342 260.85 27.3017 234.172 35.8829 214.271L35.2753 214.009C26.6693 233.968 20.6726 260.736 20.6726 274.442H21.3342ZM35.8827 214.272C40.656 203.241 46.2691 194.079 52.5693 187.679C58.8677 181.281 65.8328 177.662 73.324 177.662V177C65.6018 177 58.477 180.734 52.0977 187.215C45.7201 193.693 40.0674 202.936 35.2755 214.009L35.8827 214.272ZM73.324 177.662C80.9746 177.662 87.5491 181.402 93.426 187.995C99.3078 194.595 104.468 204.03 109.276 215.357L109.885 215.098C105.067 203.748 99.8732 194.235 93.9199 187.555C87.9617 180.87 81.2207 177 73.324 177V177.662ZM109.276 215.356C113.416 225.142 117.473 236.597 120.494 247.269C123.518 257.949 125.496 267.817 125.496 274.442H126.158C126.158 267.721 124.157 257.779 121.131 247.089C118.102 236.389 114.036 224.909 109.886 215.098L109.276 215.356Z" fill="#6ED097"/>
<path d="M66.0144 160.937L29.4622 164.039L41.9176 134.443C42.3518 133.399 43.7357 133.207 44.4412 134.086L66.0144 160.937Z" fill="white" stroke="#6ED097" stroke-width="0.66165" stroke-miterlimit="10"/>
<path d="M66.0144 160.937L29.4622 164.039L41.9176 134.443C42.3518 133.399 43.7357 133.207 44.4412 134.086L66.0144 160.937Z" fill="white" stroke="#6ED097" stroke-width="0.66165" stroke-miterlimit="10"/>
<path d="M45.802 142.047L56.3475 156.721L37.3162 158.3L43.0558 142.401C43.4677 141.23 45.0605 141.012 45.802 142.047Z" fill="#484848"/>
<path d="M45.802 142.047L56.3475 156.721L37.3162 158.3L43.0558 142.401C43.4677 141.23 45.0605 141.012 45.802 142.047Z" fill="#484848"/>
<path d="M108.306 167.06L73.8687 154.091L97.7436 132.994C98.5875 132.259 99.9215 132.667 100.194 133.755L108.306 167.06Z" fill="white" stroke="#6ED097" stroke-width="0.66165" stroke-miterlimit="10"/>
<path d="M108.306 167.06L73.8687 154.091L97.7436 132.994C98.5875 132.259 99.9215 132.667 100.194 133.755L108.306 167.06Z" fill="white" stroke="#6ED097" stroke-width="0.66165" stroke-miterlimit="10"/>
<path d="M83.5352 152.506L95.0709 142.348C95.891 141.64 97.1484 142.021 97.4218 143.083L101.358 159.206L83.5352 152.506Z" fill="#484848"/>
<path d="M83.5352 152.506L95.0709 142.348C95.891 141.64 97.1484 142.021 97.4218 143.083L101.358 159.206L83.5352 152.506Z" fill="#484848"/>
<path d="M112.233 172.937C112.233 189.682 103.687 212.4 69.6396 212.373C34.0627 212.346 27.0457 189.682 27.0457 172.937C27.0457 156.192 46.3494 145.31 69.8853 145.31C93.4212 145.31 112.233 156.192 112.233 172.937Z" fill="white" stroke="#6ED097" stroke-width="0.66165" stroke-miterlimit="10"/>
<path d="M112.233 172.937C112.233 189.682 103.687 212.4 69.6396 212.373C34.0627 212.346 27.0457 189.682 27.0457 172.937C27.0457 156.192 46.3494 145.31 69.8853 145.31C93.4212 145.31 112.233 156.192 112.233 172.937Z" fill="white" stroke="#6ED097" stroke-width="0.66165" stroke-miterlimit="10"/>
<path d="M69.4746 204.217C56.2823 204.217 46.8164 200.722 41.349 193.843C36.2625 187.455 35.2017 178.964 35.2017 172.931C35.2017 166.543 39.9346 162.257 43.9059 159.773C50.4341 155.705 59.628 153.467 69.7466 153.467C79.8109 153.467 88.8688 155.705 95.2882 159.745C100.919 163.322 103.775 167.744 103.775 172.931C103.775 177.681 102.904 186.69 97.1378 193.761C91.4529 200.695 82.1774 204.217 69.5835 204.217H69.4746Z" fill="#484848"/>
<path d="M69.4746 204.217C56.2823 204.217 46.8164 200.722 41.349 193.843C36.2625 187.455 35.2017 178.964 35.2017 172.931C35.2017 166.543 39.9346 162.257 43.9059 159.773C50.4341 155.705 59.628 153.467 69.7466 153.467C79.8109 153.467 88.8688 155.705 95.2882 159.745C100.919 163.322 103.775 167.744 103.775 172.931C103.775 177.681 102.904 186.69 97.1378 193.761C91.4529 200.695 82.1774 204.217 69.5835 204.217H69.4746Z" fill="#484848"/>
<path d="M62.9934 184.279C62.9934 184.279 64.3167 193.611 68.7996 189.001C69.2587 188.554 69.9878 188.554 70.4199 189.029C71.7972 190.482 74.5788 192.242 75.983 184.838" stroke="#6ED097" stroke-width="1.3233" stroke-miterlimit="10" stroke-linecap="round"/>
<path d="M62.9934 184.279C62.9934 184.279 64.3167 193.611 68.7996 189.001C69.2587 188.554 69.9878 188.554 70.4199 189.029C71.7972 190.482 74.5788 192.242 75.983 184.838" stroke="#6ED097" stroke-width="1.3233" stroke-miterlimit="10" stroke-linecap="round"/>
<path d="M56.7583 179.039C59.7713 179.039 62.2138 175.803 62.2138 171.811C62.2138 167.818 59.7713 164.582 56.7583 164.582C53.7453 164.582 51.3027 167.818 51.3027 171.811C51.3027 175.803 53.7453 179.039 56.7583 179.039Z" fill="#6ED097"/>
<path d="M82.5083 179.039C85.5213 179.039 87.9638 175.803 87.9638 171.811C87.9638 167.819 85.5213 164.582 82.5083 164.582C79.4953 164.582 77.0527 167.819 77.0527 171.811C77.0527 175.803 79.4953 179.039 82.5083 179.039Z" fill="#6ED097"/>
<path d="M56.7583 179.039C59.7713 179.039 62.2138 175.803 62.2138 171.811C62.2138 167.818 59.7713 164.582 56.7583 164.582C53.7453 164.582 51.3027 167.818 51.3027 171.811C51.3027 175.803 53.7453 179.039 56.7583 179.039Z" fill="#6ED097"/>
<path d="M82.5083 179.039C85.5213 179.039 87.9638 175.803 87.9638 171.811C87.9638 167.819 85.5213 164.582 82.5083 164.582C79.4953 164.582 77.0527 167.819 77.0527 171.811C77.0527 175.803 79.4953 179.039 82.5083 179.039Z" fill="#6ED097"/>
<path d="M398.161 258.335H314.866C314.34 258.336 313.836 258.546 313.464 258.917C313.092 259.289 312.882 259.793 312.881 260.318V347.651C312.882 348.176 313.092 348.68 313.464 349.051C313.836 349.423 314.34 349.632 314.866 349.634H398.161C398.688 349.632 399.192 349.423 399.564 349.051C399.936 348.68 400.145 348.176 400.147 347.651V260.318C400.145 259.793 399.936 259.289 399.564 258.917C399.192 258.546 398.688 258.336 398.161 258.335V258.335Z" fill="#E6E6E6"/>
<path d="M396.176 260.814H316.851C316.457 260.815 316.079 260.973 315.8 261.251C315.521 261.53 315.364 261.907 315.362 262.301V345.667C315.363 346.062 315.521 346.439 315.8 346.718C316.079 346.997 316.457 347.154 316.851 347.155H396.176C396.57 347.154 396.949 346.997 397.228 346.718C397.506 346.439 397.664 346.062 397.665 345.667V262.301C397.664 261.907 397.506 261.53 397.228 261.251C396.949 260.972 396.57 260.815 396.176 260.814Z" fill="white"/>
<path d="M390.29 281.902C390.517 281.902 390.734 281.992 390.894 282.152C391.055 282.312 391.145 282.529 391.145 282.756V284.464C391.145 284.691 391.055 284.908 390.894 285.068C390.734 285.228 390.517 285.318 390.29 285.318H322.738C322.626 285.318 322.514 285.296 322.411 285.253C322.307 285.21 322.213 285.148 322.133 285.068C322.054 284.989 321.991 284.895 321.948 284.791C321.905 284.687 321.883 284.576 321.883 284.464V282.756C321.883 282.644 321.905 282.533 321.948 282.429C321.991 282.325 322.054 282.231 322.133 282.152C322.213 282.073 322.307 282.01 322.411 281.967C322.514 281.924 322.626 281.902 322.738 281.902H390.29" fill="#E6E6E6"/>
<path d="M390.29 290.016C390.517 290.016 390.734 290.106 390.894 290.266C391.055 290.426 391.145 290.644 391.145 290.87V292.579C391.145 292.805 391.055 293.022 390.894 293.182C390.734 293.343 390.517 293.433 390.29 293.433H322.738C322.626 293.433 322.514 293.411 322.411 293.368C322.307 293.325 322.213 293.262 322.133 293.182C322.054 293.103 321.991 293.009 321.948 292.905C321.905 292.802 321.883 292.691 321.883 292.579V290.87C321.883 290.758 321.905 290.647 321.948 290.543C321.991 290.44 322.054 290.346 322.133 290.266C322.213 290.187 322.307 290.124 322.411 290.081C322.514 290.038 322.626 290.016 322.738 290.016H390.29" fill="#E6E6E6"/>
<path d="M390.29 298.13C390.517 298.13 390.734 298.22 390.894 298.381C391.055 298.541 391.145 298.758 391.145 298.984V300.693C391.145 300.919 391.055 301.137 390.894 301.297C390.734 301.457 390.517 301.547 390.29 301.547H322.738C322.511 301.547 322.294 301.457 322.133 301.297C321.973 301.137 321.883 300.919 321.883 300.693V298.984C321.883 298.758 321.973 298.541 322.133 298.381C322.294 298.22 322.511 298.13 322.738 298.13H390.29Z" fill="#EA6C1E"/>
<path d="M390.29 306.422C390.517 306.422 390.734 306.512 390.894 306.673C391.055 306.833 391.145 307.05 391.145 307.276V308.985C391.145 309.211 391.055 309.429 390.894 309.589C390.734 309.749 390.517 309.839 390.29 309.839H322.738C322.626 309.839 322.514 309.817 322.411 309.774C322.307 309.731 322.213 309.668 322.133 309.589C322.054 309.509 321.991 309.415 321.948 309.312C321.905 309.208 321.883 309.097 321.883 308.985V307.277C321.883 307.164 321.905 307.053 321.948 306.95C321.991 306.846 322.054 306.752 322.133 306.673C322.213 306.593 322.307 306.53 322.411 306.487C322.514 306.444 322.626 306.422 322.738 306.422H390.29" fill="#E6E6E6"/>
<path d="M390.29 314.537C390.517 314.537 390.734 314.627 390.894 314.787C391.055 314.947 391.145 315.164 391.145 315.391V317.099C391.145 317.326 391.055 317.543 390.894 317.703C390.734 317.863 390.517 317.953 390.29 317.953H322.738C322.626 317.953 322.514 317.931 322.411 317.888C322.307 317.845 322.213 317.782 322.133 317.703C322.054 317.624 321.991 317.53 321.948 317.426C321.905 317.322 321.883 317.211 321.883 317.099V315.391C321.883 315.279 321.905 315.168 321.948 315.064C321.991 314.96 322.054 314.866 322.133 314.787C322.213 314.707 322.307 314.645 322.411 314.602C322.514 314.559 322.626 314.537 322.738 314.537H390.29Z" fill="#E6E6E6"/>
<path d="M390.29 322.651C390.517 322.651 390.734 322.741 390.894 322.901C391.055 323.061 391.145 323.278 391.145 323.505V325.213C391.145 325.44 391.055 325.657 390.894 325.817C390.734 325.977 390.517 326.067 390.29 326.067H322.738C322.511 326.067 322.294 325.977 322.133 325.817C321.973 325.657 321.883 325.44 321.883 325.213V323.505C321.883 323.278 321.973 323.061 322.133 322.901C322.294 322.741 322.511 322.651 322.738 322.651H390.29Z" fill="#E6E6E6"/>
<path d="M115.745 258.831H32.4502C31.9248 258.835 31.422 259.045 31.0505 259.416C30.679 259.787 30.4686 260.289 30.4648 260.814V348.147C30.4664 348.672 30.676 349.176 31.048 349.547C31.42 349.919 31.9241 350.128 32.4502 350.13H115.745C116.272 350.128 116.776 349.919 117.148 349.547C117.52 349.176 117.729 348.672 117.731 348.147V260.814C117.729 260.289 117.52 259.785 117.148 259.414C116.776 259.042 116.272 258.833 115.745 258.831Z" fill="#E6E6E6"/>
<path d="M115.745 258.831H32.4502C31.9248 258.835 31.422 259.045 31.0505 259.416C30.679 259.787 30.4686 260.289 30.4648 260.814V348.147C30.4664 348.672 30.676 349.176 31.048 349.547C31.42 349.919 31.9241 350.128 32.4502 350.13H115.745C116.272 350.128 116.776 349.919 117.148 349.547C117.52 349.176 117.729 348.672 117.731 348.147V260.814C117.729 260.289 117.52 259.785 117.148 259.414C116.776 259.042 116.272 258.833 115.745 258.831Z" fill="#E6E6E6"/>
<path d="M113.76 261.31H34.4358C34.0412 261.311 33.6632 261.468 33.3842 261.747C33.1052 262.026 32.9479 262.403 32.9468 262.797V346.164C32.9479 346.558 33.1052 346.935 33.3842 347.214C33.6632 347.493 34.0412 347.65 34.4358 347.651H113.76C114.155 347.65 114.533 347.493 114.812 347.214C115.091 346.935 115.248 346.558 115.249 346.164V262.797C115.248 262.403 115.091 262.026 114.812 261.747C114.533 261.468 114.155 261.311 113.76 261.31V261.31Z" fill="white"/>
<path d="M113.76 261.31H34.4358C34.0412 261.311 33.6632 261.468 33.3842 261.747C33.1052 262.026 32.9479 262.403 32.9468 262.797V346.164C32.9479 346.558 33.1052 346.935 33.3842 347.214C33.6632 347.493 34.0412 347.65 34.4358 347.651H113.76C114.155 347.65 114.533 347.493 114.812 347.214C115.091 346.935 115.248 346.558 115.249 346.164V262.797C115.248 262.403 115.091 262.026 114.812 261.747C114.533 261.468 114.155 261.311 113.76 261.31V261.31Z" fill="white"/>
<path d="M107.874 281.937C108.101 281.937 108.318 282.027 108.478 282.187C108.639 282.347 108.729 282.565 108.729 282.791V284.499C108.729 284.726 108.639 284.943 108.478 285.103C108.318 285.264 108.101 285.354 107.874 285.354H40.3219C40.2096 285.354 40.0984 285.331 39.9947 285.289C39.8909 285.246 39.7966 285.183 39.7172 285.103C39.6378 285.024 39.5749 284.93 39.5319 284.826C39.4889 284.723 39.4668 284.612 39.4668 284.499V282.791C39.4668 282.679 39.4889 282.568 39.5319 282.464C39.5749 282.361 39.6378 282.266 39.7172 282.187C39.7966 282.108 39.8909 282.045 39.9947 282.002C40.0984 281.959 40.2096 281.937 40.3219 281.937H107.874Z" fill="#E6E6E6"/>
<path d="M107.874 281.937C108.101 281.937 108.318 282.027 108.478 282.187C108.639 282.347 108.729 282.565 108.729 282.791V284.499C108.729 284.726 108.639 284.943 108.478 285.103C108.318 285.264 108.101 285.354 107.874 285.354H40.3219C40.2096 285.354 40.0984 285.331 39.9947 285.289C39.8909 285.246 39.7966 285.183 39.7172 285.103C39.6378 285.024 39.5749 284.93 39.5319 284.826C39.4889 284.723 39.4668 284.612 39.4668 284.499V282.791C39.4668 282.679 39.4889 282.568 39.5319 282.464C39.5749 282.361 39.6378 282.266 39.7172 282.187C39.7966 282.108 39.8909 282.045 39.9947 282.002C40.0984 281.959 40.2096 281.937 40.3219 281.937H107.874Z" fill="#E6E6E6"/>
<path d="M107.874 290.051C108.101 290.051 108.318 290.141 108.478 290.301C108.639 290.462 108.729 290.679 108.729 290.905V292.614C108.729 292.84 108.639 293.057 108.478 293.218C108.318 293.378 108.101 293.468 107.874 293.468H40.3219C40.2096 293.468 40.0984 293.446 39.9947 293.403C39.8909 293.36 39.7966 293.297 39.7172 293.218C39.6378 293.138 39.5749 293.044 39.5319 292.941C39.4889 292.837 39.4668 292.726 39.4668 292.614V290.905C39.4668 290.793 39.4889 290.682 39.5319 290.579C39.5749 290.475 39.6378 290.381 39.7172 290.301C39.7966 290.222 39.8909 290.159 39.9947 290.116C40.0984 290.073 40.2096 290.051 40.3219 290.051H107.874Z" fill="#E6E6E6"/>
<path d="M107.874 290.051C108.101 290.051 108.318 290.141 108.478 290.301C108.639 290.462 108.729 290.679 108.729 290.905V292.614C108.729 292.84 108.639 293.057 108.478 293.218C108.318 293.378 108.101 293.468 107.874 293.468H40.3219C40.2096 293.468 40.0984 293.446 39.9947 293.403C39.8909 293.36 39.7966 293.297 39.7172 293.218C39.6378 293.138 39.5749 293.044 39.5319 292.941C39.4889 292.837 39.4668 292.726 39.4668 292.614V290.905C39.4668 290.793 39.4889 290.682 39.5319 290.579C39.5749 290.475 39.6378 290.381 39.7172 290.301C39.7966 290.222 39.8909 290.159 39.9947 290.116C40.0984 290.073 40.2096 290.051 40.3219 290.051H107.874Z" fill="#E6E6E6"/>
<path d="M107.874 298.166C108.101 298.166 108.318 298.256 108.478 298.416C108.639 298.576 108.729 298.793 108.729 299.02V300.728C108.729 300.954 108.639 301.172 108.478 301.332C108.318 301.492 108.101 301.582 107.874 301.582H40.3219C40.0951 301.582 39.8776 301.492 39.7172 301.332C39.5569 301.172 39.4668 300.954 39.4668 300.728V299.02C39.4668 298.793 39.5569 298.576 39.7172 298.416C39.8776 298.256 40.0951 298.166 40.3219 298.166H107.874" fill="#EA6C1E"/>
<path d="M107.874 298.166C108.101 298.166 108.318 298.256 108.478 298.416C108.639 298.576 108.729 298.793 108.729 299.02V300.728C108.729 300.954 108.639 301.172 108.478 301.332C108.318 301.492 108.101 301.582 107.874 301.582H40.3219C40.0951 301.582 39.8776 301.492 39.7172 301.332C39.5569 301.172 39.4668 300.954 39.4668 300.728V299.02C39.4668 298.793 39.5569 298.576 39.7172 298.416C39.8776 298.256 40.0951 298.166 40.3219 298.166H107.874" fill="#EA6C1E"/>
<path d="M107.874 306.458C108.101 306.458 108.318 306.548 108.478 306.708C108.639 306.868 108.729 307.085 108.729 307.312V309.02C108.729 309.246 108.639 309.464 108.478 309.624C108.318 309.784 108.101 309.874 107.874 309.874H40.3219C40.2096 309.874 40.0984 309.852 39.9947 309.809C39.8909 309.766 39.7966 309.703 39.7172 309.624C39.6378 309.545 39.5749 309.45 39.5319 309.347C39.4889 309.243 39.4668 309.132 39.4668 309.02V307.312C39.4668 307.199 39.4889 307.088 39.5319 306.985C39.5749 306.881 39.6378 306.787 39.7172 306.708C39.7966 306.628 39.8909 306.565 39.9947 306.523C40.0984 306.48 40.2096 306.458 40.3219 306.458H107.874Z" fill="#E6E6E6"/>
<path d="M107.874 306.458C108.101 306.458 108.318 306.548 108.478 306.708C108.639 306.868 108.729 307.085 108.729 307.312V309.02C108.729 309.246 108.639 309.464 108.478 309.624C108.318 309.784 108.101 309.874 107.874 309.874H40.3219C40.2096 309.874 40.0984 309.852 39.9947 309.809C39.8909 309.766 39.7966 309.703 39.7172 309.624C39.6378 309.545 39.5749 309.45 39.5319 309.347C39.4889 309.243 39.4668 309.132 39.4668 309.02V307.312C39.4668 307.199 39.4889 307.088 39.5319 306.985C39.5749 306.881 39.6378 306.787 39.7172 306.708C39.7966 306.628 39.8909 306.565 39.9947 306.523C40.0984 306.48 40.2096 306.458 40.3219 306.458H107.874Z" fill="#E6E6E6"/>
<path d="M107.874 314.572C108.101 314.572 108.318 314.662 108.478 314.822C108.639 314.982 108.729 315.199 108.729 315.426V317.134C108.729 317.361 108.639 317.578 108.478 317.738C108.318 317.898 108.101 317.988 107.874 317.988H40.3219C40.2096 317.988 40.0984 317.966 39.9947 317.923C39.8909 317.88 39.7966 317.817 39.7172 317.738C39.6378 317.659 39.5749 317.565 39.5319 317.461C39.4889 317.357 39.4668 317.246 39.4668 317.134V315.426C39.4668 315.314 39.4889 315.203 39.5319 315.099C39.5749 314.995 39.6378 314.901 39.7172 314.822C39.7966 314.743 39.8909 314.68 39.9947 314.637C40.0984 314.594 40.2096 314.572 40.3219 314.572H107.874" fill="#E6E6E6"/>
<path d="M107.874 314.572C108.101 314.572 108.318 314.662 108.478 314.822C108.639 314.982 108.729 315.199 108.729 315.426V317.134C108.729 317.361 108.639 317.578 108.478 317.738C108.318 317.898 108.101 317.988 107.874 317.988H40.3219C40.2096 317.988 40.0984 317.966 39.9947 317.923C39.8909 317.88 39.7966 317.817 39.7172 317.738C39.6378 317.659 39.5749 317.565 39.5319 317.461C39.4889 317.357 39.4668 317.246 39.4668 317.134V315.426C39.4668 315.314 39.4889 315.203 39.5319 315.099C39.5749 314.995 39.6378 314.901 39.7172 314.822C39.7966 314.743 39.8909 314.68 39.9947 314.637C40.0984 314.594 40.2096 314.572 40.3219 314.572H107.874" fill="#E6E6E6"/>
<path d="M107.874 322.686C108.101 322.686 108.318 322.776 108.478 322.936C108.639 323.096 108.729 323.314 108.729 323.54V325.248C108.729 325.475 108.639 325.692 108.478 325.852C108.318 326.013 108.101 326.103 107.874 326.103H40.3219C40.0951 326.103 39.8776 326.013 39.7172 325.852C39.5569 325.692 39.4668 325.475 39.4668 325.248V323.54C39.4668 323.314 39.5569 323.096 39.7172 322.936C39.8776 322.776 40.0951 322.686 40.3219 322.686H107.874Z" fill="#E6E6E6"/>
<path d="M107.874 322.686C108.101 322.686 108.318 322.776 108.478 322.936C108.639 323.096 108.729 323.314 108.729 323.54V325.248C108.729 325.475 108.639 325.692 108.478 325.852C108.318 326.013 108.101 326.103 107.874 326.103H40.3219C40.0951 326.103 39.8776 326.013 39.7172 325.852C39.5569 325.692 39.4668 325.475 39.4668 325.248V323.54C39.4668 323.314 39.5569 323.096 39.7172 322.936C39.8776 322.776 40.0951 322.686 40.3219 322.686H107.874Z" fill="#E6E6E6"/>
<path d="M276.45 200.031H193.154C192.628 200.032 192.123 200.241 191.751 200.613C191.379 200.985 191.17 201.489 191.169 202.014V347.661C191.17 348.186 191.38 348.69 191.752 349.062C192.124 349.433 192.628 349.643 193.154 349.644H276.45C276.976 349.643 277.48 349.433 277.852 349.062C278.224 348.69 278.433 348.186 278.435 347.661V202.014C278.434 201.489 278.225 200.985 277.853 200.613C277.48 200.241 276.976 200.032 276.45 200.031V200.031Z" fill="#E6E6E6"/>
<path d="M275.918 203.68C275.878 203.503 275.808 203.333 275.71 203.179C275.573 202.974 275.388 202.806 275.171 202.689C274.954 202.572 274.711 202.511 274.464 202.51H195.14C194.745 202.51 194.366 202.667 194.087 202.946C193.808 203.225 193.651 203.603 193.651 203.997V345.678C193.652 346.072 193.809 346.449 194.088 346.728C194.367 347.007 194.745 347.164 195.14 347.165H274.464C274.859 347.164 275.237 347.007 275.516 346.728C275.795 346.449 275.952 346.072 275.953 345.678V203.997C275.954 203.891 275.943 203.784 275.918 203.68V203.68Z" fill="white"/>
<path d="M268.578 279.458C268.805 279.458 269.022 279.548 269.183 279.708C269.343 279.868 269.433 280.086 269.433 280.312V282.02C269.433 282.247 269.343 282.464 269.183 282.624C269.022 282.785 268.805 282.875 268.578 282.875H201.026C200.914 282.875 200.803 282.852 200.699 282.81C200.595 282.767 200.501 282.704 200.421 282.624C200.342 282.545 200.279 282.451 200.236 282.347C200.193 282.244 200.171 282.133 200.171 282.02V280.312C200.171 280.2 200.193 280.089 200.236 279.985C200.279 279.882 200.342 279.787 200.421 279.708C200.501 279.629 200.595 279.566 200.699 279.523C200.803 279.48 200.914 279.458 201.026 279.458H268.578Z" fill="#E6E6E6"/>
<path d="M268.578 287.572C268.805 287.572 269.022 287.662 269.183 287.822C269.343 287.983 269.433 288.2 269.433 288.426V290.135C269.433 290.361 269.343 290.578 269.183 290.739C269.022 290.899 268.805 290.989 268.578 290.989H201.026C200.914 290.989 200.803 290.967 200.699 290.924C200.595 290.881 200.501 290.818 200.421 290.739C200.342 290.659 200.279 290.565 200.236 290.462C200.193 290.358 200.171 290.247 200.171 290.135V288.426C200.171 288.314 200.193 288.203 200.236 288.1C200.279 287.996 200.342 287.902 200.421 287.822C200.501 287.743 200.595 287.68 200.699 287.637C200.803 287.594 200.914 287.572 201.026 287.572H268.578Z" fill="#E6E6E6"/>
<path d="M268.578 295.687C268.805 295.687 269.022 295.777 269.183 295.937C269.343 296.097 269.433 296.315 269.433 296.541V298.249C269.433 298.476 269.343 298.693 269.183 298.853C269.022 299.014 268.805 299.104 268.578 299.104H201.026C200.799 299.104 200.582 299.014 200.421 298.853C200.261 298.693 200.171 298.476 200.171 298.249V296.541C200.171 296.315 200.261 296.097 200.421 295.937C200.582 295.777 200.799 295.687 201.026 295.687H268.578Z" fill="#0F8346"/>
<path d="M268.578 303.979C268.805 303.979 269.022 304.069 269.183 304.229C269.343 304.389 269.433 304.606 269.433 304.833V306.541C269.433 306.767 269.343 306.985 269.183 307.145C269.022 307.305 268.805 307.395 268.578 307.395H201.026C200.914 307.395 200.803 307.373 200.699 307.33C200.595 307.287 200.501 307.224 200.421 307.145C200.342 307.066 200.279 306.971 200.236 306.868C200.193 306.764 200.171 306.653 200.171 306.541V304.833C200.171 304.72 200.193 304.609 200.236 304.506C200.279 304.402 200.342 304.308 200.421 304.229C200.501 304.149 200.595 304.086 200.699 304.044C200.803 304.001 200.914 303.979 201.026 303.979H268.578" fill="#E6E6E6"/>
<path d="M268.578 312.093C268.805 312.093 269.022 312.183 269.183 312.343C269.343 312.503 269.433 312.72 269.433 312.947V314.655C269.433 314.882 269.343 315.099 269.183 315.259C269.022 315.419 268.805 315.509 268.578 315.509H201.026C200.914 315.509 200.803 315.487 200.699 315.444C200.595 315.401 200.501 315.338 200.421 315.259C200.342 315.18 200.279 315.086 200.236 314.982C200.193 314.878 200.171 314.767 200.171 314.655V312.947C200.171 312.835 200.193 312.724 200.236 312.62C200.279 312.516 200.342 312.422 200.421 312.343C200.501 312.264 200.595 312.201 200.699 312.158C200.803 312.115 200.914 312.093 201.026 312.093H268.578Z" fill="#E6E6E6"/>
<path d="M268.578 320.207C268.805 320.207 269.022 320.297 269.183 320.457C269.343 320.617 269.433 320.835 269.433 321.061V322.769C269.433 322.996 269.343 323.213 269.183 323.373C269.022 323.534 268.805 323.624 268.578 323.624H201.026C200.799 323.624 200.582 323.534 200.421 323.373C200.261 323.213 200.171 322.996 200.171 322.769V321.061C200.171 320.835 200.261 320.617 200.421 320.457C200.582 320.297 200.799 320.207 201.026 320.207H268.578Z" fill="#E6E6E6"/>
<path d="M201.515 216.12C201.252 216.121 201 216.225 200.814 216.411C200.627 216.597 200.523 216.849 200.522 217.112V263.178C200.523 263.441 200.627 263.693 200.814 263.879C201 264.065 201.252 264.169 201.515 264.17H268.089C268.352 264.169 268.605 264.065 268.791 263.879C268.977 263.693 269.082 263.441 269.082 263.178V217.112C269.082 216.849 268.977 216.597 268.791 216.411C268.605 216.225 268.352 216.121 268.089 216.12H201.515Z" fill="#0F8346"/>
<path d="M304.905 180.345C306.714 181.112 308.513 181.964 310.251 182.875L310.712 181.997C308.951 181.073 307.127 180.21 305.294 179.432L304.905 180.345Z" fill="#0F8346"/>
<path d="M325.46 192.213L324.798 192.953C326.262 194.26 327.689 195.645 329.039 197.069L329.759 196.387C328.391 194.944 326.944 193.54 325.46 192.213Z" fill="#0F8346"/>
<path d="M315.372 185.834C317.03 186.885 318.666 188.017 320.231 189.2L320.83 188.409C319.243 187.21 317.585 186.062 315.903 184.996L315.372 185.834Z" fill="#0F8346"/>
<path d="M293.692 176.626C295.602 177.092 297.514 177.641 299.374 178.258L299.687 177.317C297.801 176.691 295.863 176.135 293.927 175.662L293.692 176.626Z" fill="#0F8346"/>
<path d="M348.16 233.375L347.18 233.532C347.49 235.464 347.72 237.437 347.864 239.395L348.853 239.323C348.708 237.336 348.475 235.335 348.16 233.375Z" fill="#0F8346"/>
<path d="M344.303 222.094C344.944 223.946 345.512 225.849 345.99 227.751L346.953 227.51C346.468 225.58 345.892 223.649 345.241 221.77L344.303 222.094Z" fill="#0F8346"/>
<path d="M339.496 211.324C340.447 213.041 341.334 214.818 342.132 216.606L343.039 216.202C342.229 214.389 341.329 212.586 340.364 210.844L339.496 211.324Z" fill="#0F8346"/>
<path d="M332.921 201.523C334.148 203.054 335.324 204.657 336.417 206.285L337.242 205.733C336.134 204.081 334.941 202.457 333.697 200.903L332.921 201.523Z" fill="#0F8346"/>
<path d="M284.768 169.702C282.516 171.49 278.941 173.111 276.077 174.026C278.846 175.198 282.258 177.138 284.338 179.123L283.006 174.844C284.644 174.996 286.284 175.199 287.896 175.457L288.053 174.478C286.403 174.214 284.724 174.006 283.047 173.852L284.768 169.702Z" fill="#0F8346"/>
<path d="M126.724 216.202L127.631 216.606C128.429 214.819 129.316 213.042 130.267 211.324L129.399 210.844C128.433 212.587 127.534 214.389 126.724 216.202Z" fill="#0E7740"/>
<path d="M126.724 216.202L127.631 216.606C128.429 214.819 129.316 213.042 130.267 211.324L129.399 210.844C128.433 212.587 127.534 214.389 126.724 216.202Z" fill="#0E7740"/>
<path d="M122.81 227.509L123.773 227.751C124.25 225.852 124.818 223.949 125.46 222.094L124.522 221.77C123.87 223.651 123.294 225.583 122.81 227.509Z" fill="#0E7740"/>
<path d="M122.81 227.509L123.773 227.751C124.25 225.852 124.818 223.949 125.46 222.094L124.522 221.77C123.87 223.651 123.294 225.583 122.81 227.509Z" fill="#0E7740"/>
<path d="M120.909 239.322L121.899 239.395C122.042 237.437 122.272 235.464 122.583 233.532L121.603 233.375C121.288 235.335 121.055 237.336 120.909 239.322Z" fill="#0E7740"/>
<path d="M120.909 239.322L121.899 239.395C122.042 237.437 122.272 235.464 122.583 233.532L121.603 233.375C121.288 235.335 121.055 237.336 120.909 239.322Z" fill="#0E7740"/>
<path d="M132.521 205.732L133.346 206.284C134.438 204.657 135.614 203.055 136.841 201.522L136.066 200.903C134.821 202.457 133.629 204.082 132.521 205.732Z" fill="#0E7740"/>
<path d="M132.521 205.732L133.346 206.284C134.438 204.657 135.614 203.055 136.841 201.522L136.066 200.903C134.821 202.457 133.629 204.082 132.521 205.732Z" fill="#0E7740"/>
<path d="M159.051 181.997L159.512 182.875C161.252 181.963 163.05 181.112 164.857 180.345L164.469 179.432C162.637 180.21 160.814 181.073 159.051 181.997Z" fill="#0E7740"/>
<path d="M170.076 177.317L170.389 178.258C172.249 177.641 174.161 177.091 176.071 176.626L175.835 175.662C173.899 176.134 171.961 176.691 170.076 177.317Z" fill="#0E7740"/>
<path d="M140.003 196.387L140.724 197.069C142.073 195.646 143.5 194.261 144.965 192.953L144.303 192.213C142.817 193.54 141.371 194.945 140.003 196.387Z" fill="#0E7740"/>
<path d="M140.003 196.387L140.724 197.069C142.073 195.646 143.5 194.261 144.965 192.953L144.303 192.213C142.817 193.54 141.371 194.945 140.003 196.387Z" fill="#0E7740"/>
<path d="M148.933 188.408L149.531 189.2C151.098 188.017 152.733 186.884 154.392 185.834L153.86 184.996C152.179 186.061 150.521 187.209 148.933 188.408Z" fill="#0E7740"/>
<path d="M148.933 188.408L149.531 189.2C151.098 188.017 152.733 186.884 154.392 185.834L153.86 184.996C152.179 186.061 150.521 187.209 148.933 188.408Z" fill="#0E7740"/>
<path d="M193.686 174.025C190.822 173.11 187.246 171.488 184.994 169.701L186.715 173.852C185.039 174.006 183.36 174.214 181.71 174.478L181.867 175.457C183.479 175.199 185.119 174.995 186.757 174.844L185.425 179.122C187.504 177.137 190.917 175.197 193.686 174.025Z" fill="#0E7740"/>
<path d="M234.802 189.395C231.759 189.395 228.784 188.494 226.254 186.805C223.723 185.116 221.751 182.716 220.587 179.907C219.422 177.099 219.117 174.009 219.711 171.027C220.305 168.046 221.77 165.307 223.922 163.158C226.074 161.008 228.816 159.545 231.8 158.952C234.785 158.359 237.879 158.663 240.69 159.826C243.502 160.989 245.905 162.959 247.595 165.487C249.286 168.014 250.188 170.986 250.188 174.026C250.184 178.1 248.561 182.007 245.677 184.888C242.792 187.77 238.881 189.39 234.802 189.395V189.395ZM234.802 159.648C231.955 159.648 229.172 160.491 226.805 162.071C224.438 163.651 222.593 165.896 221.504 168.523C220.414 171.151 220.129 174.042 220.685 176.831C221.24 179.62 222.611 182.181 224.624 184.192C226.637 186.203 229.202 187.572 231.994 188.127C234.786 188.682 237.68 188.397 240.31 187.309C242.94 186.221 245.188 184.378 246.77 182.013C248.352 179.649 249.196 176.869 249.196 174.026C249.191 170.214 247.674 166.559 244.975 163.864C242.277 161.168 238.618 159.652 234.802 159.648V159.648Z" fill="#EA6C1E"/>
<path d="M236.291 166.589H233.313V181.462H236.291V166.589Z" fill="#EA6C1E"/>
<path d="M242.247 175.513V172.538H227.357V175.513H242.247Z" fill="#EA6C1E"/>
<path d="M104.486 229.713L109.161 256.797C109.672 258.814 107.518 261.389 104.378 262.582L101.603 263.63C98.4283 264.819 95.4737 264.144 94.943 262.156L85.761 236.76" fill="white"/>
<path d="M104.486 229.713L109.161 256.797C109.672 258.814 107.518 261.389 104.378 262.582L101.603 263.63C98.4283 264.819 95.4737 264.144 94.943 262.156L85.761 236.76" stroke="#6ED097" stroke-width="0.66165" stroke-miterlimit="10"/>
<path d="M104.486 229.713L109.161 256.797C109.672 258.814 107.518 261.389 104.378 262.582L101.603 263.63C98.4283 264.819 95.4737 264.144 94.943 262.156L85.761 236.76" fill="white"/>
<path d="M104.486 229.713L109.161 256.797C109.672 258.814 107.518 261.389 104.378 262.582L101.603 263.63C98.4283 264.819 95.4737 264.144 94.943 262.156L85.761 236.76" stroke="#6ED097" stroke-width="0.66165" stroke-miterlimit="10"/>
<path d="M62.3477 232.676L49.1234 262.523C48.273 264.881 45.0834 265.662 41.9776 264.302L39.2652 263.103C36.1593 261.743 34.3707 258.752 35.2212 256.394L44.0367 224.616" fill="white"/>
<path d="M62.3477 232.676L49.1234 262.523C48.273 264.881 45.0834 265.662 41.9776 264.302L39.2652 263.103C36.1593 261.743 34.3707 258.752 35.2212 256.394L44.0367 224.616" stroke="#6ED097" stroke-width="0.66165" stroke-miterlimit="10"/>
<path d="M62.3477 232.676L49.1234 262.523C48.273 264.881 45.0834 265.662 41.9776 264.302L39.2652 263.103C36.1593 261.743 34.3707 258.752 35.2212 256.394L44.0367 224.616" fill="white"/>
<path d="M62.3477 232.676L49.1234 262.523C48.273 264.881 45.0834 265.662 41.9776 264.302L39.2652 263.103C36.1593 261.743 34.3707 258.752 35.2212 256.394L44.0367 224.616" stroke="#6ED097" stroke-width="0.66165" stroke-miterlimit="10"/>
<path d="M424.61 231.208L428.621 223.269H420.599L424.61 231.208Z" fill="#6ED097"/>
<defs>
<clipPath id="clip0">
<rect width="486.974" height="243.229" fill="white" transform="translate(0.492188 39.3298)"/>
</clipPath>
</defs>
</svg>
