<svg width="97" height="97" viewBox="0 0 97 97" fill="none" xmlns="http://www.w3.org/2000/svg">
<g clip-path="url(#clip0)">
<path d="M20.5367 0H24.8942V4.31953H28.9106V0H33.268V13.0723H28.9106V8.71484H24.9321V13.0723H20.5367V0ZM39.0274 4.35742H35.1815V0H47.2496V4.35742H43.3848V13.0723H39.0274V4.35742ZM49.1631 0H53.7289L56.5328 4.60371L59.3367 0H63.9026V13.0723H59.5451V6.59297L56.4949 11.2914L53.4447 6.59297V13.0723H49.1631V0ZM66.0623 0H70.4197V8.75273H76.5959V13.0723H66.0623" fill="#177751"/>
<path d="M20.3851 89.2325L14.1332 19.0591H82.8668L76.6148 89.1946L48.4431 97.0001" fill="#31B057"/>
<path d="M48.5 91.0322V24.8184H76.5959L71.2344 84.6855" fill="#41B783"/>
<path d="M26.9023 33.4006H48.5V42.0018H36.3371L37.1328 50.8114H48.5V59.3936H29.2516L26.9023 33.4006ZM29.6305 63.7131H38.2695L38.8758 70.5903L48.5 73.1668V82.1469L30.843 77.2211" fill="#EBEBEB"/>
<path d="M70.0219 33.4006H48.4622V42.0018H69.2262L70.0219 33.4006ZM68.4495 50.8114H48.4622V59.4125H59.0715L58.0674 70.5903L48.4622 73.1668V82.109L66.0813 77.2211" fill="white"/>
</g>
<defs>
<clipPath id="clip0">
<rect width="97" height="97" fill="white"/>
</clipPath>
</defs>
</svg>
