<svg width="92" height="125" viewBox="0 0 92 125" fill="none" xmlns="http://www.w3.org/2000/svg">
<path d="M29.6678 96.6304C29.6678 96.6304 24.9246 99.4033 33.0434 100.342C42.879 101.47 47.9059 101.308 58.7448 99.2455C58.7448 99.2455 61.5945 101.042 65.5742 102.598C41.2762 113.066 10.583 101.991 29.6678 96.6304Z" fill="#31B057"/>
<path d="M26.6988 82.9692C26.6988 82.9692 21.3788 86.928 29.5036 87.7728C40.0103 88.8624 48.3077 88.9515 62.6654 86.1723C62.6654 86.1723 64.6513 88.1962 67.7739 89.303C38.3961 97.9388 5.67457 89.984 26.6988 82.9692Z" fill="#31B057"/>
<path d="M51.7292 59.7957C57.7162 66.7251 50.1561 72.9606 50.1561 72.9606C50.1561 72.9606 65.3582 65.0714 58.3766 55.1923C51.856 45.9794 46.8555 41.4019 73.9259 25.6191C73.9259 25.6191 31.4343 36.2876 51.7292 59.7957Z" fill="#177751"/>
<path d="M83.8652 106.735C83.8652 106.735 87.3753 109.642 79.9996 111.891C65.9744 116.162 21.6254 117.452 9.30542 112.061C4.87671 110.125 13.1818 107.437 15.7943 106.873C18.5188 106.279 20.0758 106.389 20.0758 106.389C15.1506 102.902 -11.7586 113.238 6.40725 116.198C55.9481 124.275 96.7155 112.561 83.8652 106.735Z" fill="#31B057"/>
<path d="M31.9488 68.8152C31.9488 68.8152 9.3901 74.2016 23.9602 76.1576C30.1122 76.9856 42.376 76.7983 53.7993 75.8361C63.1352 75.0444 72.5095 73.3612 72.5095 73.3612C72.5095 73.3612 69.2175 74.7784 66.8359 76.4132C43.9279 82.4698 -0.326103 79.6522 12.4141 73.457C23.1884 68.2213 31.9488 68.8152 31.9488 68.8152Z" fill="#31B057"/>
<path d="M72.4164 91.5542C95.7034 79.3895 84.9364 67.6993 77.4212 69.2743C75.5792 69.6597 74.7579 69.9936 74.7579 69.9936C74.7579 69.9936 75.4417 68.9168 76.7478 68.4506C91.6153 63.1961 103.049 83.9482 71.9484 92.1673C71.9484 92.1676 72.3087 91.8437 72.4164 91.5542Z" fill="#31B057"/>
<path d="M58.3765 0.134277C58.3765 0.134277 71.2732 13.1034 46.1445 33.0464C25.9938 49.044 41.5495 58.1654 46.1361 68.587C34.3739 57.9186 25.7419 48.5271 31.5329 39.7864C40.0327 26.9558 63.58 20.735 58.3765 0.134277Z" fill="#177751"/>
<path d="M34.2371 124.518C56.5898 125.956 90.9148 123.72 91.7278 113.087C91.7278 113.087 90.1651 117.118 73.2545 120.319C54.176 123.928 30.6454 123.507 16.6892 121.194C16.6895 121.194 19.5462 123.571 34.2371 124.518Z" fill="#31B057"/>
</svg>
