<svg width="97" height="97" viewBox="0 0 97 97" fill="none" xmlns="http://www.w3.org/2000/svg">
<path d="M36.3454 59.8822L36.4917 59.9535L36.7524 60.0793C37.0851 60.2376 37.4208 60.3945 37.7595 60.5453L37.9725 60.64C38.3612 60.8106 38.7523 60.9727 39.1478 61.1288L39.4343 61.241C39.7996 61.3835 40.1709 61.5214 40.543 61.6525L40.6824 61.7002C41.0909 61.8427 41.5031 61.9753 41.9192 62.1049L42.2185 62.1936C42.6414 62.3216 43.0589 62.4739 43.4954 62.555C71.1965 67.6059 79.2422 45.9082 79.2422 45.9082C72.484 54.7124 60.4886 57.0351 49.1229 54.4495C48.6925 54.3525 48.2742 54.2176 47.8543 54.0933L47.5383 53.9978C47.1284 53.872 46.7207 53.7394 46.3167 53.6007L46.1493 53.5401C45.787 53.4128 45.4286 53.2779 45.0724 53.1407L44.7708 53.0225C44.3798 52.8687 43.9918 52.7073 43.6083 52.539L43.3757 52.436C43.046 52.2867 42.7194 52.1359 42.3951 51.9798L42.1109 51.8434C41.8563 51.7191 41.6039 51.5865 41.3523 51.4569L40.8461 51.1916C40.5392 51.0272 40.2376 50.8567 39.9375 50.6816L39.6306 50.5104C39.2312 50.2747 38.8364 50.0314 38.4461 49.7844L38.1271 49.5722C37.8436 49.3896 37.5617 49.2039 37.2844 49.0122L37.0131 48.8212C36.7448 48.6317 36.4796 48.44 36.2166 48.2453L35.8635 47.9778C35.6225 47.7936 35.3823 47.6079 35.1451 47.417L34.8245 47.1593C34.5229 46.9108 34.2243 46.6614 33.9288 46.4053L33.831 46.3227C33.5105 46.0438 33.1975 45.7566 32.8883 45.4686L32.6231 45.2133C32.3935 44.9958 32.1684 44.776 31.9463 44.5509L31.6811 44.2857C31.3992 43.997 31.1226 43.7044 30.8513 43.4081L30.8104 43.3642C30.5232 43.0505 30.2428 42.7299 29.9685 42.4063L29.7479 42.1441C29.5433 41.8978 29.3402 41.6478 29.1424 41.3954L28.9204 41.1196C28.6817 40.8104 28.449 40.5019 28.2209 40.1882C21.9114 31.581 19.644 19.7098 24.6873 9.96058L20.2169 15.6305C14.4886 23.8626 15.2025 34.5736 19.5773 43.3218L19.8979 43.9439L20.1033 44.338L20.2306 44.5646L20.4587 44.973C20.5943 45.2125 20.733 45.4505 20.8755 45.6884L21.1142 46.0817C21.2718 46.3363 21.4332 46.5879 21.5992 46.8395L21.8053 47.1593C22.0334 47.4988 22.2668 47.8383 22.507 48.1718L22.5275 48.1983L22.6457 48.3582C22.8541 48.6454 23.0686 48.9288 23.2853 49.2092L23.5263 49.5154C23.7195 49.7586 23.9173 50.0011 24.1174 50.2421L24.3432 50.5111C24.6122 50.8286 24.8866 51.1439 25.167 51.4523L25.1836 51.4698L25.2155 51.5046C25.4883 51.8032 25.7687 52.0942 26.0521 52.3867L26.3203 52.6572C26.5401 52.8785 26.7629 53.096 26.9887 53.3128L27.2623 53.5727C27.5632 53.8561 27.867 54.1342 28.1777 54.407L28.1929 54.4184L28.352 54.5548C28.6256 54.7912 28.9045 55.0269 29.1849 55.2581L29.5297 55.5324C29.7585 55.7158 29.9904 55.8969 30.2238 56.075L30.5944 56.3569C30.8521 56.5463 31.1112 56.7328 31.3727 56.9154L31.6569 57.117L31.7349 57.1723C31.9835 57.3436 32.2373 57.5073 32.4912 57.6717L32.8186 57.8899C33.2073 58.1362 33.6029 58.3795 34.0023 58.6144L34.3297 58.7993C34.6237 58.9683 34.9185 59.1343 35.2178 59.2964L35.7089 59.5511L36.3454 59.8822ZM39.1441 31.9985C39.7647 32.8882 40.452 33.9461 41.2758 34.6615C41.5744 34.9904 41.8866 35.3102 42.2049 35.6262L42.4504 35.8672C42.7603 36.1673 43.0748 36.462 43.3992 36.7492L43.4386 36.7826L43.4477 36.7924C43.8076 37.1077 44.179 37.4108 44.5564 37.7094L44.8087 37.9064C45.1876 38.1967 45.5733 38.4816 45.9689 38.7537L46.003 38.7787L46.532 39.1273L46.7836 39.294C47.0662 39.4743 47.3519 39.6517 47.6437 39.8199L47.7649 39.8904C48.0158 40.0351 48.2704 40.1776 48.525 40.3155L48.7948 40.4572L49.3268 40.7323L49.4071 40.7687C49.7724 40.9483 50.1407 41.1211 50.5165 41.2855L50.7613 41.3863C51.0614 41.5136 51.3653 41.6387 51.6699 41.7554L52.0594 41.8978C52.3368 42.0009 52.6142 42.0949 52.8946 42.1881L53.2727 42.3093C53.6713 42.4328 54.0646 42.589 54.4799 42.6579C75.8669 46.2022 80.8048 29.7342 80.8048 29.7342C76.3534 36.1445 67.734 39.2023 58.5357 36.8152C58.1272 36.7076 57.7241 36.5916 57.3247 36.4651L56.9602 36.3476C56.676 36.2559 56.3934 36.1582 56.113 36.0558L55.731 35.9134C55.4241 35.7952 55.1195 35.6732 54.8186 35.5458L54.5731 35.4413C54.1957 35.2768 53.8236 35.104 53.4576 34.9222L52.8976 34.6372L52.5748 34.4713C52.3368 34.3424 52.1004 34.2075 51.867 34.0719L51.698 33.9757C51.4077 33.8067 51.1228 33.6324 50.8401 33.4535L50.5817 33.28L50.027 32.9132C49.6322 32.6411 49.2487 32.357 48.8713 32.0682L48.6114 31.8629C44.5851 28.6854 41.394 24.3401 39.8761 19.4135C38.2862 14.3059 38.6287 8.57075 41.3834 3.91702L37.999 8.69579C33.8568 14.656 34.0819 22.6365 37.3132 28.9407C37.8543 29.9964 38.4628 31.0225 39.1441 31.9985ZM61.6867 24.6242L62.2179 24.8084L62.4521 24.8827C62.7044 24.9615 62.9538 25.0539 63.2137 25.1024C75.0227 27.3842 78.2267 19.0422 79.0792 17.8145C76.2731 21.8544 71.558 22.8237 65.7721 21.4195C65.3151 21.3088 64.8127 21.1444 64.3716 20.9875C63.8071 20.7859 63.2508 20.5571 62.7097 20.2979C61.6821 19.8038 60.7031 19.2059 59.7952 18.5193C54.6178 14.5901 51.4017 7.09756 54.78 0.994141L52.9522 3.51311C50.5105 7.10741 50.2703 11.5709 51.9647 15.5388C53.7516 19.7523 57.4134 23.0563 61.6867 24.6242ZM50.2877 72.9734H47.0852C46.9078 72.9734 46.7313 73.1159 46.6934 73.2895L45.5567 78.5487L44.4199 83.8079C44.3828 83.9814 44.2062 84.1239 44.0289 84.1239H41.7623C39.5199 84.1239 39.7791 82.5727 40.2383 80.4477L40.252 80.3833L40.302 80.1151L40.3111 80.0651L40.4134 79.5194L40.5233 78.9352L40.64 78.3403L41.1568 75.8152L41.6744 73.2902C41.71 73.1159 41.5933 72.9727 41.416 72.9727H38.1293C37.952 72.9727 37.7762 73.1152 37.7398 73.2895L37.0328 76.642L36.3265 79.9953L36.325 79.9999L36.2598 80.3121C35.4459 84.0276 35.6611 87.5719 40.0853 87.6833L40.2141 87.6856H47.1579C47.3352 87.6856 47.5118 87.5431 47.549 87.3696L49.0464 80.3303L50.5438 73.2902C50.581 73.1159 50.4658 72.9742 50.2877 72.9734ZM15.9921 72.9363H12.4759C12.2978 72.9363 12.1205 73.0788 12.0811 73.2516L11.7476 74.7232L11.4142 76.1949C11.3755 76.3684 11.4884 76.5102 11.6665 76.5102H15.2101C15.3881 76.5102 15.5647 76.3677 15.6026 76.1941L15.9247 74.7232L16.2467 73.2523C16.2839 73.0788 16.1702 72.9363 15.9921 72.9363ZM14.9721 77.5165H11.4278C11.2505 77.5165 11.0724 77.659 11.033 77.8318L10.5351 80.037L10.038 82.2415L9.89931 82.8735L9.42113 85.1242L8.94371 87.3757C8.90658 87.5492 8.83004 87.8296 8.7732 87.9978C8.7732 87.9978 8.11087 89.9681 6.99765 89.9454L6.85821 89.9424L5.89503 89.9249H5.89427C5.71694 89.9227 5.53886 90.0614 5.49718 90.2334L5.12964 91.7786L4.76286 93.323C4.72118 93.4958 4.83333 93.6382 5.0099 93.6413C5.64116 93.6488 7.05524 93.6648 7.91081 93.6648C10.6912 93.6648 12.1576 92.1241 13.0965 87.6909L14.1961 82.603L15.2275 77.831C15.2646 77.659 15.1494 77.5165 14.9721 77.5165ZM80.2326 76.3237L80.0856 75.7167L79.9409 75.0953L79.8674 74.7816C79.5794 73.6623 78.7344 73.0174 76.899 73.0174L74.0421 73.0144L71.4109 73.0106H68.4502C68.2728 73.0106 68.097 73.153 68.0599 73.3266L67.9288 73.945L67.7742 74.6755L67.731 74.8809L66.398 81.1252L65.1325 87.0528C65.0946 87.2271 65.0825 87.4408 65.1037 87.5272C65.1249 87.6144 65.4667 87.6856 65.644 87.6856H68.3145C68.4926 87.6856 68.7177 87.6538 68.8147 87.6144C68.9117 87.575 69.0549 87.2256 69.0905 87.0521L69.5649 84.7036L70.0401 82.3544L70.0408 82.3506L70.1045 82.0376L70.6804 79.3398L71.1889 76.9573C71.2268 76.7837 71.4018 76.642 71.5792 76.6413L79.9826 76.6375C80.1606 76.639 80.2728 76.4973 80.2326 76.3237ZM91.0504 70.8372L90.4032 70.8394H87.7138C87.5357 70.8394 87.3076 70.9599 87.2083 71.107L81.2602 79.8203C81.1602 79.9673 81.0458 79.9461 81.0064 79.7733L80.5684 77.8538C80.5289 77.6802 80.3509 77.5385 80.1728 77.5385H76.3496C76.1715 77.5385 76.0662 77.6779 76.1147 77.8484L77.8281 83.8511C77.8766 84.0224 77.8804 84.3027 77.8364 84.4755L77.09 87.3802C77.0453 87.553 77.1544 87.6932 77.3325 87.6932H81.1117C81.289 87.6932 81.4709 87.5522 81.5149 87.3802L82.2621 84.4755C82.306 84.302 82.4295 84.0458 82.5371 83.9034L92.1932 71.088C92.3008 70.9455 92.2424 70.8296 92.0651 70.8311L91.0504 70.8372ZM60.6727 78.3539V78.3509C60.6508 78.5434 60.4727 78.6851 60.2946 78.6851H55.4469C55.2786 78.6851 55.1938 78.5714 55.2188 78.4305L55.2233 78.4191L55.2203 78.4206L55.2226 78.4047L55.2445 78.3221C55.7076 77.0914 56.6503 76.2836 58.4228 76.2836C60.4189 76.2828 60.8084 77.2574 60.6727 78.3539ZM59.2503 72.7582C53.0279 72.7582 51.5532 76.5352 50.7257 80.3477C49.8989 84.2338 49.9694 87.866 56.4093 87.866H57.1898L57.3838 87.8652H57.4293L58.2023 87.8629H58.2159C59.9164 87.8561 61.6223 87.8432 62.3126 87.8379C62.4892 87.8349 62.662 87.6932 62.6984 87.5197L62.9591 86.2458L63.0098 85.998L63.3205 84.4778C63.3562 84.3043 63.2402 84.161 63.0621 84.161H57.2732C54.9702 84.161 54.2867 83.5495 54.539 81.7504H63.7927L63.7919 81.7512L63.798 81.7504C63.945 81.7482 64.0814 81.6466 64.1352 81.5117L64.1572 81.4314L64.1564 81.4322C65.5303 76.2495 65.1363 72.759 59.2503 72.7582ZM29.8396 78.3342L29.7517 78.6442V78.6449L29.053 81.1214L28.3543 83.5972C28.3066 83.7692 28.1209 83.9087 27.9428 83.9087H24.2447C21.4393 83.9087 20.7557 81.7141 21.4393 78.4782C22.1221 75.1681 23.4611 73.1106 26.2226 72.9022C29.9965 72.6173 30.7513 75.2711 29.8396 78.3342ZM32.3768 83.7185C32.3768 83.7185 34.1205 79.4838 34.5161 77.0391C35.0564 73.7661 33.4173 69.0177 27.0865 69.0177C20.7921 69.0177 18.0579 73.5501 17.0152 78.4782C15.9724 83.4419 17.3388 87.794 23.5975 87.7584L28.5354 87.7402L33.1498 87.7235C33.3271 87.722 33.509 87.581 33.5544 87.4098L34.3585 84.3437C34.4032 84.1709 34.2948 84.0299 34.1167 84.0284L33.346 84.0239L32.5753 84.0193C32.4245 84.0186 32.3381 83.92 32.3563 83.7905L32.3768 83.7185ZM63.538 80.8835C63.538 81.001 63.4433 81.0964 63.3258 81.0964C63.2091 81.0964 63.1137 81.001 63.1137 80.8835C63.1137 80.7668 63.2084 80.6721 63.3258 80.6721C63.4433 80.6721 63.538 80.7668 63.538 80.8835Z" fill="#31B057"/>
</svg>
