<svg width="97" height="97" viewBox="0 0 97 97" fill="none" xmlns="http://www.w3.org/2000/svg">
<path d="M97 0H0V97H97V0Z" fill="#31B057"/>
<path d="M65.1594 75.7817C67.1132 78.972 69.6553 81.3169 74.1511 81.3169C77.928 81.3169 80.3407 79.4292 80.3407 76.821C80.3407 73.6955 77.8618 72.5884 73.7046 70.7701L71.4259 69.7924C64.8484 66.9901 60.4788 63.4797 60.4788 56.0584C60.4788 49.2222 65.6875 44.0181 73.8278 44.0181C79.6232 44.0181 83.7895 46.0351 86.7919 51.3162L79.694 55.8736C78.1312 53.0714 76.4453 51.9674 73.8278 51.9674C71.158 51.9674 69.4659 53.6611 69.4659 55.8736C69.4659 58.6081 71.1595 59.7151 75.0703 61.4088L77.3491 62.3849C85.0937 65.706 89.4664 69.0918 89.4664 76.704C89.4664 84.9105 83.0197 89.4064 74.3621 89.4064C65.8969 89.4064 60.4279 85.3724 57.752 80.0851L65.1594 75.7817ZM32.96 76.5716C34.3919 79.1121 35.6945 81.2599 38.8262 81.2599C41.8209 81.2599 43.7101 80.0882 43.7101 75.5323V44.5385H52.825V75.6555C52.825 85.0937 47.2914 89.3894 39.2142 89.3894C31.9161 89.3894 27.6897 85.6126 25.5403 81.0636L32.96 76.5716Z" fill="white"/>
</svg>
