<svg width="1480" height="702" viewBox="0 0 1480 702" fill="none" xmlns="http://www.w3.org/2000/svg">
<g clip-path="url(#clip0)">
<path d="M336.538 16.7795L243 298L549 241.553L353.622 13.4307C348.563 7.52354 338.993 9.39944 336.538 16.7795Z" fill="white" stroke="#6ED097" stroke-width="4"/>
<path d="M356.134 99.0866L311.5 262L476.5 231.5L373.753 95.6954C368.747 89.079 358.326 91.0848 356.134 99.0866Z" fill="#484848"/>
<path d="M1138.46 16.7795L1232 298L926 241.553L1121.38 13.4307C1126.44 7.52354 1136.01 9.39944 1138.46 16.7795Z" fill="white" stroke="#6ED097" stroke-width="4"/>
<path d="M1118.87 99.0866L1163.5 262L998.5 231.5L1101.25 95.6954C1106.25 89.079 1116.67 91.0848 1118.87 99.0866Z" fill="#484848"/>
<path d="M1478 718.5C1478 874.737 1395.57 1016.32 1262.04 1118.9C1128.51 1221.49 943.943 1285 740 1285C536.057 1285 351.494 1221.49 217.959 1118.9C84.4266 1016.32 2 874.737 2 718.5C2 562.087 65.1261 420.535 188.838 318.05C312.578 215.543 497.085 152 740 152C989.426 152 1173.92 215.548 1296.03 318.042C1418.1 420.509 1478 562.055 1478 718.5Z" fill="white" stroke="#6ED097" stroke-width="4"/>
<path d="M1358 718.5C1358 980.559 1081.31 1193 740 1193C398.688 1193 122 980.559 122 718.5C122 456.441 333.707 244 740 244C1157.15 244 1358 456.441 1358 718.5Z" fill="#484848"/>
<ellipse cx="482" cy="692" rx="102" ry="154" fill="#6ED097"/>
<ellipse cx="999" cy="692" rx="102" ry="154" fill="#6ED097"/>
</g>
<defs>
<clipPath id="clip0">
<rect width="1480" height="702" fill="white"/>
</clipPath>
</defs>
</svg>
