<svg width="280" height="280" viewBox="0 0 280 280" fill="none" xmlns="http://www.w3.org/2000/svg">
<path d="M139.998 279.997C217.317 279.997 279.997 217.317 279.997 139.998C279.997 62.6794 217.317 0 139.998 0C62.6794 0 0 62.6794 0 139.998C0 217.317 62.6794 279.997 139.998 279.997Z" fill="#41B4E6"/>
<path d="M280 140.002C280 136.59 279.871 133.21 279.632 129.859L221.609 71.8375L58.3909 136.04L120.839 198.489L121.658 201.438L122.719 200.368L122.723 200.373L121.658 201.438L190.738 270.517C242.975 250.195 280 199.425 280 140.002Z" fill="#0091C8"/>
<path d="M126.404 160.398L189.672 208.166L221.609 71.8375L58.3904 136.04L108.056 152.491L198.697 91.6913L126.404 160.398Z" fill="white"/>
<path d="M108.056 152.491L121.658 201.438L126.404 160.398L198.697 91.6912L108.056 152.491Z" fill="#D2D2D7"/>
<path d="M146.966 175.923L121.658 201.438L126.404 160.398L146.966 175.923Z" fill="#B9B9BE"/>
</svg>
