<svg xmlns="http://www.w3.org/2000/svg" viewBox="0 0 1375 370"><defs><style>.cls-1{fill:none;}.cls-2{fill:#6fcf97;}.cls-3{fill:#484848;}.cls-4{fill:#d2d2d2;}.cls-5{fill:#aae1bd;}.cls-6{fill:#ada1a1;}.cls-7{fill:#aae6c9;}.cls-8{fill:#b4e3c2;}.cls-9{fill:#a39696;}.cls-10{fill:#b6ead1;}.cls-11{fill:#98a4a4;}.cls-12{fill:#919a9a;}.cls-13{fill:#b7abab;}.cls-14{fill:#b2a3a3;}.cls-15{fill:#b6e9d0;}.cls-16{fill:#a19b9b;}.cls-17{fill:#fff;}.cls-18{fill:#fefefe;}.cls-19{fill:#909d9d;}.cls-20{fill:#afa2a2;}.cls-21{fill:#a2abab;}.cls-22{fill:#978d8d;}.cls-23{fill:#b9b0b0;}.cls-24{fill:#b7afaf;}</style></defs><g id="Layer_2" data-name="Layer 2"><g id="Layer_1-2" data-name="Layer 1"><ellipse class="cls-1" cx="687.5" cy="185" rx="972.27" ry="261.63"/><path class="cls-2" d="M90.5,121.81c1.79.13,3.68-.16,5.24,1.11a1.06,1.06,0,0,0,.7.24c2.62-.3,5,1,7.47,1.32,1.35.16,2.85,0,4,1.1a1.23,1.23,0,0,0,.71.16c2.49.1,5,.15,7.25,1.44,3.47-.37,6.53,1.69,9.94,1.64,2.64,1.7,6.09.3,8.71,2.27.5.38,1.45.18,2.2.22,1.55.08,3.16-.12,4.46,1a.74.74,0,0,0,.47.13c2.74,0,5.2,1.44,8,1.49a6.2,6.2,0,0,1,4,1,3,3,0,0,0,1.44.3c1.69.16,3.49-.2,4.93,1.18.29.28,1,.26,1.44.23,4.56-.24,7.71,2.44,10.33,5.52A17.28,17.28,0,0,1,176,153.77q-.12,69.1,0,138.21a12.29,12.29,0,0,1-3.5,9,6.09,6.09,0,0,1-4.95,2.22c-1.91-.11-4,.37-5.7-.22-2.88-1-6.07-.57-8.78-2.13a2.84,2.84,0,0,0-1.21-.24c-2.05-.11-4.17.1-6-1.28a.33.33,0,0,0-.23-.07c-2.63.3-4.92-1.2-7.48-1.38-1.59-.11-3.29,0-4.77-1.09-.57-.42-1.61-.23-2.44-.26a4.31,4.31,0,0,1-2.82-.77,1.79,1.79,0,0,0-1.12-.49c-3.39.34-6.51-1.06-9.65-1.79-3-.69-6.21-.37-9-2.12-.87-.54-2.28-.22-3.44-.29-2.84-1.24-6-1.17-8.89-2-.56-.15-1.16-.08-1.61-.53h0a52.38,52.38,0,0,1-6.55-1.43c-1.71-.07-3.48.1-5-1.07a1.11,1.11,0,0,0-.7-.23c-2.78.29-5.26-1.18-8-1.4a7.78,7.78,0,0,1-3.77-1c-1-.65-2.44-.28-3.68-.37-1.08-.08-2.17,0-3.07-.78a1.7,1.7,0,0,0-1.13-.47c-2.71.24-5.1-1.34-7.74-1.31a11.63,11.63,0,0,1-5.83-1.77,17.4,17.4,0,0,1-5.73-6c-1-1.68-1.4-3.63-2.43-5.3a3.17,3.17,0,0,1-.33-1.69c0-.67,0-1.33,0-2q0-69.63,0-139.28a11.63,11.63,0,0,1,3.81-8.63,6.38,6.38,0,0,1,5.39-2.1c1.57.18,3.16.09,4.74.14a2.74,2.74,0,0,1,2.29.73,1.53,1.53,0,0,0,1.11.48c2.69-.19,5.15.94,7.73,1.33,1.45.22,3,.08,4.23,1.16a.32.32,0,0,0,.23.08c3.46-.43,6.54,1.45,9.89,1.65a14.71,14.71,0,0,0,5.26,1.21A16.08,16.08,0,0,1,90.5,121.81Z"/><path class="cls-3" d="M279.86,287.06c-1.61.13-3.3-.06-4.71,1.06a.83.83,0,0,1-.48.09c-3.08-.07-5.86,1.5-8.92,1.6a4,4,0,0,0-2.8.84,1,1,0,0,1-.64.31c-3.22-.41-6,1.58-9.18,1.54-1.72,0-3,1.23-4.72,1.22a10.13,10.13,0,0,0-4.5,1c-1.39.67-3.25.37-4.9.49-1.57,1-3.39,1.05-5.14,1.34l-1.42.09a12.71,12.71,0,0,1-6.13,1.29,6.13,6.13,0,0,0-3,1.11c-2,.2-4.18-.16-6,1.27a.7.7,0,0,1-.48.1c-3.45-.31-6.61,1.19-9.9,1.78-2.5.46-5,.8-7.5,1.13-4,.52-6.77-1.48-8.6-4.49a12.06,12.06,0,0,1-1.63-5.61c0-1.41,0-2.82,0-4.24q0-65.7,0-131.41c0-2.95-.43-6,1-8.76a4.36,4.36,0,0,0,.19-1.47c1.05-1.21,1.41-2.83,2.42-4.06a14.48,14.48,0,0,1,6.11-5.38c2.07-.83,4.36-.86,6.36-1.6a20.16,20.16,0,0,1,6-1c2.06-1.06,4.35-1.08,6.56-1.44h0c2.43-1.27,5.2-1,7.76-1.7a4.35,4.35,0,0,0,1.79-.73c1.86-.24,3.75,0,5.51-1.15.86-.57,2.26-.31,3.42-.42,2.65-.94,5.46-1.15,8.18-1.75a4.64,4.64,0,0,0,2.35-.73l1.44-.09c1.66-.58,3.46-.66,5.1-1.35,1.62-.07,3.3.1,4.72-1a.85.85,0,0,1,.48-.09c3.32,0,6.34-1.7,9.65-1.66.33,0,.76,0,1-.13,1.77-1.46,3.9-1.07,5.92-1.28.64-.06,1.33,0,1.84-.55a1.75,1.75,0,0,1,1.37-.49c3.17,0,6-1.51,9.2-1.66,2.24-.12,4.32-1.6,6.71-1.31,2-1.34,4.36-1,6.55-1.43h0c.67-.78,1.86-.18,2.54-1h0c2.19-.48,4.57-.09,6.57-1.44,1.89-.07,3.79,0,5.68-.23,2.59-.24,4.48,1,6.22,2.64,2.93,2.77,3.2,6.46,3.21,10.09.08,21.89,0,43.77,0,65.66q0,34.83,0,69.65c0,3-.24,6.1-1.77,8.86a21.93,21.93,0,0,1-4.61,6.36,11.51,11.51,0,0,1-5.81,3c-3,.42-5.78,2-8.91,1.74a2.65,2.65,0,0,0-2.09.59,2.05,2.05,0,0,1-1.33.58c-3.2-.26-6.05,1.46-9.18,1.56-2.21.07-4.12,1.68-6.43,1.26C283.29,286.25,281.49,286.33,279.86,287.06Z"/><path class="cls-2" d="M398.15,186.51c.91,0,1.29-.76,1.79-1.25Q412.5,172.9,425,160.52q17.52-17.27,35.06-34.51,4-3.95,8.07-7.82a15.25,15.25,0,0,1,9.47-4.56,10.71,10.71,0,0,1,7.94,2.32,14.68,14.68,0,0,1,5.64,10,11.46,11.46,0,0,1-3.76,9.66c-4,4-8.17,7.84-12.26,11.75l-28.7,27.43c-1.81,1.73-3.65,3.41-5.44,5.14-1.51,1.46-1.5,1.5-.19,3.23q12.86,17,25.74,34,10.4,13.74,20.81,27.45a18.26,18.26,0,0,1,3.9,8.8,12.85,12.85,0,0,1-5.06,12.32c-3.77,3-8,4.39-12.79,3.44a12.67,12.67,0,0,1-7.79-5Q449.79,243.27,434,222.4q-7.18-9.45-14.37-18.87c-1.26-1.66-1.33-1.7-2.83-.27-6,5.69-11.87,11.43-17.85,17.1a3.79,3.79,0,0,0-1,3.17q0,15.85,0,31.71a16.56,16.56,0,0,1-.33,4c-1.67,6.53-7.74,10.9-15.18,10.24-5.86-.52-10.22-3.34-12.18-9.16a19.06,19.06,0,0,1-.8-6.15q0-46.68,0-93.36c0-10.66,0-21.31,0-32a13.61,13.61,0,0,1,11.13-13.75c6.48-1.23,12.22.49,15.59,6.2a13.63,13.63,0,0,1,1.76,7.17q0,22.08,0,44.18c0,3.91,0,7.82,0,11.74A4,4,0,0,0,398.15,186.51Z"/><path class="cls-2" d="M201,70.87c1.63.07,3.32-.17,4.74,1a1.2,1.2,0,0,0,.72.16c3,0,5.69,1.54,8.68,1.54a2.58,2.58,0,0,1,1.45.3c1.76,1.24,4,.51,5.67,1.26,2.69,1.21,5.71.65,8.27,2.12.53.3,1.31.14,2,.25,1.45.25,3,.14,4.26,1.12a3.33,3.33,0,0,0,1.68.28c1.63.13,3.37-.19,4.68,1.2a1,1,0,0,0,.71.17c3.29-.32,6.32,1.07,9.4,1.74,2.42.53,5.05.31,7.2,1.23,3.07,1.31,6.31,1.59,9.44,2.29,2.77.61,5.47,1.9,8.44,1.54a1.49,1.49,0,0,1,1.15.39c.9,1,2.09.85,3.23.92,1.55.09,3.16-.11,4.47,1a.75.75,0,0,0,.48.13c2.73,0,5.2,1.53,8,1.47a3.11,3.11,0,0,1,1.68.31c1.77,1.21,3.78,1,5.74,1.15a2.63,2.63,0,0,1,2.06.66,3.24,3.24,0,0,0,2.08.69,3.17,3.17,0,0,1,2.79,3.39,3.08,3.08,0,0,1-2.94,3.23,3.42,3.42,0,0,0-2.52.8,1.65,1.65,0,0,1-1.16.41c-3.2-.15-6.06,1.42-9.18,1.72a33.75,33.75,0,0,0-6.67,1.4c-2.09.65-4.34.47-6.15,1.31-2.68,1.23-5.71.62-8.27,2.08a4.74,4.74,0,0,1-1.95.26c-1.56.11-3.2-.16-4.45,1.16a1.2,1.2,0,0,1-.7.2c-2.13.13-4.31,0-6.18,1.34-2.77-.24-5.25,1.2-8,1.4-1.18.09-2.53,0-3.51,1a.59.59,0,0,1-.44.19c-3.47-.42-6.46,1.93-9.9,1.65-2.61,1.49-5.71.93-8.44,2a3.61,3.61,0,0,0-1.1.48c-1.71.12-3.51-.17-4.94,1.17a.7.7,0,0,1-.46.16c-2.69-.25-5.14.92-7.72,1.31a10.15,10.15,0,0,0-4.25,1.12c-1,.6-2.28.24-3.43.33-1,.07-2-.08-2.77.82a1.28,1.28,0,0,1-1.11.48c-2.7-.27-5.15.84-7.72,1.27-1.15.2-2.32.24-3.47.35-1,.09-2-.1-2.84.68a1.16,1.16,0,0,1-.7.21c-4.33.17-8.65.14-13,0-2-1.26-4.33-.93-6.52-1.08-2.8-.2-5.34-1.74-8.21-1.46a1.76,1.76,0,0,1-1.31-.62,1.7,1.7,0,0,0-1.33-.59c-3.4.41-6.5-1.06-9.65-1.79-2.34-.54-4.85-.32-7-1.26a14.89,14.89,0,0,0-5.51-1.14c-2-1.44-4.35-1-6.53-1.46h0c-.67-.79-1.86-.18-2.53-1-2-.18-4.2.2-5.93-1.34-3,.36-5.54-1.4-8.42-1.63-2.69-.2-5.22-1.45-8-1.31-1.77-1.4-4-.83-5.93-1.39-2.2-.65-4.41-1.08-6.63-1.57-1.32-.29-2.67-.63-4-.9-1.19-.24-2.49-.15-3.52-1.07-.31-.27-1-.22-1.44-.24-1.82-.1-3.69.09-5.23-1.23a1,1,0,0,0-.71-.17c-3.56.45-6.8-1.14-10.17-1.78-2.08-.39-4.21-.63-6.26-1.09-1.56-.36-3-1.17-4.68-1.44-1.28-.21-1.77-1.78-1.58-3.79a2.54,2.54,0,0,1,2.2-2.58c2.54-.26,4.76-1.94,7.43-1.55a2.06,2.06,0,0,0,1.36-.53,2.61,2.61,0,0,1,1.34-.61c2.86.21,5.4-1.37,8.23-1.39a5.36,5.36,0,0,0,3.74-1.07.74.74,0,0,1,.46-.17c2.6,0,5-1.13,7.48-1.37a48.11,48.11,0,0,0,8.39-1.81c2.1-.58,4.4-.35,6.21-1.18,2.56-1.19,5.26-.7,7.69-1.5,2.16-.71,4.49-.63,6.43-1.48,2.29-1,5-.28,7-2.08,3.23.38,6.09-1.3,9.2-1.6,1.14-.11,2.3,0,3.31-.85.37-.31,1.11-.25,1.68-.28,1.74-.08,3.53.09,5-1.2a.35.35,0,0,1,.23-.09c3.15.4,5.89-1.29,8.89-1.77s6.17-.67,9-2.07c1.15-.56,2.47-.26,3.7-.38,2.58-1,5.35-1,8-1.45h0c2.87-1,5.87-.4,8.81-.69a44.44,44.44,0,0,1,10.12.33C194.23,69.48,197.73,69.55,201,70.87Z"/><path class="cls-2" d="M898.27,199.84c2.33-2.18,4.28-3.93,6.16-5.76q13.91-13.46,27.79-27c4.18-4.06,8.34-8.14,12.59-12.12,3.54-3.32,7.75-5.14,12.56-3.65a14.16,14.16,0,0,1,10.12,11c.77,3.64-.83,6.86-3.3,9.55-1.41,1.53-3,2.94-4.48,4.35l-28.5,26.17-1.09,1a.91.91,0,0,0,0,1.49c1,1.1,2,2.23,3,3.33q13.8,14.94,27.62,29.88c2.54,2.75,5.11,5.48,7.55,8.31,3.49,4.05,4.62,8.84,2.62,13.74-3.54,8.69-15.23,12.59-22.59,4.87q-14.49-15.17-28.9-30.4c-3.15-3.32-6.29-6.66-9.46-10-1.39-1.46-1.43-1.43-3,0-2.4,2.19-4.74,4.44-7.19,6.57a4.38,4.38,0,0,0-1.6,3.68c.08,7.07,0,14.14,0,21.22a13.53,13.53,0,0,1-2.43,7.72c-3.08,4.57-9.44,6.7-15.34,5a13,13,0,0,1-9.39-12.2c0-1.08,0-2.16,0-3.25q0-65.78,0-131.55c0-1,0-2,0-3a13.43,13.43,0,0,1,12.13-13A13.73,13.73,0,0,1,898,116.29a20.72,20.72,0,0,1,.25,4.72q0,37.83,0,75.64Z"/><path class="cls-2" d="M653.23,211.62V181.16c0-3,.29-2.88-2.78-2.89-2.41,0-4.83,0-7.24,0a12.6,12.6,0,0,1-12-16.31,12.32,12.32,0,0,1,11.29-8.71c2.91-.08,5.83,0,8.74,0,1.88,0,1.92,0,1.93-2,0-4,0-8,0-12-.09-8.7,8.31-16,18.38-12.81,5.42,1.7,9,7.12,9,13.35.05,3.75,0,7.49,0,11.24,0,2.16,0,2.18,2.24,2.19,4.42,0,8.83,0,13.25,0A11.48,11.48,0,0,1,707,159.87a12.4,12.4,0,0,1-.62,13,11.65,11.65,0,0,1-9.93,5.32c-4.5.13-9,0-13.49,0-2.3,0-2.33,0-2.33,2.35q0,28.45,0,56.91c0,2.42.35,4.69,2.37,6.3,2.31,1.84,5,2.07,7.81,1.63a23.33,23.33,0,0,0,4.08-1.14c6.34-2.26,10.37,1.38,12.06,6.34,1.74,5.13.25,9.73-4,13.15a25.1,25.1,0,0,1-13.71,5.43,47.36,47.36,0,0,1-22.69-3.48c-6.36-2.58-10.12-7.33-11.84-13.86a48.89,48.89,0,0,1-1.56-12.58Q653.25,225.48,653.23,211.62Z"/><path class="cls-4" d="M323.33,270.61a1.33,1.33,0,0,1,.07-1.2c1.39-2.26,1-4.77,1-7.21q0-41.53,0-83.07c0-17.8,0-35.6,0-53.39,0-3.19-.27-6.16-2.47-8.67-.14-.15-.09-.48-.12-.72,1.45-.41,1.42,1.1,2.11,1.67a1.52,1.52,0,0,1,.39.89c.33,3,1.55,5.79,1.54,8.91q-.12,67,0,134c0,2.84-1.23,5.41-1.58,8.16C324.23,270.48,323.76,270.58,323.33,270.61Z"/><path class="cls-5" d="M201,70.87a11.45,11.45,0,0,1-4.76-.74c-1.93-.74-4.22-.64-6.36-.67-6-.09-11.94,0-17.91-.06.1-.89.74-.93,1.44-1a111.25,111.25,0,0,1,18.07,0c2.27,1.29,4.79.83,7.21,1.08A4.91,4.91,0,0,1,201,70.87Z"/><path class="cls-6" d="M246.93,127.34c-.07.87-.75,1-1.4,1.14a31.4,31.4,0,0,0-7.17,1.35,5.62,5.62,0,0,1-2,0,1.06,1.06,0,0,1,.94-1c.9-.12,1.78-.34,2.68-.44a7.61,7.61,0,0,0,3.51-.83A5,5,0,0,1,246.93,127.34Z"/><path class="cls-7" d="M94.48,288.6c1.53,0,3-.18,4.5.79.71.47,1.93.14,2.91.24,1.18.13,2.53,0,3.09,1.46a9.32,9.32,0,0,1-4.52-.72c-1.37-.72-3.21-.57-4.84-.75C95,289.55,94.52,289.32,94.48,288.6Z"/><path class="cls-8" d="M90.5,121.81c-1.14,0-2.27.25-3.29-.64-.65-.56-1.6-.34-2.41-.32a14.29,14.29,0,0,1-3.91-.52,1.08,1.08,0,0,1-.92-1c1.55,0,3-.21,4.52.79.7.47,1.93.14,2.91.26C88.57,120.52,90,120.29,90.5,121.81Z"/><path class="cls-9" d="M227.47,131.39c-.08.74-.47,1.28-1.22,1.3a19.64,19.64,0,0,0-7.12,1.21c-.34.14-.8,0-1.21-.08a.92.92,0,0,1,.89-1c.9-.11,1.8-.29,2.71-.39a5.85,5.85,0,0,0,3.29-.86A3.28,3.28,0,0,1,227.47,131.39Z"/><path class="cls-10" d="M228.38,117.8c.14-1.13,1.15-1.12,1.88-1.28,2-.44,4.11.16,6-1.14.38-.27,1.12,0,1.7,0,0,.72-.53.88-1.15,1-2.2.59-4.59.23-6.68,1.41C229.66,118,229,117.81,228.38,117.8Z"/><path class="cls-11" d="M223.36,299c.07-.95.82-1.18,1.54-1.28,2.14-.3,4.39.1,6.36-1.18.27-.18.79,0,1.19.06,0,.72-.47.95-1.09,1.08-2.33.51-4.84.15-7.05,1.41C224.09,299.25,223.68,299.07,223.36,299Z"/><path class="cls-5" d="M171.93,69.4a1.5,1.5,0,0,1-1.34.48,5.29,5.29,0,0,0-3.05.73c-1,.68-2.41.32-3.65.24a3.34,3.34,0,0,1,2.94-1.41Z"/><path class="cls-7" d="M87.92,287.17c2.4-.51,4.45.56,6.55,1.43C92.19,288.56,89.78,289.16,87.92,287.17Z"/><path class="cls-9" d="M217.92,133.82c-2.25.19-4.14,2-6.56,1.44.28-1.34,1.49-1.21,2.37-1.32A36.52,36.52,0,0,1,217.92,133.82Z"/><path class="cls-12" d="M279.86,287.06c1.38-1.68,3.22-1.59,5.11-1.36C283.59,287.37,281.74,287.25,279.86,287.06Z"/><path class="cls-13" d="M253.47,125.9c-1.39,1.6-3.22,1.58-5.1,1.35C249.77,125.7,251.57,125.61,253.47,125.9Z"/><path class="cls-14" d="M300.88,116.33c-2.26.13-4.17,1.85-6.55,1.43.21-1.18,1.17-1.31,2.08-1.35A22.27,22.27,0,0,1,300.88,116.33Z"/><path class="cls-15" d="M130,116.32c1.4,0,2.81,0,4.21.06,1,.05,2,.15,2.32,1.4-1,.08-1.95.24-2.79-.59-.49-.49-1.26-.29-1.91-.36S130.44,117,130,116.32Z"/><path class="cls-14" d="M310,113.94c-.14,1.1-1,1.26-1.84,1.31a26.66,26.66,0,0,1-4.73.13C305.64,115.08,307.64,113.76,310,113.94Z"/><path class="cls-11" d="M233.87,296.54c1.75-.31,3.16-1.91,5.14-1.34,0,.74-.3,1.29-1.17,1.31A18.81,18.81,0,0,1,233.87,296.54Z"/><path class="cls-16" d="M192.89,143.27c-.68,1.43-.75,3.22-2.42,4.06A6,6,0,0,1,192.89,143.27Z"/><path class="cls-14" d="M303.42,115.38c-.35,1.64-1.58.94-2.54,1C301.24,114.73,302.44,115.34,303.42,115.38Z"/><path class="cls-15" d="M127.44,115.36c.92.11,2.17-.65,2.53,1C129,116.24,127.8,116.94,127.44,115.36Z"/><path class="cls-17" d="M221.92,182.25l3.83-4.67c-2.06-.85-3.75-2.39-5.58-3.67a62.93,62.93,0,0,1-6.31-4.48c-1.32-1.2-3.06-2-4.47-3.14a4.46,4.46,0,0,1-1.91-4.36,3.08,3.08,0,0,1,.68-1.8,2.69,2.69,0,0,0,.88-1.72c2.3-.9,4.57-1.62,6.46.79,1.72,1.07,3.48,2.1,5.17,3.22,3.32,2.19,6.54,4.54,9.92,6.67,1.24.78,2.39,1.87,3.65,2.7A1.77,1.77,0,0,1,235,173c.75,3.09.66,6-2.07,8.19-.38.31-.38.71-.55,1.07-.48.52-1,1-1.46,1.54h0a7.8,7.8,0,0,0-1,1h0c-.7.94-1.65,1.64-2.37,2.57-.72.47-1,1.33-1.7,1.83v0a8.49,8.49,0,0,1-1,1c-1.09,2.15-3.1,3.52-4.63,5.3-2,2.31-4.2,4.42-6.17,6.74a4.5,4.5,0,0,1-4.36,1.59,2.58,2.58,0,0,1-2.25-2.25,6.63,6.63,0,0,1,2.16-5.87c2.51-2.58,4.83-5.35,7.23-8,1-1.45,2.59-2.43,3.57-3.93h0C220.91,183.25,221.43,182.76,221.92,182.25Z"/><path class="cls-18" d="M268.86,191.66c-1.44.13-2.95-.06-4.19,1a1.22,1.22,0,0,1-.72.16c-3.05,0-5.81,1.5-8.85,1.64a5.09,5.09,0,0,0-2.77.86c-1.11.77-2.56.32-3.85.51-2.2.65-4.41,2.21-6.58-.07a6.44,6.44,0,0,1-.3-4.82,4.4,4.4,0,0,1,3.82-3.22c1.06-.12,2.16,0,3-.93a1.87,1.87,0,0,1,1.15-.35c1.88-.17,3.71-.71,5.53-1,3.07-.49,6-1.95,9.13-1.81a2.15,2.15,0,0,0,1.44-.31c1.57-1.24,3.44-1,5.24-1.05a3.51,3.51,0,0,1,3.24,5.35c-.56.92-.56,2.57-2.2,2.69A14,14,0,0,0,268.86,191.66Z"/><path class="cls-19" d="M215.5,159.2a4.51,4.51,0,0,0-3.58-1c-1,0-1.92.14-2.88.21.25-.68,1-.84,1.49-1.2C212.19,156,214.73,157.11,215.5,159.2Z"/><path class="cls-20" d="M241.9,195.74a1.42,1.42,0,0,1,1.18.17,1.68,1.68,0,0,0,2.55.13,3.66,3.66,0,0,1,2.85-.23C246.59,197.87,243.24,197.84,241.9,195.74Z"/><path class="cls-21" d="M220.45,183.78c0,.24.11.6,0,.71-1.16,1.11-1.88,2.7-3.56,3.22A6.66,6.66,0,0,1,220.45,183.78Z"/><path class="cls-22" d="M227.38,187.2c.67-1,1.25-2.1,2.57-2.41a5.16,5.16,0,0,1-2.5,3C227.18,187.63,227.15,187.43,227.38,187.2Z"/><path class="cls-23" d="M268.86,191.66c.58-1.47,1.77-1.57,3.09-1.37C271.15,191.27,270.29,192.1,268.86,191.66Z"/><path class="cls-21" d="M221.92,182.25c.1,1.08-.4,1.58-1.47,1.53C220.39,182.74,220.74,182.1,221.92,182.25Z"/><path class="cls-22" d="M230.94,183.77c0-1,.27-1.7,1.46-1.54C232.47,183.28,232,183.84,230.94,183.77Z"/><path class="cls-24" d="M227.38,187.2l.07.59a1.41,1.41,0,0,1-1.57,1.4C225.63,188,226.66,187.7,227.38,187.2Z"/><path class="cls-22" d="M230,184.78c-.17-.82.16-1.16,1-1C231,184.49,230.68,184.83,230,184.78Z"/><path class="cls-24" d="M224.9,190.23c-.06-.7.27-1,1-1C226,190,225.78,190.41,224.9,190.23Z"/><path class="cls-2" d="M1233.55,120.34c0-.42,0-.83,0-1.25-.42-11.58-12.08-15.85-19.92-11.74a13.25,13.25,0,0,0-7.47,12.36c-.06,11.89,0,23.79,0,35.69V161a3,3,0,0,1-.77-.11,7.54,7.54,0,0,1-.83-.56,54.06,54.06,0,0,0-26.82-11.2,49.49,49.49,0,0,0-28.19,4.44c-13.88,6.7-22.73,17.88-27.91,32.11-4.51,12.4-5.15,25.2-2.93,38.1,2.51,14.61,9.13,27.06,20.79,36.45,12.86,10.35,27.55,13.57,43.63,10,8.31-1.82,15.43-6.09,21.7-11.78.4-.35.69-1,1.4-.71.33.36.28.8.38,1.19a12.93,12.93,0,0,0,12.14,10.43,13.12,13.12,0,0,0,13.58-7.77,15.16,15.16,0,0,0,1.26-6.55Q1233.53,187.74,1233.55,120.34Zm-31.19,110.21c-4.48,8.15-11.16,13.62-20.43,15.33-14.85,2.74-28.37-3.33-34.85-18.4a38.54,38.54,0,0,1-3.21-14.67c0-12.57,2.64-21.84,9.77-29.54a28,28,0,0,1,18.77-9.23c8.41-.74,16,1.22,22.49,6.78a33,33,0,0,1,10.88,17.8C1208.34,209.62,1207.94,220.41,1202.36,230.55Z"/><path class="cls-2" d="M841.17,176.53q0-7.23,0-14.48a13.57,13.57,0,0,0-1.64-6.46c-2.69-5-8.08-7.49-14.19-6.75A13.74,13.74,0,0,0,814.21,159a5.2,5.2,0,0,1-.68,2.1,2.31,2.31,0,0,1-1.3-.7,47.4,47.4,0,0,0-11.54-6.9c-17.5-7.59-34.39-6.5-50.37,4.06-10.31,6.81-16.92,16.59-21.07,28.07-4.36,12.06-5.07,24.49-3.08,37.1,2.35,14.94,8.82,27.67,20.67,37.31,13,10.55,27.78,13.83,44,10.2,8.14-1.81,15.11-6,21.3-11.51.45-.4.77-1.11,1.53-1,.57.49.4,1.13.55,1.67,3.13,11.55,16.61,12.35,22.58,6.5a14.34,14.34,0,0,0,4.32-10.77Q841.16,215.86,841.17,176.53ZM809,232.19c-5.34,8.35-12.79,13.27-22.85,14.12s-18.57-1.9-25.44-9.34a31.32,31.32,0,0,1-7.2-12.69c-3.39-11.69-3.12-23.18,2.75-34.08,4.37-8.12,10.91-13.75,20.21-15.64,12-2.45,23.93,1.47,31.5,12.27,5,7.08,6.94,15,6.8,23.53A38.24,38.24,0,0,1,809,232.19Z"/><path class="cls-2" d="M1284.47,219.75h68.94a16.14,16.14,0,0,0,4.69-.54c5.67-1.72,9.79-6.44,9.53-12.49a66.49,66.49,0,0,0-.78-9.67A59.15,59.15,0,0,0,1346,161.67c-12.57-10.4-27-15.08-43.23-12.2-20.19,3.59-34.28,15.34-42.7,33.91a64.68,64.68,0,0,0-5.19,20.93,68.23,68.23,0,0,0,3.16,29.25c5.08,14.52,14.56,25.3,28.43,31.91,13,6.21,26.8,7.55,40.93,5.12a62,62,0,0,0,22.3-8.34c3.34-2.07,6.54-4.37,8.56-7.86,2.36-4.08,2.53-8.3-.21-12.23s-6.76-6-11.86-5.16a18.87,18.87,0,0,0-7.77,3.2c-9.12,6.25-19.39,7.58-29.87,5.71-13.34-2.37-22.17-10.43-26.09-23.55C1281.71,219.78,1281.73,219.76,1284.47,219.75Zm18-44.95c5.42-1.09,10.88-1.53,16.3,0,8.08,2.27,14.32,6.89,18.07,14.53a17.9,17.9,0,0,1,1.67,6c.12,1.05-.27,1.57-1.37,1.5-.42,0-.83,0-1.25,0h-51.17a4.19,4.19,0,0,1-2.42-.28A25.2,25.2,0,0,1,1302.46,174.8Z"/><path class="cls-2" d="M1102.15,199c-3.42-20.13-14.17-35-32.53-44.17-13-6.48-26.76-7.66-40.84-4.56a56.4,56.4,0,0,0-35,23.08c-7.86,11.07-11.5,23.48-11.23,37.64a52.32,52.32,0,0,0,1.27,13.77c5.79,26.39,26.42,44.58,53.78,46.74a61.12,61.12,0,0,0,35.58-7.63,56.31,56.31,0,0,0,25.42-29.11A65.77,65.77,0,0,0,1102.15,199Zm-37.38,38.66a29.9,29.9,0,0,1-18.38,8.6c-9.65,1-18.12-1.57-25.27-8.12A32.78,32.78,0,0,1,1011,220.48c-2.19-10.31-1.56-20.31,3.61-29.72,4.74-8.64,11.85-14.23,21.59-16.23a31.52,31.52,0,0,1,33.53,14.36c4.06,6.63,6.07,13.78,6,19.52C1075.66,221,1072.34,230.22,1064.77,237.66Z"/><path class="cls-2" d="M620.4,203.66c-2-43.57-54.63-69.31-91.13-46.66-49.41,28.55-32.77,111.68,25.8,114.49C592.89,276.19,625.74,241,620.4,203.66Zm-37.14,33.18a32,32,0,0,1-49-3.77c-14.48-20.34-5.34-55.89,21.85-58.88C588.59,168.63,605.51,215.17,583.26,236.84Z"/></g></g></svg>