<svg width="177" height="123" viewBox="0 0 177 123" fill="none" xmlns="http://www.w3.org/2000/svg">
<g clip-path="url(#clip0)">
<path d="M54.1804 99.3342H49.3886C49.2191 91.2258 48.7524 83.6029 47.9894 76.46H47.9468L40.6511 99.3342H37.0028L29.7506 76.46H29.7089C29.1709 83.318 28.832 90.9427 28.6913 99.3342H24.3235C24.605 89.1298 25.3124 79.5632 26.443 70.6333H32.3822L39.2946 91.7224H39.3372L46.2921 70.6333H51.9748C53.2193 81.0929 53.9545 90.6605 54.1804 99.3342ZM74.962 78.1587C73.011 88.7724 70.4368 96.4844 67.2422 101.298C64.7532 105.004 62.0262 106.859 59.0566 106.859C58.2649 106.859 57.288 106.619 56.1305 106.144V103.585C56.6963 103.666 57.3602 103.713 58.1232 103.713C59.5103 103.713 60.6252 103.33 61.4752 102.564C62.4919 101.63 63.0003 100.58 63.0003 99.4186C63.0003 98.6222 62.604 96.994 61.8132 94.5286L56.5546 78.1578H61.2623L65.0365 90.4015C65.8847 93.1817 66.2384 95.1227 66.0967 96.2282C68.1607 90.7023 69.6025 84.6769 70.4238 78.1568H74.962V78.1587Z" fill="#31B057"/>
<path d="M138.747 99.3342H125.136V70.6333H129.715V95.8012H138.747V99.3342ZM121.572 100.028L116.309 97.4238C116.776 97.0395 117.222 96.6237 117.624 96.1419C119.861 93.5075 120.977 89.6116 120.977 84.4514C120.977 74.9562 117.26 70.2063 109.824 70.2063C106.177 70.2063 103.333 71.4112 101.298 73.8219C99.0631 76.4581 97.9473 80.3401 97.9473 85.4725C97.9473 90.5176 98.9362 94.2185 100.915 96.5661C102.725 98.6928 105.454 99.7575 109.103 99.7575C110.465 99.7575 111.714 99.5904 112.852 99.2534L119.704 103.252L121.572 100.028ZM104.523 93.5911C103.363 91.7215 102.784 88.7195 102.784 84.5804C102.784 77.3539 104.974 73.7365 109.358 73.7365C111.65 73.7365 113.329 74.6016 114.404 76.3282C115.561 78.2005 116.144 81.1756 116.144 85.2571C116.144 92.543 113.952 96.1865 109.57 96.1865C107.277 96.1874 105.598 95.325 104.523 93.5911ZM95.9518 91.379C95.9518 93.8129 95.061 95.8096 93.2813 97.3737C91.4998 98.9313 89.1108 99.712 86.1171 99.712C83.317 99.712 80.602 98.8153 77.9741 97.0312L79.2047 94.5666C81.466 95.7019 83.5133 96.2663 85.3513 96.2663C87.0764 96.2663 88.4246 95.8829 89.4024 95.1227C90.3793 94.3596 90.9618 93.2894 90.9618 91.936C90.9618 90.2307 89.7756 88.7734 87.5996 87.5527C85.593 86.4481 81.5798 84.1386 81.5798 84.1386C79.4047 82.5494 78.3158 80.8432 78.3158 78.0325C78.3158 75.7062 79.1279 73.8284 80.753 72.3998C82.3799 70.9656 84.4791 70.2509 87.0523 70.2509C89.7099 70.2509 92.1257 70.9647 94.3017 72.3775L93.198 74.843C91.3368 74.0502 89.4997 73.6539 87.6875 73.6539C86.2199 73.6539 85.0865 74.0075 84.2985 74.7176C83.504 75.425 83.0142 76.33 83.0142 77.4402C83.0142 79.1371 84.2253 80.613 86.4606 81.8578C88.4941 82.9643 92.6072 85.3137 92.6072 85.3137C94.8379 86.9001 95.9518 88.5905 95.9518 91.379Z" fill="#177751"/>
<path d="M144.496 61.0202C141.727 60.9496 139.584 61.2291 137.784 61.9921C137.265 62.2 136.439 62.2 136.367 62.8582C136.647 63.1366 136.68 63.5859 136.923 63.9702C137.338 64.6636 138.061 65.5965 138.721 66.0829C139.446 66.6399 140.174 67.1913 140.937 67.6768C142.283 68.5113 143.808 68.9967 145.119 69.8285C145.883 70.3121 146.642 70.9377 147.407 71.4585C147.783 71.736 148.024 72.1862 148.512 72.3598V72.254C148.267 71.9421 148.198 71.491 147.958 71.1438L146.919 70.1394C145.915 68.7879 144.668 67.6081 143.323 66.639C142.215 65.8741 139.793 64.8344 139.344 63.5553L139.273 63.4847C140.034 63.4132 140.937 63.1366 141.66 62.9241C142.837 62.6131 143.911 62.6836 145.118 62.3727C145.674 62.2334 146.225 62.0589 146.782 61.8872V61.5744C146.156 60.9496 145.71 60.1198 145.051 59.5294C143.29 58.0043 141.349 56.5126 139.344 55.264C138.27 54.5688 136.888 54.1214 135.744 53.5301C135.332 53.3212 134.638 53.2182 134.395 52.871C133.775 52.108 133.426 51.1036 132.976 50.2004C131.976 48.2947 131.004 46.1801 130.141 44.1648C129.517 42.8133 129.138 41.4636 128.376 40.2132C124.812 34.3188 120.94 30.7487 114.99 27.2445C113.711 26.5149 112.19 26.2039 110.565 25.8215L107.969 25.6841C107.415 25.4409 106.861 24.7809 106.377 24.469C104.403 23.2214 99.3205 20.5174 97.8686 24.0875C96.9333 26.3441 99.252 28.5626 100.048 29.7072C100.636 30.5017 101.398 31.4059 101.809 32.3081C102.053 32.8976 102.122 33.5232 102.365 34.1461C102.919 35.6722 103.436 37.3699 104.164 38.7939C104.544 39.5198 104.958 40.2828 105.443 40.94C105.721 41.3243 106.204 41.4942 106.31 42.1208C105.827 42.8114 105.789 43.8539 105.512 44.7209C104.268 48.639 104.754 53.4929 106.518 56.3724C107.07 57.2394 108.387 59.1479 110.148 58.4164C111.707 57.7926 111.362 55.8164 111.81 54.0833C111.913 53.6646 111.845 53.3899 112.053 53.1151V53.1829C112.535 54.1529 113.022 55.0877 113.469 56.0605C114.543 57.7583 116.411 59.5275 117.968 60.7037C118.796 61.3312 119.453 62.4042 120.491 62.7876V62.6836H120.422C120.212 62.3727 119.905 62.2334 119.629 61.9921C119.005 61.3674 118.314 60.6043 117.83 59.9118C116.38 57.969 115.096 55.8182 113.957 53.5987C113.4 52.522 112.919 51.3449 112.47 50.27C112.261 49.8551 112.261 49.2294 111.914 49.0206C111.393 49.7827 110.635 50.4427 110.255 51.3765C109.597 52.8701 109.528 54.7071 109.284 56.6175L109.148 56.6843C108.046 56.4067 107.663 55.264 107.244 54.294C106.208 51.8304 106.034 47.876 106.933 45.0337C107.174 44.3068 108.215 42.0178 107.8 41.3253C107.591 40.6616 106.899 40.2838 106.519 39.7611C106.073 39.1039 105.584 38.2722 105.273 37.5426C104.443 35.6016 104.025 33.4508 103.132 31.5108C102.714 30.6066 101.989 29.671 101.402 28.8383C100.743 27.9026 100.018 27.2435 99.4964 26.1343C99.3242 25.7528 99.0825 25.129 99.3594 24.714C99.427 24.4356 99.5677 24.3316 99.8436 24.262C100.292 23.8823 101.572 24.365 102.022 24.5739C103.304 25.0937 104.376 25.5792 105.447 26.3069C105.931 26.655 106.45 27.3141 107.072 27.4877H107.8C108.904 27.729 110.15 27.5545 111.19 27.8683C113.022 28.4586 114.682 29.3247 116.171 30.2595C120.702 33.1399 124.438 37.2326 126.961 42.1208C127.375 42.9172 127.551 43.6469 127.928 44.4776C128.657 46.1782 129.558 47.9122 130.281 49.5766C131.008 51.2057 131.701 52.8691 132.739 54.2225C133.256 54.9503 135.336 55.3318 136.269 55.7133C136.958 56.0243 138.033 56.3009 138.655 56.6824C139.832 57.4093 141.004 58.2438 142.11 59.043C142.661 59.4589 144.393 60.3259 144.496 61.0202ZM109.211 30.8851C108.733 30.8801 108.257 30.9388 107.795 31.0596V31.1292H107.862C108.14 31.6834 108.625 32.0677 108.97 32.5513C109.249 33.1074 109.49 33.6588 109.764 34.2139L109.83 34.1452C110.318 33.7989 110.561 33.2438 110.561 32.4112C110.351 32.1661 110.318 31.9266 110.143 31.6834C109.94 31.3363 109.49 31.1636 109.211 30.8851Z" fill="#31B057"/>
<path d="M147.79 99.3294H148.507V95.8132H147.432L146.555 98.2127L145.602 95.8132H144.567V99.3294H145.244V96.6542H145.282L146.28 99.3294H146.796L147.79 96.6542V99.3294ZM142.017 99.3294H142.775V96.4091H143.768V95.8123H140.983V96.4091H142.015L142.017 99.3294Z" fill="#177751"/>
</g>
<defs>
<clipPath id="clip0">
<rect width="177" height="123" fill="white"/>
</clipPath>
</defs>
</svg>
