<svg width="118" height="118" viewBox="0 0 118 118" fill="none" xmlns="http://www.w3.org/2000/svg">
<g clip-path="url(#clip0)">
<path d="M56.0514 63.7376V48.396L42.7665 40.7305L29.4817 48.396V63.7376L42.7665 71.4084L56.0514 63.7376Z" fill="#177751"/>
<path d="M108.367 61.408L117.024 66.4082L108.367 71.4084L95.082 63.7376V48.4013L108.367 40.7305L116.415 45.3791C117.234 48.8315 117.732 52.3521 117.916 55.8989L112.995 58.7427V53.4014L108.367 50.7308L103.739 53.4014V58.7427L108.367 61.408Z" fill="#177751"/>
<path d="M110.948 57.5571V54.577L108.372 53.0869L105.791 54.577V57.5571L108.372 59.0472L110.948 57.5571Z" fill="#66A060"/>
<path d="M23.2065 48.4013V68.6276L14.3447 63.5749V53.2021L9.92165 50.6469L5.49862 53.2021V63.5697L0.466963 66.4397C0.157403 63.9737 0 61.4867 0 58.9998C0 54.3826 0.529924 49.8861 1.53206 45.5732L9.92165 40.7305L23.2065 48.4013Z" fill="#177751"/>
<path d="M42.7613 40.7256L56.0461 63.7327L42.7613 71.4035L29.4817 48.3964L42.7613 40.7256Z" fill="#31B057"/>
<path d="M29.4817 63.7376L34.0411 56.2976L29.4817 48.396V63.7376Z" fill="#31B057"/>
<path d="M51.6178 56.0668L56.0461 48.396L42.7665 40.7305L51.6178 56.0668Z" fill="#31B057"/>
<path d="M79.8717 22.9497V43.3019L75.4172 40.731L62.1323 48.4018V63.7434L75.4172 71.4142L88.702 63.7434V27.6771L79.8717 22.9497ZM79.8454 58.6225L75.4172 61.1777L70.9889 58.6225V53.5122L75.4172 50.957L79.8454 53.5122V58.6225Z" fill="#177751"/>
<path d="M65.0286 82.6737C65.0286 82.6737 64.7662 80.4333 62.3684 80.4333C59.9707 80.4333 58.3284 80.7482 58.3284 82.0756C58.3284 83.403 62.9928 83.403 64.7662 83.9277C66.5396 84.4471 68.1032 85.806 67.3214 88.2038C66.5396 90.6016 64.1419 90.864 60.4376 90.864C56.7334 90.864 55.8992 87.7893 55.8992 86.5878H57.9874C57.9874 86.5878 57.725 88.4662 60.1753 88.7757C62.6255 89.0853 64.9708 89.2637 65.2857 87.3696C65.7054 84.8669 57.3578 86.1156 56.6285 83.6654C56.0094 81.5929 56.3661 78.8698 60.5373 78.4501C64.7085 78.0303 67.0013 79.8772 67.0013 82.6213L65.0286 82.6737Z" fill="#31B057"/>
<path d="M44.8757 92.4483L49.4876 95.1084C51.8067 96.4463 54.7029 94.7726 54.7029 92.0967V78.8434H52.8246V91.572C52.8246 93.0307 51.2453 93.9488 49.9756 93.2143L46.7593 91.3569V77.773L58.5226 70.9837L70.2859 77.773V91.3569L58.5226 98.1463L55.1332 96.1892L52.919 97.0812L58.5226 100.313L72.1642 92.4378V76.6869L58.5226 68.8115L44.881 76.6869L44.8757 92.4483Z" fill="#31B057"/>
</g>
<defs>
<clipPath id="clip0">
<rect width="118" height="118" fill="white"/>
</clipPath>
</defs>
</svg>
