<svg width="121" height="64" viewBox="0 0 121 64" fill="none" xmlns="http://www.w3.org/2000/svg">
<path d="M60.5 63.8104C93.9132 63.8104 121 49.5259 121 31.9052C121 14.2844 93.9132 0 60.5 0C27.0868 0 0 14.2844 0 31.9052C0 49.5259 27.0868 63.8104 60.5 63.8104Z" fill="url(#paint0_radial)"/>
<path d="M60.5 61.4397C92.608 61.4397 118.637 48.2166 118.637 31.9049C118.637 15.5933 92.608 2.37012 60.5 2.37012C28.392 2.37012 2.36328 15.5933 2.36328 31.9049C2.36328 48.2166 28.392 61.4397 60.5 61.4397Z" fill="#31B057"/>
<path d="M72.2691 41.4815L75.1523 26.5956C75.814 23.2297 75.2468 20.7171 73.5453 19.1526C71.891 17.6356 69.055 16.8771 64.8957 16.8771H59.8855L61.3035 9.48153C61.3507 9.19708 61.3035 8.91264 61.1144 8.6756C60.9253 8.43856 60.689 8.34375 60.4054 8.34375H53.5046C53.032 8.34375 52.6539 8.6756 52.5593 9.10227L49.4871 24.8889C49.2035 23.0875 48.5418 21.5704 47.4074 20.3378C45.375 18.0149 42.2082 16.8297 37.907 16.8297H24.6253C24.1527 16.8297 23.7746 17.1615 23.68 17.5882L17.4882 49.6356C17.441 49.92 17.4882 50.2045 17.6773 50.4415C17.8664 50.6786 18.1027 50.7734 18.3863 50.7734H25.3343C25.807 50.7734 26.1851 50.4415 26.2796 50.0149L27.7921 42.2875H32.9441C35.6382 42.2875 37.9543 42.003 39.7031 41.4341C41.5464 40.8178 43.2007 39.8223 44.666 38.4475C45.8476 37.3571 46.8402 36.1245 47.5964 34.7971L46.3675 41.1971C46.3203 41.4815 46.3675 41.766 46.5566 42.003C46.7457 42.24 46.982 42.3349 47.2656 42.3349H54.1664C54.639 42.3349 55.0171 42.003 55.1117 41.5763L58.5148 24.0356H63.2414C65.2738 24.0356 65.841 24.4149 66.03 24.6045C66.1718 24.7467 66.4554 25.3156 66.1246 27.0697L63.3832 41.2445C63.3359 41.5289 63.3832 41.8134 63.5722 42.0504C63.7613 42.2875 63.9976 42.3823 64.2812 42.3823H71.371C71.7964 42.24 72.1746 41.9082 72.2691 41.4815ZM40.3175 29.1556C39.8921 31.3838 39.0886 32.9956 37.907 33.8963C36.7253 34.7971 34.7875 35.2712 32.2351 35.2712H29.1628L31.3843 23.7986H35.3546C38.2851 23.7986 39.4668 24.4149 39.9394 24.9363C40.5539 25.6949 40.6957 27.1645 40.3175 29.1556Z" fill="white"/>
<path d="M101.763 20.3377C99.7305 18.0148 96.5637 16.8296 92.2625 16.8296H78.8863C78.4137 16.8296 78.0355 17.1614 77.941 17.5881L71.7492 49.5881C71.702 49.8726 71.7492 50.157 71.9383 50.394C72.1273 50.6311 72.3637 50.7259 72.6473 50.7259H79.5953C80.068 50.7259 80.4461 50.394 80.5406 49.9674L82.0531 42.24H87.2051C89.8992 42.24 92.2152 41.9555 93.9641 41.3866C95.8074 40.7703 97.4617 39.7748 98.9269 38.4C100.156 37.2622 101.196 35.9822 101.952 34.6074C102.708 33.2326 103.275 31.7155 103.606 30.0563C104.41 25.9318 103.795 22.7081 101.763 20.3377ZM94.5312 29.1555C94.1058 31.3837 93.3023 32.9955 92.1207 33.8963C90.9391 34.797 89.0012 35.2711 86.4488 35.2711H83.3766L85.598 23.7985H89.5684C92.4988 23.7985 93.6805 24.4148 94.1531 24.9363C94.8148 25.6948 94.9566 27.1644 94.5312 29.1555Z" fill="white"/>
<path d="M35.3547 22.8504C38.0016 22.8504 39.7504 23.3245 40.6484 24.3201C41.5465 25.3156 41.7355 26.9749 41.2629 29.3452C40.7902 31.8104 39.8449 33.6119 38.4742 34.6549C37.1035 35.6978 35.0238 36.2193 32.2352 36.2193H28.0285L30.6281 22.8504H35.3547ZM18.4336 49.7778H25.3816L27.0359 41.2919H32.9914C35.6383 41.2919 37.7652 41.0075 39.4668 40.4386C41.1684 39.8697 42.6809 38.9689 44.0988 37.6415C45.2805 36.5512 46.2258 35.366 46.9348 34.086C47.6438 32.806 48.1637 31.3838 48.4473 29.8193C49.2035 26.0267 48.6363 23.0875 46.793 20.9541C44.9496 18.8208 42.0191 17.7778 38.0016 17.7778H24.6254L18.4336 49.7778Z" fill="#177751"/>
<path d="M53.552 9.29199H60.4528L58.7985 17.7779H64.943C68.8188 17.7779 71.4657 18.4416 72.9309 19.8164C74.3962 21.1912 74.8215 23.372 74.2544 26.4061L71.3712 41.292H64.3758L67.1173 27.1172C67.4481 25.5053 67.3063 24.415 66.7864 23.8461C66.2665 23.2772 65.0848 22.9453 63.336 22.9453H57.8059L54.261 41.292H47.3602L53.552 9.29199Z" fill="#177751"/>
<path d="M89.5683 22.8504C92.2152 22.8504 93.964 23.3245 94.8621 24.3201C95.7601 25.3156 95.9492 26.9749 95.4765 29.3452C95.0039 31.8104 94.0585 33.6119 92.6878 34.6549C91.3171 35.6978 89.2374 36.2193 86.4488 36.2193H82.2421L84.8417 22.8504H89.5683ZM72.6472 49.7778H79.5953L81.2496 41.2919H87.205C89.8519 41.2919 91.9789 41.0075 93.6804 40.4386C95.382 39.8697 96.8945 38.9689 98.3125 37.6415C99.4941 36.5512 100.439 35.366 101.148 34.086C101.857 32.806 102.377 31.3838 102.661 29.8193C103.417 26.0267 102.85 23.0875 101.007 20.9541C99.1632 18.8208 96.2328 17.7778 92.2152 17.7778H78.839L72.6472 49.7778Z" fill="#177751"/>
<defs>
<radialGradient id="paint0_radial" cx="0" cy="0" r="1" gradientUnits="userSpaceOnUse" gradientTransform="translate(36.3245 11.2202) scale(79.4512 79.6896)">
<stop stop-color="#177751"/>
<stop offset="0.5" stop-color="#A5A5A5"/>
<stop offset="1" stop-color="#177751"/>
</radialGradient>
</defs>
</svg>
