<svg width="101" height="101" viewBox="0 0 101 101" fill="none" xmlns="http://www.w3.org/2000/svg">
<path d="M50.1359 0C24.4958 1.83894e-06 26.097 11.1773 26.097 11.1773L26.1256 22.7568H50.5933V26.2336H16.4071C16.4071 26.2336 0 24.3631 0 50.3696C-1.82936e-06 76.3761 14.3205 75.4539 14.3205 75.4539H22.867V63.3858C22.867 63.3858 22.4063 48.9904 36.9588 48.9904C51.5113 48.9904 61.2264 48.9904 61.2264 48.9904C61.2264 48.9904 74.8609 49.212 74.8609 35.7443C74.8609 22.2767 74.8609 13.476 74.8609 13.476C74.8609 13.476 76.931 0 50.1359 0ZM36.6444 7.78675C39.0787 7.78674 41.0463 9.76459 41.0463 12.2117C41.0463 14.6588 39.0787 16.6366 36.6444 16.6366C34.21 16.6366 32.2425 14.6588 32.2425 12.2117C32.2425 9.76459 34.21 7.78675 36.6444 7.78675Z" fill="url(#paint0_linear)"/>
<path d="M50.8641 101C76.5042 101 74.903 89.8226 74.903 89.8226L74.8744 78.2431H50.4067V74.7663H84.5929C84.5929 74.7663 101 76.6368 101 50.6303C101 24.6238 86.6795 25.546 86.6795 25.546H78.133V37.6141C78.133 37.6141 78.5937 52.0095 64.0412 52.0095C49.4887 52.0095 39.7736 52.0095 39.7736 52.0095C39.7736 52.0095 26.1391 51.7879 26.1391 65.2556C26.1391 78.7232 26.1391 87.524 26.1391 87.524C26.1391 87.524 24.069 101 50.8641 101ZM64.3556 93.2132C61.9213 93.2132 59.9537 91.2353 59.9537 88.7882C59.9537 86.3411 61.9213 84.3633 64.3556 84.3633C66.79 84.3633 68.7575 86.3411 68.7575 88.7882C68.7575 91.2353 66.79 93.2132 64.3556 93.2132Z" fill="url(#paint1_linear)"/>
<defs>
<linearGradient id="paint0_linear" x1="9.70629" y1="8.8283" x2="59.9095" y2="58.9371" gradientUnits="userSpaceOnUse">
<stop stop-color="#177751"/>
<stop offset="1" stop-color="#177751"/>
</linearGradient>
<linearGradient id="paint1_linear" x1="40.4282" y1="40.8719" x2="94.3336" y2="92.2471" gradientUnits="userSpaceOnUse">
<stop stop-color="#31B057"/>
<stop offset="1" stop-color="#31B057"/>
</linearGradient>
</defs>
</svg>
