<svg width="192" height="136" viewBox="0 0 192 136" fill="none" xmlns="http://www.w3.org/2000/svg">
<path d="M151.953 67.737C151.953 60.3122 142.672 53.2757 128.441 48.9122C131.725 34.3824 130.265 22.8225 123.834 19.1215C122.352 18.2534 120.619 17.8422 118.726 17.8422V22.9368C119.775 22.9368 120.619 23.1424 121.326 23.5307C124.427 25.3127 125.773 32.0978 124.724 40.8249C124.473 42.9724 124.062 45.2341 123.561 47.5415C119.091 46.4449 114.21 45.5996 109.079 45.0513C106 40.8249 102.807 36.9868 99.5919 33.6285C107.026 26.7063 114.005 22.9139 118.749 22.9139V17.8193C112.477 17.8193 104.267 22.2971 95.9658 30.0646C87.6645 22.3428 79.4545 17.9107 73.183 17.9107V23.0053C77.9038 23.0053 84.9051 26.7748 92.3397 33.6514C89.1469 37.0097 85.9541 40.8249 82.921 45.0513C77.7669 45.5996 72.8865 46.4449 68.4167 47.5643C67.8921 45.2798 67.5044 43.0637 67.2308 40.9391C66.1589 32.2121 67.4816 25.4269 70.5604 23.6221C71.2445 23.2109 72.134 23.0281 73.183 23.0281V17.9336C71.2673 17.9336 69.5341 18.3448 68.029 19.2129C61.6206 22.9139 60.1838 34.4509 63.4907 48.9351C49.3056 53.3214 40.0693 60.335 40.0693 67.737C40.0693 75.1619 49.3512 82.1983 63.5819 86.5618C60.2979 101.092 61.7574 112.652 68.1886 116.353C69.671 117.221 71.4042 117.632 73.3199 117.632C79.5914 117.632 87.8014 113.154 96.1026 105.387C104.404 113.108 112.614 117.54 118.885 117.54C120.801 117.54 122.534 117.129 124.039 116.261C130.448 112.56 131.885 101.023 128.578 86.539C142.717 82.1755 151.953 75.139 151.953 67.737ZM122.261 52.499C121.417 55.4461 120.368 58.4845 119.182 61.523C118.247 59.6954 117.266 57.8677 116.194 56.0401C115.145 54.2124 114.028 52.4305 112.91 50.6942C116.149 51.1739 119.273 51.7679 122.261 52.499ZM111.816 76.8296C110.037 79.9137 108.212 82.838 106.319 85.5566C102.921 85.8536 99.4778 86.0135 96.0114 86.0135C92.5677 86.0135 89.1241 85.8536 85.7489 85.5795C83.856 82.8608 82.0088 79.9594 80.2299 76.8981C78.4967 73.9053 76.9231 70.8669 75.4864 67.8056C76.9003 64.7442 78.4967 61.6829 80.2071 58.6902C81.986 55.606 83.8104 52.6818 85.7033 49.9631C89.1013 49.6661 92.5449 49.5062 96.0114 49.5062C99.455 49.5062 102.899 49.6661 106.274 49.9403C108.167 52.6589 110.014 55.5603 111.793 58.6216C113.526 61.6144 115.1 64.6529 116.536 67.7142C115.1 70.7755 113.526 73.8368 111.816 76.8296ZM119.182 73.8596C120.413 76.921 121.462 79.9823 122.329 82.9522C119.341 83.6833 116.194 84.3001 112.933 84.7799C114.051 83.0208 115.168 81.2159 116.217 79.3654C117.266 77.5378 118.247 75.6873 119.182 73.8596ZM96.057 98.2359C93.9361 96.0428 91.8152 93.5983 89.717 90.9253C91.7696 91.0167 93.8677 91.0853 95.9886 91.0853C98.1323 91.0853 100.253 91.0396 102.329 90.9253C100.276 93.5983 98.1551 96.0428 96.057 98.2359ZM79.0897 84.7799C75.8513 84.3001 72.7269 83.7061 69.7394 82.9751C70.5832 80.028 71.6322 76.9895 72.8181 73.951C73.7532 75.7787 74.7338 77.6063 75.8057 79.434C76.8775 81.2616 77.9722 83.0436 79.0897 84.7799ZM95.943 37.2381C98.0639 39.4313 100.185 41.8758 102.283 44.5487C100.23 44.4573 98.1323 44.3888 96.0114 44.3888C93.8677 44.3888 91.7467 44.4345 89.6714 44.5487C91.7239 41.8758 93.8449 39.4313 95.943 37.2381ZM79.0669 50.6942C77.9494 52.4533 76.8319 54.2581 75.7828 56.1086C74.7338 57.9363 73.7532 59.7639 72.8181 61.5916C71.5866 58.5302 70.5376 55.4689 69.671 52.499C72.6585 51.7908 75.8057 51.1739 79.0669 50.6942ZM58.4278 79.2969C50.3546 75.8472 45.1322 71.3238 45.1322 67.737C45.1322 64.1503 50.3546 59.604 58.4278 56.1771C60.3891 55.3318 62.5328 54.5779 64.745 53.8697C66.0449 58.3475 67.7553 63.008 69.8762 67.7827C67.7781 72.5346 66.0905 77.1723 64.8134 81.6272C62.5556 80.9189 60.4119 80.1422 58.4278 79.2969ZM70.6972 111.943C67.5957 110.161 66.2501 103.376 67.2992 94.6492C67.55 92.5017 67.9605 90.24 68.4623 87.9326C72.9322 89.0291 77.8125 89.8744 82.9438 90.4227C86.0226 94.6492 89.2153 98.4872 92.4309 101.846C84.9963 108.768 78.0178 112.56 73.2742 112.56C72.248 112.537 71.3814 112.332 70.6972 111.943ZM124.792 94.5349C125.864 103.262 124.541 110.047 121.462 111.852C120.778 112.263 119.889 112.446 118.84 112.446C114.119 112.446 107.118 108.676 99.6831 101.8C102.876 98.4415 106.069 94.6263 109.102 90.3999C114.256 89.8516 119.136 89.0063 123.606 87.8869C124.131 90.1943 124.541 92.4103 124.792 94.5349ZM133.572 79.2969C131.611 80.1422 129.467 80.8961 127.255 81.6043C125.955 77.1266 124.245 72.4661 122.124 67.6913C124.222 62.9394 125.909 58.3018 127.187 53.8469C129.444 54.5551 131.588 55.3318 133.595 56.1771C141.668 59.6268 146.891 64.1503 146.891 67.737C146.868 71.3238 141.645 75.8701 133.572 79.2969Z" fill="#31B057"/>
<path d="M95.9885 78.1778C101.745 78.1778 106.411 73.5034 106.411 67.7373C106.411 61.9712 101.745 57.2969 95.9885 57.2969C90.2326 57.2969 85.5664 61.9712 85.5664 67.7373C85.5664 73.5034 90.2326 78.1778 95.9885 78.1778Z" fill="#31B057"/>
</svg>
