<svg width="113" height="101" viewBox="0 0 113 101" fill="none" xmlns="http://www.w3.org/2000/svg">
<path d="M84.4251 92.7149C71.2409 100.279 53.1128 101.056 34.8746 93.2928C20.1075 87.0533 7.85463 76.1313 0 63.6522C3.77025 66.7719 8.16877 69.2689 12.8814 71.4516C31.7163 80.219 50.5472 79.6186 63.7992 71.4741C63.7908 71.4656 63.7851 71.46 63.7795 71.4516C44.9282 57.0984 28.9048 38.3769 16.9664 23.0894C14.4519 20.5931 12.5667 17.4727 10.6816 14.6646C25.134 27.7694 48.0705 44.3053 56.2376 48.9878C38.9599 30.8892 23.5636 8.42508 24.1908 9.04792C51.5255 36.5059 76.9759 52.1076 76.9759 52.1076C77.8177 52.5789 78.4675 52.9717 78.9901 53.3224C79.541 51.9308 80.0241 50.486 80.4309 48.9878C84.8294 33.0747 79.8037 14.9761 68.806 0C94.2536 15.2889 109.336 43.9939 103.051 68.0207C102.887 68.6688 102.709 69.3084 102.517 69.9369C102.59 70.0239 102.664 70.1136 102.737 70.2062C115.303 85.8079 111.848 102.344 110.277 99.2241C103.46 85.9762 90.841 90.0275 84.4254 92.7152L84.4251 92.7149Z" fill="url(#paint0_linear)"/>
<defs>
<linearGradient id="paint0_linear" x1="55.9633" y1="0" x2="55.9633" y2="99.6065" gradientUnits="userSpaceOnUse">
<stop stop-color="#31B057"/>
<stop offset="1" stop-color="#177751"/>
</linearGradient>
</defs>
</svg>
